<?xml version="1.0" standalone="no"?>
<!DOCTYPE svg PUBLIC "-//W3C//DTD SVG 1.1//EN" "http://www.w3.org/Graphics/SVG/1.1/DTD/svg11.dtd" >
<svg>
<metadata>
Created by FontForge 20110222 at Sun Sep  1 07:01:28 2013
 By Orthosie Webhosting
Copyright 2006 House Industries/Brand Design Co., Inc. All Rights Reserved.
</metadata>
<defs>
<font id="BurbankBigWideBold" horiz-adv-x="724" >
  <font-face 
    font-family="BurbankBigWideBold"
    font-weight="600"
    font-stretch="normal"
    units-per-em="1000"
    panose-1="0 0 0 0 0 0 0 0 0 0"
    ascent="750"
    descent="-250"
    x-height="515"
    cap-height="695"
    bbox="-72 -302 1278 969"
    underline-thickness="50"
    underline-position="-50"
    unicode-range="U+0020-FB04"
  />
<missing-glyph horiz-adv-x="280" 
 />
    <glyph glyph-name="ff" unicode="ff" horiz-adv-x="1007" 
d="M976 316q-57 1 -172 1l3 -342q-88 2 -200 -1q-4 179 -4 343l-83 -1q0 46 -1 155q29 -2 85 -3v11q2 120 60 183t193 63q60 0 143 -17q-5 -58 -9 -147q-41 6 -72 6q-60 0 -85.5 -23.5t-25.5 -72.5v-6h169zM474 295q-49 1 -152 1l3 -281q-88 2 -200 -1q-4 139 -4 282l-94 -1
q0 46 -1 154q33 -2 96 -3q2 125 59 188t184 63q71 0 153 -17q-4 -49 -8 -137q-43 6 -74 6q-59 0 -83.5 -25.5t-26.5 -79.5q45 -1 149 -1z" />
    <glyph glyph-name="fi" unicode="fi" horiz-adv-x="809" 
d="M485 299q-55 1 -163 1l3 -283q-88 1 -200 -1q-4 140 -4 284l-94 -1q0 43 -1 151l96 -3v5q2 121 55 182.5t176 61.5q47 0 120 -13q-5 -61 -7 -149q-37 5 -56 5q-47 0 -65 -20t-20 -69v-6h161zM553 -20q2 162 -2 528q79 0 200 1q0 -325 3 -528q-87 0 -201 -1zM654 556
q-126 0 -126 90q0 88 125 88q123 0 123 -87q0 -91 -122 -91z" />
    <glyph glyph-name="fl" unicode="fl" horiz-adv-x="809" 
d="M477 290q-51 1 -155 1l3 -276q-88 2 -200 -1q-4 136 -4 277l-94 -1q0 46 -1 155l96 -3v8q2 119 56.5 180t175.5 61q67 0 141 -15q-4 -59 -8 -148q-39 7 -71 7q-50 0 -69.5 -22.5t-21.5 -73.5h153zM756 -24l-201 1l2 750l201 -2q-2 -253 -2.5 -440.5t0.5 -248.5v-60z" />
    <glyph glyph-name="ffi" unicode="ffi" horiz-adv-x="1302" 
d="M978 315q-58 1 -177 1l3 -344q-89 2 -200 0q-4 180 -5 344l-96 -1q0 43 -1 151l98 -3v15q2 118 58 181.5t178 63.5q58 0 134 -15q-4 -59 -9 -148q-37 6 -64 6q-50 0 -71.5 -23t-21.5 -71v-12h175zM460 292q-42 1 -138 1l2 -278q-88 2 -200 -1q-3 137 -4 279l-93 -1
q0 46 -1 155q32 -2 95 -3q5 253 245 253q65 0 145 -16q-4 -48 -8 -137q-39 6 -67 6q-59 0 -84 -27t-27 -82h136zM1046 -4q1 134 -3 500q79 0 200 1q1 -297 4 -500q-88 1 -201 -1zM1147 553q-64 0 -95 21.5t-31 68.5q0 88 125 88q123 0 123 -87q0 -91 -122 -91z" />
    <glyph glyph-name="ffl" unicode="ffl" horiz-adv-x="1297" 
d="M962 313q-68 1 -172 1l3 -344q-88 1 -200 -1q-4 180 -4 345h-83q0 46 -1 154q29 -2 85 -3v14q3 245 250 245q66 0 146 -16q-5 -58 -9 -147q-42 6 -72 6q-62 0 -86.5 -24.5t-24.5 -72.5v-8h169zM460 294q-42 1 -138 1l3 -282q-88 2 -200 0q-4 139 -4 282l-94 -1
q0 46 -1 155q32 -2 96 -3q2 130 61 194.5t192 64.5q63 0 140 -13q-5 -56 -9 -145q-31 5 -65 5q-63 0 -88 -27t-27 -82q41 -1 135 -1zM1244 -5l-201 1l2 731l201 -2q-2 -253 -2.5 -435.5t0.5 -238.5v-56z" />
    <glyph glyph-name=".notdef" horiz-adv-x="280" 
 />
    <glyph glyph-name=".null" horiz-adv-x="0" 
 />
    <glyph glyph-name="nonmarkingreturn" horiz-adv-x="333" 
 />
    <glyph glyph-name="space" unicode=" " horiz-adv-x="280" 
 />
    <glyph glyph-name="exclam" unicode="!" horiz-adv-x="323" 
d="M165 -12q-62 0 -97.5 29.5t-35.5 80.5q0 48 33 77.5t98 29.5q59 0 93.5 -31t34.5 -79q0 -50 -37 -78.5t-89 -28.5zM73 244q-3 146 -27 461q15 -1 39 -1.5t90.5 -1.5t100.5 1q-10 -164 -20 -455q-82 1 -183 -4z" />
    <glyph glyph-name="quotedbl" unicode="&#x22;" horiz-adv-x="373" 
d="M40 417q-6 105 -21 277q50 -1 143 3q-6 -84 -7 -273q-39 0 -115 -7zM215 413q2 84 -6 298q49 -3 145 -3q-12 -105 -25 -297z" />
    <glyph glyph-name="numbersign" unicode="#" horiz-adv-x="666" 
d="M402 91q0 44 1 110q-85 0 -140 -1l3 -97l-141 3q0 36 1 93l-107 -2q3 61 -1 136q42 -1 108 -1q0 82 -1 132q-32 0 -102 -2q3 60 -1 136q51 -1 102 -1l-2 96q62 -3 140 1q-1 -40 -1 -97q85 0 140 1q0 39 -2 111q65 -3 140 1q-1 -55 -1 -110q35 0 107 2l-2 -134h-105
q0 -82 1 -135q35 0 109 2q0 -7 -0.5 -19t-1.5 -49t1 -67q-43 0 -106 1q0 -36 2 -110q-58 2 -141 0zM403 332q0 84 -1 136q-43 -1 -141 -1v-136q91 0 142 1z" />
    <glyph glyph-name="dollar" unicode="$" horiz-adv-x="660" 
d="M421 -61l-183 1l6 107q-98 19 -160.5 75.5t-64.5 141.5q91 -2 193 1q2 -45 39 -69t93 -24q37 0 65 13t28 39q0 23 -29.5 35.5t-120.5 20.5q-137 12 -197.5 55.5t-60.5 127.5q0 75 57.5 122.5t154.5 61.5l-8 119h194q-4 -48 -10 -123q91 -19 150.5 -73.5t71.5 -143.5
q-70 3 -192 -2q-12 91 -121 91q-92 0 -92 -53q0 -28 33.5 -41t131.5 -20q135 -9 189 -50t54 -117q0 -81 -61 -130t-163 -62z" />
    <glyph glyph-name="percent" unicode="%" horiz-adv-x="847" 
d="M216 335q-102 0 -152.5 56.5t-50.5 148.5q0 82 55.5 135t149.5 53q97 0 150.5 -51.5t53.5 -146.5q0 -101 -57.5 -148t-148.5 -47zM218 432q66 0 66 100q2 97 -66 97t-68 -97q0 -46 17.5 -73t50.5 -27zM191 -27l-92 13q147 188 282.5 366.5t196.5 263.5l62 85l94 -14
q-158 -201 -293.5 -379.5t-192.5 -256.5zM627 -34q-95 0 -148.5 55t-53.5 142t54.5 143t150.5 56q97 0 150.5 -54t53.5 -143q0 -96 -58.5 -147.5t-148.5 -51.5zM630 63q66 0 66 98q0 99 -67 99q-32 0 -49.5 -25t-17.5 -68q0 -104 68 -104z" />
    <glyph glyph-name="ampersand" unicode="&#x26;" horiz-adv-x="829" 
d="M336 -41q-136 0 -226.5 55t-90.5 158q0 123 145 183q-83 86 -83 169q0 97 78.5 148.5t208.5 51.5q117 0 194.5 -52.5t77.5 -136.5q0 -41 -16.5 -74t-49.5 -57t-64 -40t-77 -33q57 -38 149 -88q29 54 48 123q40 -18 79.5 -34t58.5 -22l19 -7q-23 -77 -58 -136l90 -44
q-26 -38 -76 -132q-42 22 -115 61q-117 -93 -292 -93zM274 515q0 -48 57 -105q62 21 94.5 45t32.5 63q0 35 -25 54t-66 19q-43 0 -68 -20t-25 -56zM364 101q63 0 115 32q-128 73 -206 130q-47 -31 -47 -71q0 -44 39 -67.5t99 -23.5z" />
    <glyph glyph-name="quotesingle" unicode="'" horiz-adv-x="180" 
d="M25 422q2 77 -6 284q48 -4 142 -4q-10 -96 -21 -282z" />
    <glyph glyph-name="parenleft" unicode="(" horiz-adv-x="368" 
d="M184 -156q-139 224 -139 459q0 293 148 481l158 -63q-105 -186 -105 -410q0 -185 112 -406q-43 -13 -86.5 -28.5t-65.5 -24.5z" />
    <glyph glyph-name="parenright" unicode=")" horiz-adv-x="368" 
d="M185 -162q-79 33 -176 63q112 218 112 406q0 227 -104 409q68 25 163 68q143 -188 143 -479q0 -232 -138 -467z" />
    <glyph glyph-name="asterisk" unicode="*" horiz-adv-x="414" 
d="M154 320l-114 51q24 35 49.5 73.5t28.5 43.5l-104 13l20 108q73 -19 113 -28l-13 120l140 4q-10 -72 -14 -125l119 28l21 -111q-51 -3 -99 -10l80 -114q-32 -11 -61.5 -23t-43.5 -18l-13 -6q-11 25 -54 114z" />
    <glyph glyph-name="plus" unicode="+" horiz-adv-x="541" 
d="M188 94q2 104 2 162l-173 -1l-1 156q10 0 175 -3l-1 155l161 -2q-2 -108 -2 -153l176 1l-3 -154q-52 1 -173 1l2 -161z" />
    <glyph glyph-name="comma" unicode="," horiz-adv-x="296" 
d="M112 -151l-91 66q54 42 80 80q-34 9 -54 38t-20 65q0 50 34 83.5t88 33.5q57 0 89 -36.5t32 -97.5q0 -120 -158 -232z" />
    <glyph glyph-name="hyphen" unicode="-" horiz-adv-x="378" 
d="M15 249q1 59 0.5 96t-1.5 55l-1 17l352 -4l-2 -164h-348z" />
    <glyph glyph-name="period" unicode="." horiz-adv-x="298" 
d="M151 -17q-60 0 -92.5 31t-32.5 85q0 52 34.5 83t88.5 31t89 -31.5t34 -80.5q-1 -56 -32 -87t-89 -31z" />
    <glyph glyph-name="slash" unicode="/" horiz-adv-x="489" 
d="M-2 -112q76 199 152.5 411.5t115.5 325.5l38 113h187q-101 -273 -177.5 -485.5t-102.5 -288.5l-26 -76h-187z" />
    <glyph glyph-name="zero" unicode="0" horiz-adv-x="829" 
d="M414 -27q-165 0 -274 102.5t-109 268.5q0 170 107 266.5t276 96.5q180 0 282.5 -93.5t102.5 -266.5q0 -171 -106.5 -272.5t-278.5 -101.5zM418 151q72 0 118 53.5t46 144.5q0 82 -44.5 135.5t-119.5 53.5q-81 0 -124.5 -55t-43.5 -138q0 -85 44.5 -139.5t123.5 -54.5z
" />
    <glyph glyph-name="one" unicode="1" horiz-adv-x="480" 
d="M186 -3q2 333 0 472l-127 -62l-57 165q74 36 135.5 67t86.5 44l24 13l140 -12l6 -686z" />
    <glyph glyph-name="two" unicode="2" horiz-adv-x="733" 
d="M702 -2q-208 4 -375.5 5.5t-230.5 1.5h-63l-6 191q452 113 452 271q0 42 -29.5 68t-79.5 26q-69 0 -101 -45.5t-23 -119.5l-219 1q-15 145 80 232t276 87q163 0 247 -64.5t84 -173.5q0 -117 -104 -197.5t-282 -117.5q100 0 193 3.5t136 6.5l43 3z" />
    <glyph glyph-name="three" unicode="3" horiz-adv-x="779" 
d="M391 -26q-183 0 -285 72.5t-91 209.5q142 -5 234 -9q-5 -57 32.5 -86.5t109.5 -29.5q66 0 105 20.5t39 57.5q0 52 -81 72q-74 15 -184 7q-1 49 -4 120q130 -9 199 11q65 19 65 67q0 39 -35.5 59.5t-97.5 20.5q-70 0 -105.5 -29t-33.5 -81l-228 4q-6 120 91 188t276 68
q156 0 254 -59t98 -157q0 -57 -43 -96t-109 -53q73 -12 118 -54t45 -105q0 -108 -103.5 -163t-265.5 -55z" />
    <glyph glyph-name="four" unicode="4" horiz-adv-x="765" 
d="M460 -1q0 43 2 125q-306 -2 -453 -5q-2 47 -2 159l336 427q97 -3 176.5 -4.5t110.5 -0.5h30q-2 -329 -1 -422q38 0 95 2q-1 -65 -1 -156h-94l2 -124zM230 277h233q1 137 1 306q-131 -168 -234 -306z" />
    <glyph glyph-name="five" unicode="5" horiz-adv-x="770" 
d="M391 -26q-167 0 -260.5 66t-106.5 193l223 2q7 -49 45 -78t99 -29q56 0 95.5 28t39.5 78q0 47 -34.5 76t-98.5 29q-95 0 -135 -65q-89 8 -217 13q7 175 8 407q240 0 652 7q-2 -59 -2 -160q-199 1 -453 -6q-2 -68 -2 -129q85 61 215 61q146 0 220.5 -67.5t74.5 -173.5
q0 -83 -49 -141t-129.5 -84.5t-184.5 -26.5z" />
    <glyph glyph-name="six" unicode="6" horiz-adv-x="802" 
d="M413 -29q-179 0 -280.5 96.5t-101.5 268.5q0 178 105 277t286 99q151 0 242 -64t100 -176q-65 1 -124.5 -0.5t-85.5 -3.5l-27 -1q-17 88 -109 88q-74 0 -117 -56t-45 -147q84 87 229 87q303 0 303 -205q0 -126 -105.5 -194.5t-269.5 -68.5zM442 320q-54 0 -99 -25
t-68 -64q20 -52 60 -79.5t94 -27.5q58 0 92 28.5t34 74.5q0 42 -29 67.5t-84 25.5z" />
    <glyph glyph-name="seven" unicode="7" horiz-adv-x="667" 
d="M165 -4q-3 162 66.5 295.5t200.5 231.5l-424 -6l1 176l651 7l2 -197q-139 -96 -202.5 -219.5t-62.5 -294.5z" />
    <glyph glyph-name="eight" unicode="8" horiz-adv-x="797" 
d="M411 -27q-195 0 -295 58.5t-100 165.5q0 62 42.5 104.5t121.5 55.5q-66 23 -103 65.5t-37 98.5q0 86 89.5 140t271.5 54q178 0 271 -56.5t93 -139.5q0 -56 -37.5 -97.5t-106.5 -61.5q74 -18 117 -60.5t43 -99.5q0 -77 -54.5 -130t-135 -75t-180.5 -22zM404 115
q64 0 105.5 24.5t41.5 67.5q0 41 -46 68t-118 32q-70 -7 -106.5 -32.5t-36.5 -64.5q0 -44 42.5 -69.5t117.5 -25.5zM420 404q55 8 89.5 32.5t34.5 59.5q0 38 -38 59.5t-108 21.5t-106 -22t-36 -57q0 -36 44 -61t120 -33z" />
    <glyph glyph-name="nine" unicode="9" horiz-adv-x="790" 
d="M391 -24q-160 0 -259.5 71.5t-113.5 194.5q65 -2 116 -1.5t82 1.5l30 2q21 -103 139 -103q149 0 155 193q-76 -73 -228 -73q-132 0 -211.5 54.5t-79.5 152.5q0 117 101.5 182t259.5 65q172 0 274.5 -98.5t102.5 -269.5q0 -181 -100.5 -276t-267.5 -95zM373 370
q96 0 158 73q-30 114 -146 114q-63 0 -98 -24.5t-35 -66.5q0 -45 30.5 -70.5t90.5 -25.5z" />
    <glyph glyph-name="colon" unicode=":" horiz-adv-x="295" 
d="M147 -21q-52 0 -83 29t-31 81t31.5 82t85.5 30q56 0 85 -29.5t29 -82.5q0 -110 -117 -110zM145 277q-53 0 -83.5 30t-30.5 87q0 48 31 76t85 28q55 0 84.5 -28.5t29.5 -75.5q0 -60 -32.5 -88.5t-83.5 -28.5z" />
    <glyph glyph-name="semicolon" unicode=";" horiz-adv-x="303" 
d="M118 -150l-87 69q47 41 70 80q-29 9 -47.5 35t-18.5 63q0 46 32 77.5t87 31.5q56 0 87 -34t31 -87q0 -71 -39.5 -126t-114.5 -109zM151 281q-52 0 -83 31.5t-31 80.5q0 48 33 78.5t84 30.5q50 0 82.5 -30.5t32.5 -78.5q0 -55 -32 -83.5t-86 -28.5z" />
    <glyph glyph-name="less" unicode="&#x3c;" horiz-adv-x="496" 
d="M468 41q-172 76 -450 188l2 186q158 64 444 192q-7 -56 -3 -175q-129 -42 -301 -108q155 -60 311 -112q-3 -86 -3 -171z" />
    <glyph glyph-name="equal" unicode="=" horiz-adv-x="494" 
d="M28 154q1 35 -2 134q192 -2 443 2l-1 -136q-167 3 -440 0zM469 372l-443 2l2 134h440z" />
    <glyph glyph-name="greater" unicode="&#x3e;" horiz-adv-x="498" 
d="M25 43q2 36 1.5 80.5t-1.5 60.5t1 24q138 46 316 115q-81 30 -157.5 57t-112.5 38l-36 12q3 133 -3 175q123 -54 234.5 -101t160.5 -67l50 -20q-1 -54 0 -94.5t2 -63.5l1 -23z" />
    <glyph glyph-name="question" unicode="?" horiz-adv-x="725" 
d="M237 219l-3 174q258 -25 258 87q0 41 -33 63.5t-92 22.5q-67 0 -104.5 -34t-39.5 -93q-85 8 -214 10q14 128 104.5 198.5t243.5 70.5q159 0 256.5 -58.5t97.5 -161.5q0 -99 -73 -152.5t-196 -56.5l-1 -68q-70 1 -115.5 0.5t-67.5 -1.5zM349 -28q-69 0 -103 30t-34 80
q0 49 37 78t97 29q64 0 98 -29.5t34 -82.5q0 -48 -35 -76.5t-94 -28.5z" />
    <glyph glyph-name="at" unicode="@" horiz-adv-x="972" 
d="M636 -157q-95 -21 -181 -23t-166.5 21.5t-139 71.5t-93.5 134t-35 203q0 197 119 315.5t346 118.5q225 0 345.5 -108.5t120.5 -321.5q0 -153 -44.5 -215.5t-134.5 -62.5q-43 0 -79 20.5t-54 58.5q-64 -83 -218 -83q-109 0 -170.5 47t-61.5 124q0 78 69 123.5t214 45.5
q40 0 102 -5q0 13 -1 21q-10 74 -95 74t-100 -65l-180 1q8 92 85.5 144.5t211.5 52.5q129 0 197.5 -56t73.5 -149q4 -71 -4 -172q-4 -72 46 -72q30 0 45.5 35t15.5 127q0 176 -91 267t-291 91q-198 0 -291.5 -93.5t-93.5 -265.5q0 -210 132 -297t385 -27q3 -22 16 -80z
M581 203v16q-47 6 -81 6q-66 0 -97.5 -20.5t-31.5 -54.5q0 -29 25.5 -46t64.5 -17q48 0 84 29t36 87z" />
    <glyph glyph-name="A" unicode="A" horiz-adv-x="758" 
d="M3 21q89 288 218 678l312 4q107 -337 222 -724q-128 2 -216 -1l-39 141q-106 2 -263 2q-18 -68 -26 -102zM367 585q-59 -202 -92 -322q40 -1 185 -1q-70 247 -93 323z" />
    <glyph glyph-name="B" unicode="B" horiz-adv-x="754" 
d="M62 -3q-1 330 -8 695q170 26 287 26q364 0 364 -204q0 -65 -39.5 -109t-115.5 -58q94 -15 140.5 -58.5t46.5 -107.5q0 -208 -369 -208q-132 0 -306 24zM251 109q53 -8 109 -8q80 0 123.5 24t42.5 72q0 86 -168 86q-43 0 -110 -8zM247 569v-163q54 -6 98 -6
q77 0 116.5 21.5t39.5 71.5q0 40 -37 63.5t-108 23.5q-43 0 -109 -11z" />
    <glyph glyph-name="C" unicode="C" horiz-adv-x="806" 
d="M419 -18q-176 0 -282 95t-106 269q0 168 102.5 265.5t279.5 97.5q158 0 251.5 -77t111.5 -201l-222 -12q-9 63 -47.5 96.5t-98.5 33.5q-77 0 -118.5 -55.5t-41.5 -144.5q0 -90 44 -146.5t122 -56.5q64 0 104 37t50 111l223 -11q-11 -141 -109 -221t-263 -80z" />
    <glyph glyph-name="D" unicode="D" horiz-adv-x="795" 
d="M259 145q34 -2 49 -2q240 0 240 206q0 94 -57.5 147t-171.5 53q-34 0 -66 -4zM55 -2q2 224 1.5 376.5t-1.5 231.5l-1 78q129 19 238 19q233 0 352.5 -92.5t119.5 -261.5q0 -180 -126.5 -271.5t-373.5 -91.5q-95 0 -209 12z" />
    <glyph glyph-name="E" unicode="E" horiz-adv-x="661" 
d="M62 5q-1 284 -8 687q231 6 570 10q0 -51 2 -152q-130 -1 -371 -7q-1 -52 1 -139q196 0 305 1q-2 -37 1 -137l-303 1l3 -115q131 -3 370 -5q-1 -56 -1 -156q-267 9 -569 12z" />
    <glyph glyph-name="F" unicode="F" horiz-adv-x="623" 
d="M62 2q-1 290 -8 692l549 6q1 -71 4 -171q-190 -3 -351 -4q-1 -48 1 -162q105 0 281 2q-1 -58 1 -166q-111 1 -280 0l4 -196z" />
    <glyph glyph-name="G" unicode="G" horiz-adv-x="821" 
d="M421 -28q-174 0 -282 101.5t-108 273.5q0 164 103.5 266t283.5 102q147 0 242.5 -67.5t116.5 -192.5q-97 -6 -214 -14q-13 54 -51.5 85.5t-98.5 31.5q-80 0 -125.5 -57.5t-45.5 -149.5q0 -98 50 -157t145 -59q56 0 98 27t58 75l-208 -4q2 44 0 141q147 -3 417 -3
q4 -189 -100 -294t-281 -105z" />
    <glyph glyph-name="H" unicode="H" horiz-adv-x="757" 
d="M501 -17v224q-79 0 -244 -1l3 -188q-103 0 -202 -1q0 264 -4 660q97 0 199 1q0 -121 2 -303q76 -3 245 -2l-3 340q96 -1 203 1q0 -325 3 -733z" />
    <glyph glyph-name="I" unicode="I" horiz-adv-x="332" 
d="M66 -1q0 307 -4 695q73 0 203 1q2 -334 5 -695q-97 1 -204 -1z" />
    <glyph glyph-name="J" unicode="J" horiz-adv-x="676" 
d="M317 -15q-145 0 -223 70t-80 198q-2 67 16 120q46 -8 188 -20q-5 -33 -5 -66q0 -134 107 -134q62 0 90 66t28 203q0 115 -31 279q63 1 202 12q33 -167 33 -300q0 -213 -83.5 -320.5t-241.5 -107.5z" />
    <glyph glyph-name="K" unicode="K" horiz-adv-x="755" 
d="M522 -23q-101 168 -169 276q-26 -31 -63 -75t-38 -45l2 -121l-200 -1v670l198 -1q-1 -119 -1 -307l265 339l229 -11q-121 -146 -245 -303q61 -108 122.5 -211t92.5 -151l31 -49q-69 -1 -125 -3.5t-77 -4.5z" />
    <glyph glyph-name="L" unicode="L" horiz-adv-x="602" 
d="M60 3q-1 369 -6 686q62 -2 202 0q-2 -123 4 -522l330 -3l-1 -166z" />
    <glyph glyph-name="M" unicode="M" horiz-adv-x="968" 
d="M43 19q16 269 30 657q148 -1 286 3q45 -156 122 -405q80 259 132 443q124 -3 274 -9q14 -306 38 -725q-105 -2 -204 -5q1 258 -5 574q-74 -240 -134 -443q-94 -2 -207 0q-56 200 -130 427q0 -367 2 -520q-100 2 -204 3z" />
    <glyph glyph-name="N" unicode="N" horiz-adv-x="760" 
d="M57 19q2 248 -3 654q96 4 195 7q105 -174 258 -412q0 183 -10 447q100 -1 198 -1q0 -280 11 -722q-96 -8 -202 -12q-104 171 -258 415q0 -179 6 -378z" />
    <glyph glyph-name="O" unicode="O" horiz-adv-x="835" 
d="M418 -21q-174 0 -280 96t-107 265q-3 174 103.5 273.5t283.5 99.5q178 0 282.5 -98.5t103.5 -273.5q0 -171 -108 -267t-278 -95zM417 140q75 0 122 53t47 148q0 96 -45 153t-124 57q-78 0 -123.5 -56.5t-45.5 -154.5q0 -86 45.5 -143t123.5 -57z" />
    <glyph glyph-name="P" unicode="P" horiz-adv-x="721" 
d="M56 4q3 251 0 669q145 20 251 20q405 0 405 -268q0 -136 -98.5 -198.5t-264.5 -62.5q-38 0 -90 5l3 -164q-124 1 -206 -1zM255 539q0 -116 1 -224q46 -6 85 -6q174 0 174 122q0 114 -179 114q-36 0 -81 -6z" />
    <glyph glyph-name="Q" unicode="Q" horiz-adv-x="836" 
d="M600 -161q-60 108 -85 151q-47 -9 -98 -9q-172 0 -279 93.5t-107 264.5q0 179 109 275.5t279 96.5q188 0 287 -101.5t99 -270.5q0 -181 -125 -278l110 -98zM419 141q75 0 121.5 51.5t46.5 152.5q0 93 -45 148.5t-125 55.5t-124 -57t-44 -148q0 -94 46 -148.5t124 -54.5z
" />
    <glyph glyph-name="R" unicode="R" horiz-adv-x="736" 
d="M512 -26q-52 90 -139 230q-55 -3 -122 2q0 -88 3 -197q-117 1 -198 -1q3 251 0 671q151 32 282 32q176 0 277 -66t100 -186q0 -161 -149 -221q57 -90 156 -236q-91 -10 -210 -28zM249 354q50 -6 89 -6q183 0 183 108q0 104 -156 104q-55 0 -118 -11z" />
    <glyph glyph-name="S" unicode="S" horiz-adv-x="748" 
d="M381 -22q-161 0 -256.5 70.5t-105.5 193.5q79 -1 217 6q2 -55 45 -87t112 -32q50 0 80 17.5t30 48.5q0 34 -37 53.5t-152 33.5q-152 18 -217.5 68t-65.5 145q0 100 86 160.5t234 60.5q161 1 255 -70t107 -195q-75 3 -208 3q-1 50 -42 82.5t-110 32.5q-49 0 -75 -19
t-26 -50q0 -33 39.5 -52.5t144.5 -32.5q163 -20 228.5 -68.5t65.5 -135.5q0 -114 -95.5 -173.5t-253.5 -59.5z" />
    <glyph glyph-name="T" unicode="T" horiz-adv-x="642" 
d="M13 520q0 81 -1 177q410 -1 618 1q-1 -93 -1 -178h-205q4 -411 5 -526q-99 0 -207 -1q0 206 -2 527h-207z" />
    <glyph glyph-name="U" unicode="U" horiz-adv-x="751" 
d="M377 -14q-171 0 -257 107t-86 314q0 126 31 276q65 -9 200 -24q-26 -135 -26 -233q0 -132 33 -196t102 -64q136 0 136 237q0 119 -28 305q64 2 203 9q32 -186 32 -304q0 -427 -340 -427z" />
    <glyph glyph-name="V" unicode="V" horiz-adv-x="745" 
d="M221 -19l-218 678l218 2q78 -289 149 -523l158 563l214 -2q-56 -179 -110.5 -359.5t-81.5 -271.5l-26 -91q-147 0 -303 4z" />
    <glyph glyph-name="W" unicode="W" horiz-adv-x="990" 
d="M585 -25q-85 483 -97 555q-26 -132 -49.5 -260.5t-34.5 -191.5l-10 -63l-298 12q-38 346 -81 651l193 3q25 -250 58 -526q35 161 60 283.5t32 164.5l7 42l249 -1q20 -98 43.5 -216.5t38 -190t22.5 -114.5l68 596l189 -3l-90 -730z" />
    <glyph glyph-name="X" unicode="X" horiz-adv-x="782" 
d="M253 11l-247 5q149 217 216 325q-96 168 -197 333l236 8q36 -78 122 -239q46 81 83.5 149.5t51.5 96.5l14 28l232 -8q-119 -189 -219 -359q66 -110 124 -201t83 -127l24 -35l-247 -8l-148 264z" />
    <glyph glyph-name="Y" unicode="Y" horiz-adv-x="746" 
d="M267 -10q0 10 -2.5 65.5t-4.5 98.5q-86 181 -257 518q68 2 226 9q29 -80 135 -325q53 103 156 355q64 -3 223 -4q-110 -214 -276 -552q-2 -28 2 -164z" />
    <glyph glyph-name="Z" unicode="Z" horiz-adv-x="669" 
d="M630 -3l-594 6l1 141q222 244 347 385l-338 -6l-1 172l579 5l2 -147q-191 -211 -351 -383l357 -1z" />
    <glyph glyph-name="bracketleft" unicode="[" horiz-adv-x="398" 
d="M375 -133q-18 1 -48 1.5t-118 1.5t-147 0q3 305 -4 895q145 -1 312 2q0 -63 3 -136q-59 0 -112 -3q-3 -352 0 -614q60 -2 118 -2q-4 -64 -4 -145z" />
    <glyph glyph-name="backslash" unicode="\" horiz-adv-x="489" 
d="M491 -109q-88 2 -187 0q-79 237 -306 850q83 -3 187 0q136 -403 306 -850z" />
    <glyph glyph-name="bracketright" unicode="]" horiz-adv-x="397" 
d="M25 -131l-6 144l120 2q1 140 0.5 277.5t-1.5 239.5l-1 102l-109 2l1 138l310 -2q-4 -263 -4.5 -487.5t0.5 -317.5l1 -93q-66 0 -143.5 -1t-122.5 -3z" />
    <glyph glyph-name="asciicircum" unicode="^" horiz-adv-x="582" 
d="M566 254q-4 1 -13.5 1.5t-49.5 1.5t-102 0q-38 124 -111 315q-52 -138 -110 -325q-6 1 -18 2t-54.5 2.5t-91.5 1.5q67 159 169 432q7 0 21 -0.5t68.5 -1.5t124.5 1q57 -160 167 -430z" />
    <glyph glyph-name="underscore" unicode="_" horiz-adv-x="549" 
d="M7 -138l-2 153q258 -5 546 -2q-2 -86 -2 -151q-293 4 -542 0z" />
    <glyph glyph-name="grave" unicode="`" 
d="M392 548q-30 32 -150 143q17 8 110 71q31 -43 130 -159q-29 -15 -90 -55z" />
    <glyph glyph-name="a" unicode="a" horiz-adv-x="671" 
d="M247 -22q-105 0 -165.5 45t-60.5 120q0 78 68.5 123t212.5 45q58 0 120 -7q0 7 -1 12q-9 87 -93 87t-100 -71q-68 7 -185 11q13 87 92.5 138t192.5 51q155 0 226.5 -63.5t75.5 -194.5q2 -64 2 -137t-1 -114l-1 -41q-74 1 -173 -1q2 25 4 79q-34 -40 -91.5 -61t-122.5 -21
zM309 92q50 0 83 28.5t36 92.5q-48 6 -84 6q-119 0 -119 -65q0 -30 23 -46t61 -16z" />
    <glyph glyph-name="b" unicode="b" horiz-adv-x="720" 
d="M47 -17q1 222 -2 699l204 -1q-3 -88 -5 -233q66 78 185 78q117 0 188 -75.5t71 -196.5q0 -128 -76.5 -200t-201.5 -72q-128 0 -192 75q1 -16 5 -74q-109 2 -176 0zM357 101q60 0 93 41t33 117q0 59 -33 101t-93 42q-56 0 -90 -41.5t-34 -103.5q0 -69 33 -112.5t91 -43.5z
" />
    <glyph glyph-name="c" unicode="c" horiz-adv-x="681" 
d="M356 -21q-158 0 -241.5 74t-82.5 203q0 121 81 195.5t229 74.5q133 0 219 -59.5t97 -161.5l-213 -9q-5 40 -32 66t-69 26q-52 0 -82 -38.5t-30 -94.5q0 -59 30 -96t84 -37q37 0 64.5 22.5t34.5 65.5q74 -6 219 -11q-23 -106 -106 -163t-202 -57z" />
    <glyph glyph-name="d" unicode="d" horiz-adv-x="723" 
d="M675 -22l-179 2l5 77q-65 -77 -194 -77q-126 0 -200.5 73.5t-74.5 195.5q0 130 72.5 203t197.5 73q107 0 174 -69l-5 234q40 -1 204 1q-2 -328 0 -713zM362 102q57 0 92 40t35 110q-3 66 -36.5 108.5t-91.5 42.5q-56 0 -89.5 -42t-33.5 -109q0 -71 34 -110.5t90 -39.5z
" />
    <glyph glyph-name="e" unicode="e" horiz-adv-x="714" 
d="M368 -23q-172 0 -254.5 75t-81.5 204q0 125 89.5 198t233.5 73q179 -1 258 -85.5t74 -240.5q-139 -1 -443 -7q21 -92 119 -92q80 0 108 58q52 -5 211 -9q-83 -174 -314 -174zM364 399q-54 0 -85.5 -28.5t-38.5 -82.5q11 0 92 3t149 6q-3 50 -33 76t-84 26z" />
    <glyph glyph-name="f" unicode="f" horiz-adv-x="532" 
d="M501 308q-58 1 -179 1l3 -307q-88 2 -200 -1q-4 156 -4 308l-94 -1q0 46 -1 154q34 -1 96 -2v10q1 51 12.5 90t38 72t75.5 50t119 17q67 0 158 -18q-5 -58 -9 -147q-49 7 -86 7q-60 0 -82 -19.5t-22 -58.5v-6q53 -1 176 -1z" />
    <glyph glyph-name="g" unicode="g" horiz-adv-x="648" 
d="M308 -302q-135 0 -215.5 34t-80.5 100q0 90 133 109q-45 9 -72 34t-27 55q0 69 102 104q-122 55 -122 181q1 110 84.5 164.5t211.5 54.5q39 0 68 -4q30 111 49 200q87 -40 205 -90q-52 -61 -118 -149q102 -58 102 -183q0 -105 -86 -156.5t-210 -51.5q-37 0 -80 5
q-9 -9 -9 -21q0 -11 12 -17.5t44.5 -11.5t89.5 -7q142 -5 206.5 -45t64.5 -115q0 -62 -52.5 -106t-130 -64t-169.5 -20zM324 211q44 0 72.5 25.5t28.5 71.5q0 41 -27 67t-74 26q-48 0 -74 -26.5t-26 -67.5q0 -43 27.5 -69.5t72.5 -26.5zM467 -149q0 17 -14 27t-61 18
t-131 10q-38 -18 -38 -47q0 -54 125 -54q57 0 88 12.5t31 33.5z" />
    <glyph glyph-name="h" unicode="h" horiz-adv-x="683" 
d="M46 18q4 286 0 662q73 0 203 1l-1 -241q28 40 77.5 64t112.5 24q94 0 147 -55t57 -153q2 -80 2.5 -165t-0.5 -130l-1 -45l-198 1q1 14 1.5 38t1 98.5t-1.5 134.5q-3 111 -80 111q-55 0 -84.5 -44t-31.5 -108q-2 -37 -2 -85t1 -78l1 -29q-91 2 -204 -1z" />
    <glyph glyph-name="i" unicode="i" horiz-adv-x="314" 
d="M58 1q2 131 -2 497q79 0 200 1q0 -293 3 -497q-87 1 -201 -1zM159 544q-126 0 -126 90q0 88 125 88q123 0 123 -87q0 -91 -122 -91z" />
    <glyph glyph-name="j" unicode="j" horiz-adv-x="314" 
d="M162 543q-127 0 -127 93q0 40 31 64t93 24q60 0 91 -24t31 -65q0 -92 -119 -92zM-72 -223q5 35 5 142q36 -4 48 -4q42 0 60 20t19 68q1 113 1 222t-1 189l-1 80q69 -2 113 -1.5t64 1.5l20 1q1 -22 1.5 -62.5t1.5 -176t0 -270.5q0 -220 -221 -220q-49 0 -110 11z" />
    <glyph glyph-name="k" unicode="k" horiz-adv-x="661" 
d="M442 -23q-71 134 -123 219q-37 -43 -73 -88l1 -90l-201 1q2 228 2.5 393.5t-0.5 217.5l-1 51l201 -2q-2 -178 -2 -385q49 66 88.5 126t55.5 87l15 27l238 -5q-118 -139 -179 -217l194 -324z" />
    <glyph glyph-name="l" unicode="l" horiz-adv-x="306" 
d="M253 1l-201 1l2 698l201 -2z" />
    <glyph glyph-name="m" unicode="m" horiz-adv-x="1056" 
d="M48 15q2 198 -3 477l158 -1q-2 -34 -2 -78q31 53 89 84t130 31q145 0 188 -124q76 94 202 94q107 0 153 -59.5t51 -162.5q3 -56 3 -130t-1 -120l-2 -46l-197 1q6 121 -1 244q-5 106 -78 106q-48 0 -76 -41t-30 -104v-153q-88 1 -200 -1q1 12 2 32.5t2.5 84t-2.5 113.5
q-5 99 -74 99q-44 0 -77 -42.5t-34 -110.5q-2 -41 -2.5 -89t0.5 -75l1 -28q-75 1 -200 -1z" />
    <glyph glyph-name="n" unicode="n" horiz-adv-x="681" 
d="M442 -20q1 14 1.5 38t1.5 98.5t-1 134.5q-2 111 -81 111q-51 0 -82 -41.5t-33 -107.5q-2 -30 -2 -79t1 -83l1 -34q-126 2 -203 0l1 474q96 -2 159 1q-2 -41 -2 -88q30 58 88.5 91.5t138.5 32.5q99 -1 152.5 -58.5t57.5 -161.5q2 -44 2.5 -125.5t-0.5 -141.5v-60z" />
    <glyph glyph-name="o" unicode="o" 
d="M361 -17q-148 0 -238.5 71t-90.5 209q-1 124 91 193.5t235 69.5q150 0 242.5 -71.5t91.5 -197.5q0 -92 -47.5 -155.5t-120 -91t-163.5 -27.5zM363 118q53 0 88 36.5t35 105.5q0 58 -31.5 96t-90.5 38q-56 0 -91 -34.5t-35 -95.5q0 -67 32.5 -106.5t92.5 -39.5z" />
    <glyph glyph-name="p" unicode="p" horiz-adv-x="731" 
d="M45 -216v724l185 1q-1 -33 -1 -64q72 81 205 81q120 0 192.5 -81t72.5 -190q1 -126 -76 -200t-203 -74q-113 0 -177 67l11 -263zM373 100q59 0 90 41t31 116q0 61 -33.5 103.5t-90.5 42.5t-91.5 -40.5t-34.5 -110.5q0 -67 33.5 -109.5t95.5 -42.5z" />
    <glyph glyph-name="q" unicode="q" horiz-adv-x="731" 
d="M475 -213q10 192 11 262q-59 -72 -183 -72q-127 0 -199 78.5t-72 197.5q0 125 76.5 201t186.5 76q64 0 117.5 -22.5t86.5 -62.5l-3 68h187q-2 -198 -2 -379.5t1 -263.5l1 -82zM360 99q57 0 92.5 40t35.5 113q0 64 -34 107t-93 43q-58 0 -91 -42t-33 -106q0 -71 31.5 -113
t91.5 -42z" />
    <glyph glyph-name="r" unicode="r" horiz-adv-x="492" 
d="M46 1q1 249 -1 490q68 0 164 1q-1 -40 -1 -90q34 63 103 93.5t164 19.5q-3 -77 -4 -177q-132 0 -177.5 -43.5t-47.5 -168.5l2 -124q-80 0 -202 -1z" />
    <glyph glyph-name="s" unicode="s" horiz-adv-x="628" 
d="M330 -33q-138 0 -220.5 52.5t-93.5 155.5q52 -1 191 1q13 -80 122 -80q38 0 61.5 12.5t23.5 31.5q0 24 -31 37t-119 21q-120 12 -176.5 51.5t-56.5 120.5q0 78 72 122t197 44q136 0 216 -54t92 -137q-56 -2 -185 -11q-8 33 -39 52.5t-74 19.5q-39 0 -58.5 -12t-19.5 -30
q0 -22 29 -35t105 -19q135 -11 191 -48.5t56 -110.5q0 -89 -77 -136.5t-206 -47.5z" />
    <glyph glyph-name="t" unicode="t" horiz-adv-x="535" 
d="M511 22q-104 -29 -184 -29q-219 0 -225 241q-2 94 -2 151l-91 -1l-1 148l93 -2l3 132l199 1q-2 -57 -3 -134h202l-1 -147q-140 2 -202 2q0 -66 3 -126q2 -50 23.5 -73t70.5 -23q35 0 101 16z" />
    <glyph glyph-name="u" unicode="u" horiz-adv-x="682" 
d="M280 2q-130 0 -185.5 79t-55.5 247q0 89 12 176q46 -6 190 -14q-8 -75 -8 -134q0 -106 22 -153t76 -47q40 0 68.5 33.5t31.5 106.5q4 47 4.5 104.5t-0.5 91.5l-1 34q44 -2 198 -2q-3 -212 1 -530l-171 1q2 33 2 84q-64 -77 -184 -77z" />
    <glyph glyph-name="v" unicode="v" horiz-adv-x="643" 
d="M454 1q-74 4 -137.5 5t-90.5 0l-26 -1l-200 487l207 9q34 -111 62.5 -200.5t40.5 -123.5l12 -34l118 386l203 -4z" />
    <glyph glyph-name="w" unicode="w" horiz-adv-x="912" 
d="M542 -10l-95 332q-30 -100 -51.5 -176t-27.5 -102l-6 -26q-96 -1 -151.5 -0.5t-76.5 1.5l-21 1l-110 472q61 -1 108.5 0t64.5 2l18 2l62 -329q27 81 52.5 165t37.5 128l13 44h176q35 -112 64 -198.5t41 -117.5l11 -30l70 373l188 -4q-37 -154 -67 -287.5t-42 -189.5
l-12 -56q-66 0 -127.5 -1t-90.5 -2z" />
    <glyph glyph-name="x" unicode="x" horiz-adv-x="700" 
d="M6 11q115 161 178 256l-165 231l229 5q17 -31 99 -175l122 208l215 -11q-142 -204 -183 -266q53 -80 100.5 -148.5t68.5 -97.5l21 -29q-68 0 -124.5 -1.5t-78.5 -2.5l-22 -2q-72 123 -125 206q-34 -54 -60 -98t-35 -61l-10 -17z" />
    <glyph glyph-name="y" unicode="y" horiz-adv-x="639" 
d="M374 -250l-207 32q22 54 38 97t21 59l5 16q-60 144 -117.5 277t-84.5 195l-27 61q64 1 117.5 4t74.5 5l21 3q30 -97 58 -183t41 -124l13 -38q35 108 63.5 203t39.5 135l11 41l196 -9q-91 -260 -156.5 -453.5t-86.5 -256.5z" />
    <glyph glyph-name="z" unicode="z" horiz-adv-x="607" 
d="M573 -3q-194 4 -329 6t-174 2h-38l2 118l293 248q-100 -2 -171.5 -4.5t-92.5 -4.5l-21 -1l-2 149q166 0 298 1t180 3l49 1l1 -122q-91 -75 -163.5 -136.5t-99.5 -85.5l-27 -24q83 0 157 1.5t107 3.5l33 1z" />
    <glyph glyph-name="braceleft" unicode="{" horiz-adv-x="442" 
d="M423 -127q-62 -18 -121 -18q-94 0 -135.5 40t-41.5 132l4 110q0 61 -24 86.5t-92 21.5q2 87 2 166q64 -4 88.5 12t24.5 62q0 17 -4.5 68.5t-3.5 78.5q0 146 166 146q59 0 123 -16l3 -135q-54 7 -75 -8t-21 -57q0 -14 2.5 -50.5t2.5 -55.5q0 -59 -21 -88t-76 -40
q52 -14 71.5 -46.5t19.5 -91.5l-3 -92q0 -57 21 -75t84 -11z" />
    <glyph glyph-name="bar" unicode="|" horiz-adv-x="325" 
d="M75 -116q2 437 -3 859l180 -2l-1 -855q-66 2 -176 -2z" />
    <glyph glyph-name="braceright" unicode="}" horiz-adv-x="442" 
d="M19 -132q4 33 6 136q62 -7 84.5 9t22.5 67q0 13 -3 51.5t-3 59.5q0 107 95 129q-55 12 -77.5 42.5t-22.5 91.5q0 19 3 55t3 50q0 41 -22.5 55t-74.5 9l2 137q65 13 116 13q94 0 134.5 -36t40.5 -112q0 -24 -4.5 -70.5t-4.5 -65.5q0 -51 23 -69t90 -13l2 -162
q-63 4 -89.5 -20t-26.5 -82q0 -19 3.5 -64t3.5 -68q0 -85 -41.5 -122.5t-134.5 -38.5q-63 0 -125 18z" />
    <glyph glyph-name="asciitilde" unicode="~" horiz-adv-x="512" 
d="M127 485q-42 6 -110 11q-9 101 30 159t111 58q37 0 74.5 -22.5t67 -45t47.5 -22.5q20 0 29.5 17t12.5 69q43 -4 108 -7q5 -109 -30.5 -162t-102.5 -53q-38 0 -78 21.5t-71 42.5t-46 21q-22 0 -31 -18.5t-11 -68.5z" />
    <glyph glyph-name="exclamdown" unicode="&#xa1;" horiz-adv-x="323" 
d="M47 -118q10 167 20 458q82 -1 183 4q3 -149 27 -464q-15 1 -39 1.5t-90.5 1.5t-100.5 -1zM160 377q-59 0 -93.5 31t-34.5 79q0 49 36.5 78t88.5 29q63 0 98.5 -29.5t35.5 -80.5q0 -47 -33.5 -77t-97.5 -30z" />
    <glyph glyph-name="cent" unicode="&#xa2;" horiz-adv-x="684" 
d="M254 -61q6 76 8 113q-112 23 -178.5 102.5t-66.5 193.5q0 116 64 194.5t179 100.5l-11 124h196q-5 -46 -11 -127q97 -21 159 -82t68 -146l-215 -10q-8 45 -36.5 73.5t-73.5 28.5q-57 0 -86.5 -42t-29.5 -107q0 -68 33 -108.5t89 -40.5q44 0 72 25t34 67q76 -5 219 -10
q-16 -101 -77 -160t-157 -77l7 -112h-186z" />
    <glyph glyph-name="sterling" unicode="&#xa3;" horiz-adv-x="751" 
d="M31 242l-2 128q19 -1 57 -1q-37 76 -37 125q0 109 89 165.5t240 56.5q168 0 262.5 -78.5t92.5 -207.5q-73 0 -220 -9q-2 61 -34.5 93t-90.5 32q-56 0 -86.5 -23.5t-30.5 -68.5q0 -38 31 -88l278 3v-136q-132 4 -246 6q-13 -52 -58 -81q108 -4 445 5q-1 -7 -1.5 -20.5
t-1.5 -58.5t-1 -94q-255 10 -686 11l1 151q68 24 81 90h-82z" />
    <glyph glyph-name="yen" unicode="&#xa5;" horiz-adv-x="746" 
d="M63 206q1 48 -3 115h120q-80 162 -177 352q73 -1 220 7q64 -163 144 -344q61 133 158 374q10 -1 27.5 -2t76 -2.5t114.5 0.5q-87 -164 -191 -379l122 3l-1 -115q-68 0 -175 -1q-5 -9 -12.5 -25.5t-10.5 -21.5q135 2 201 4q0 -45 1 -111q-80 0 -205 -1l3 -72
q-97 2 -208 -1q1 13 0 71q-141 -2 -209 -4q1 48 1 112q84 -1 196 0q-2 5 -10 20.5t-12 24.5q-115 -2 -170 -4z" />
    <glyph glyph-name="section" unicode="&#xa7;" horiz-adv-x="745" 
d="M391 -262q-157 0 -258 62.5t-116 186.5l216 7q10 -102 150 -102q55 0 87.5 18t32.5 51q0 32 -41 46.5t-165 20.5q-147 7 -212.5 47.5t-65.5 124.5q0 50 36 87.5t98 49.5q-58 21 -89.5 65.5t-31.5 101.5q0 95 88 154.5t241 59.5q151 0 245.5 -68.5t104.5 -190.5
q-73 4 -126 5t-69 0l-17 -2q-11 97 -135 97q-55 0 -84.5 -16.5t-29.5 -46.5q0 -38 47.5 -57t154.5 -28q150 -13 214 -50t64 -112q0 -45 -30.5 -82.5t-78.5 -59.5q103 -37 108 -144q0 -104 -94.5 -164.5t-243.5 -60.5zM250 235q0 -38 42.5 -57.5t163.5 -28.5q44 26 44 66
t-40.5 58t-141.5 26q-68 -19 -68 -64z" />
    <glyph glyph-name="dieresis" unicode="&#xa8;" 
d="M252 570q-42 0 -64 21.5t-22 54.5q0 30 25 49.5t62 19.5q38 0 61.5 -19.5t23.5 -52.5q0 -37 -24.5 -55t-61.5 -18zM475 572q-37 0 -59.5 20.5t-22.5 54.5q0 30 22.5 49.5t61.5 19.5q40 0 60.5 -20t20.5 -52q0 -35 -24 -53.5t-59 -18.5z" />
    <glyph glyph-name="copyright" unicode="&#xa9;" horiz-adv-x="864" 
d="M432 109q-121 0 -191 59.5t-70 172.5q0 115 74.5 177t189.5 62q107 0 177 -50.5t69 -137.5l-154 1q-3 39 -27.5 62.5t-66.5 23.5q-51 0 -77 -37t-26 -99q0 -60 27.5 -95.5t77.5 -35.5q85 0 93 95h152q1 -44 -15.5 -79.5t-42 -57t-60 -36t-66.5 -20t-64 -5.5zM423 -26
q-191 0 -291.5 101.5t-100.5 280.5q0 158 108 257t302 99q176 0 284.5 -97.5t108.5 -267.5q0 -98 -32.5 -171.5t-90 -116.5t-130 -64t-158.5 -21zM429 39q46 0 88.5 7.5t88.5 28t78.5 53.5t54 89t21.5 128q0 139 -82.5 220t-240.5 81q-163 0 -248 -83.5t-85 -218.5
q0 -147 87 -226t238 -79z" />
    <glyph glyph-name="ordfeminine" unicode="&#xaa;" horiz-adv-x="505" 
d="M182 307q-76 0 -122 31t-46 87q0 119 235 119q20 0 68 -2v12q0 26 -15.5 41t-43.5 15q-59 0 -68 -51q-66 7 -159 7q13 68 73.5 104t157.5 36q105 0 159 -46.5t59 -132.5q2 -46 1.5 -93t-1.5 -82l-2 -36q-48 -1 -133 0q3 20 5 53q-47 -62 -168 -62zM320 464v19
q-17 2 -46 2q-92 0 -92 -49q0 -21 17 -33.5t43 -12.5q33 0 55.5 21t22.5 53z" />
    <glyph glyph-name="guillemotleft" unicode="&#xab;" horiz-adv-x="470" 
d="M119 105q-36 87 -108 237q51 90 119 224q39 -3 134 -4q-52 -93 -118 -224q40 -91 105 -226q-51 0 -132 -7zM319 105q-37 88 -110 235q45 77 106 202q59 -4 132 -5q-50 -89 -105 -202q38 -85 111 -228q-59 2 -134 -2z" />
    <glyph glyph-name="registered" unicode="&#xae;" horiz-adv-x="475" 
d="M242 264q-121 0 -176.5 56.5t-55.5 168.5q0 101 55.5 163t167.5 62q123 0 177.5 -63.5t54.5 -166.5q0 -108 -57.5 -164t-165.5 -56zM243 305q86 0 130.5 41.5t44.5 132.5q0 98 -44 146t-144 48q-174 0 -174 -187q0 -94 42 -137.5t145 -43.5zM276 350q-11 31 -35 88
q-21 0 -32 1q0 -40 3 -81q-30 1 -89 0q3 96 3 268q54 8 91 8q151 0 151 -99q0 -59 -50 -82q16 -35 45 -90q-35 -4 -87 -13zM210 492q6 -1 18 -1q46 0 46 40t-46 40q-12 0 -19 -1z" />
    <glyph glyph-name="macron" unicode="&#xaf;" 
d="M197 591q1 30 -1 101q86 -1 332 2l-1 -101q-100 2 -330 -2z" />
    <glyph glyph-name="degree" unicode="&#xb0;" horiz-adv-x="390" 
d="M198 377q-78 0 -131.5 45.5t-53.5 127.5q0 72 48 117.5t132 45.5q89 0 137 -44.5t48 -118.5q0 -78 -48 -125.5t-132 -47.5zM197 464q35 0 56.5 22t21.5 63q0 35 -21 58t-58 23t-58.5 -24t-21.5 -57q0 -36 21.5 -60.5t59.5 -24.5z" />
    <glyph glyph-name="twosuperior" unicode="&#xb2;" horiz-adv-x="447" 
d="M426 311l-404 4l-4 121q270 58 270 154q0 24 -15.5 39t-42.5 15q-84 0 -74 -97q-62 1 -138 0q-8 88 48.5 138.5t167.5 50.5q96 0 148 -39t52 -103q0 -67 -66.5 -115t-173.5 -68q58 0 116 2t87 4l29 2v-108z" />
    <glyph glyph-name="threesuperior" unicode="&#xb3;" horiz-adv-x="479" 
d="M242 296q-114 0 -174 43t-57 123q64 -3 157 -5q-1 -33 19.5 -50t57.5 -17q34 0 54.5 12t20.5 33q0 30 -43 41q-50 9 -121 3q1 31 -2 77q83 -6 121 5q43 11 43 39q0 21 -18 33.5t-52 12.5q-36 0 -57 -18t-20 -48l-151 3q-3 72 55.5 112t168.5 40q101 0 159 -34t58 -92
q0 -38 -25.5 -62t-66.5 -30q45 -7 72 -33.5t27 -62.5q0 -59 -62.5 -92t-163.5 -33z" />
    <glyph glyph-name="acute" unicode="&#xb4;" 
d="M332 548l-90 55q44 52 76 91.5t42 53.5l10 13l112 -70q-53 -49 -90.5 -85t-48.5 -47z" />
    <glyph glyph-name="paragraph" unicode="&#xb6;" horiz-adv-x="687" 
d="M431 554q-20 -1 -58 -7q0 -329 2 -540q-161 5 -256.5 96.5t-95.5 250.5q0 170 107.5 262t314.5 92q81 0 181 -17q-3 -404 8 -936q-60 4 -209 4q4 557 6 795z" />
    <glyph glyph-name="periodcentered" unicode="&#xb7;" horiz-adv-x="300" 
d="M149 248q-53 0 -84 29.5t-31 81.5t31 81.5t86 29.5t84.5 -29.5t29.5 -81.5q0 -111 -116 -111z" />
    <glyph glyph-name="cedilla" unicode="&#xb8;" 
d="M303 8l81 1q-1 -26 -1 -61q64 0 97 -22t33 -59q0 -43 -46 -68.5t-132 -25.5q-63 0 -119 25q7 28 13 65q46 -23 88 -23q57 0 57 31q0 37 -91 28q10 45 20 109z" />
    <glyph glyph-name="onesuperior" unicode="&#xb9;" horiz-adv-x="310" 
d="M122 311v117v97v50l-79 -37l-38 109l154 77l99 -8l4 -404z" />
    <glyph glyph-name="ordmasculine" unicode="&#xba;" horiz-adv-x="513" 
d="M256 300q-115 0 -176.5 56.5t-61.5 156.5q0 89 66 143t174 54q115 0 176.5 -54t61.5 -149q0 -102 -67.5 -154.5t-172.5 -52.5zM257 405q37 0 57 27.5t20 76.5q0 48 -20 74.5t-57 26.5q-38 0 -58.5 -27t-20.5 -69q0 -51 20.5 -80t58.5 -29z" />
    <glyph glyph-name="guillemotright" unicode="&#xbb;" horiz-adv-x="471" 
d="M149 112q-53 5 -128 8q50 86 111 205q-40 88 -109 227q54 -1 132 5q31 -75 107 -236q-48 -82 -113 -209zM344 107q-40 5 -135 6q51 87 115 217q-37 86 -105 226q56 -1 135 4q37 -93 106 -233q-54 -97 -116 -220z" />
    <glyph glyph-name="onequarter" unicode="&#xbc;" horiz-adv-x="946" 
d="M122 311v117v97v50l-79 -37l-38 109l154 77l99 -8l4 -404zM231 -29q-11 7 -125 20q146 187 278 365t191 262l59 85l129 -20q-159 -202 -292 -380t-187 -255zM753 -6l1 73q-123 0 -279 -3q0 29 -1 96l205 252q59 -3 111 -4t74 0h23q-1 -104 -1 -245q34 0 51 1
q-1 -42 -1 -97h-50l1 -72zM755 333q-51 -62 -138 -171h138v171z" />
    <glyph glyph-name="onehalf" unicode="&#xbd;" horiz-adv-x="971" 
d="M122 311v117v97v50l-79 -37l-38 109l154 77l99 -8l4 -404zM231 -29q-11 7 -125 20q146 187 278 365t191 262l59 85l129 -20q-159 -202 -292 -380t-187 -255zM950 -7l-404 4l-4 121q270 58 270 154q0 24 -15.5 39t-42.5 15q-84 0 -74 -97q-62 1 -138 0q-8 88 48.5 138.5
t167.5 50.5q96 0 148 -39t52 -103q0 -67 -66.5 -115t-173.5 -68q58 0 116 2t87 4l29 2v-108z" />
    <glyph glyph-name="threequarters" unicode="&#xbe;" horiz-adv-x="1065" 
d="M242 296q-114 0 -174 43t-57 123q64 -3 157 -5q-1 -33 19.5 -50t57.5 -17q34 0 54.5 12t20.5 33q0 30 -43 41q-50 9 -121 3q1 31 -2 77q83 -6 121 5q43 11 43 39q0 21 -18 33.5t-52 12.5q-36 0 -57 -18t-20 -48l-151 3q-3 72 55.5 112t168.5 40q101 0 159 -34t58 -92
q0 -38 -25.5 -62t-66.5 -30q45 -7 72 -33.5t27 -62.5q0 -59 -62.5 -92t-163.5 -33zM350 -29q-11 7 -125 20q146 187 278 365t191 262l59 85l129 -20q-159 -202 -292 -380t-186 -255zM872 -6l1 73q-123 0 -279 -3q0 29 -1 96l205 252q59 -3 111 -4t75 0h22q-1 -104 -1 -245
q34 0 51 1q-1 -42 -1 -97h-50l1 -72zM874 333q-51 -62 -138 -171h138v171z" />
    <glyph glyph-name="questiondown" unicode="&#xbf;" horiz-adv-x="725" 
d="M368 -148q-158 0 -256 59t-98 161q0 99 73 152.5t196 57.5l1 62q70 -1 115.5 -0.5t66.5 1.5l22 1l3 -165q-135 13 -196.5 -10.5t-61.5 -83.5q0 -41 36 -66.5t95 -25.5q68 0 102 38.5t36 97.5q85 -8 214 -10q-16 -126 -106 -197.5t-242 -71.5zM380 377q-65 0 -100 29.5
t-35 83.5q0 50 36 78.5t97 28.5q69 0 103.5 -30.5t34.5 -81.5q0 -50 -37.5 -79t-98.5 -29z" />
    <glyph glyph-name="Agrave" unicode="&#xc0;" horiz-adv-x="758" 
d="M3 21q89 288 218 678l312 4q107 -337 222 -724q-128 2 -216 -1l-39 141q-106 2 -263 2q-18 -68 -26 -102zM367 585q-59 -202 -92 -322q40 -1 185 -1q-70 247 -93 323zM363 748q-30 32 -150 143q17 8 110 71q31 -43 130 -159q-29 -15 -90 -55z" />
    <glyph glyph-name="Aacute" unicode="&#xc1;" horiz-adv-x="758" 
d="M3 21q89 288 218 678l312 4q107 -337 222 -724q-128 2 -216 -1l-39 141q-106 2 -263 2q-18 -68 -26 -102zM367 585q-59 -202 -92 -322q40 -1 185 -1q-70 247 -93 323zM388 748l-90 55q44 52 76 91.5t42 53.5l10 13l112 -70q-53 -49 -90.5 -85t-48.5 -47z" />
    <glyph glyph-name="Acircumflex" unicode="&#xc2;" horiz-adv-x="758" 
d="M3 21q89 288 218 678l312 4q107 -337 222 -724q-128 2 -216 -1l-39 141q-106 2 -263 2q-18 -68 -26 -102zM367 585q-59 -202 -92 -322q40 -1 185 -1q-70 247 -93 323zM241 744q-21 25 -65 73q56 40 137 109q37 -1 114 2q45 -41 137 -111q-18 -17 -64 -72q-47 36 -131 94
q-41 -24 -128 -95z" />
    <glyph glyph-name="Atilde" unicode="&#xc3;" horiz-adv-x="758" 
d="M3 21q89 288 218 678l312 4q107 -337 222 -724q-128 2 -216 -1l-39 141q-106 2 -263 2q-18 -68 -26 -102zM367 585q-59 -202 -92 -322q40 -1 185 -1q-70 247 -93 323zM275 763q-37 2 -99 -2q-5 73 24 121.5t90 48.5q38 0 86.5 -28.5t66.5 -28.5q27 0 21 54q35 1 96 6
q14 -77 -12 -123.5t-84 -46.5q-43 0 -94 27t-65 27q-34 0 -30 -55z" />
    <glyph glyph-name="Adieresis" unicode="&#xc4;" horiz-adv-x="758" 
d="M3 21q89 288 218 678l312 4q107 -337 222 -724q-128 2 -216 -1l-39 141q-106 2 -263 2q-18 -68 -26 -102zM367 585q-59 -202 -92 -322q40 -1 185 -1q-70 247 -93 323zM260 767q-42 0 -64 21.5t-22 54.5q0 30 25 49.5t62 19.5q38 0 61.5 -19.5t23.5 -52.5q0 -37 -24.5 -55
t-61.5 -18zM483 769q-37 0 -59.5 20.5t-22.5 54.5q0 30 22.5 49.5t61.5 19.5q40 0 60.5 -20t20.5 -52q0 -35 -24 -53.5t-59 -18.5z" />
    <glyph glyph-name="Aring" unicode="&#xc5;" horiz-adv-x="758" 
d="M3 21q89 288 218 678l312 4q107 -337 222 -724q-128 2 -216 -1l-39 141q-106 2 -263 2q-18 -68 -26 -102zM367 585q-59 -202 -92 -322q40 -1 185 -1q-70 247 -93 323zM365 753q-64 0 -99.5 30t-35.5 76q0 50 38 77.5t98 27.5q66 0 102 -30t36 -75q0 -53 -39 -79.5
t-100 -26.5zM369 811q25 0 40.5 13.5t15.5 34.5q0 20 -14 35t-42 15q-27 0 -42.5 -13t-15.5 -35t14.5 -36t43.5 -14z" />
    <glyph glyph-name="AE" unicode="&#xc6;" horiz-adv-x="1065" 
d="M987 276q-11 1 -33.5 1.5t-101 1.5t-167.5 -1l30 -135q109 -2 319 6l-2 -153q-157 0 -492 -11q-10 47 -30 134q-145 3 -267 2l-31 -104l-209 1q110 295 240 689q255 -4 452.5 -5.5t266.5 -0.5l70 1q-3 -55 2 -152q-13 1 -40 1.5t-130 2t-237 -0.5q10 -51 31 -147
q233 0 328 2q-1 -51 1 -132zM397 594q-53 -148 -110 -332q49 -1 189 -1q-45 193 -79 333z" />
    <glyph glyph-name="Ccedilla" unicode="&#xc7;" horiz-adv-x="806" 
d="M791 283q-10 -131 -96 -209.5t-232 -89.5v-44q64 0 97 -22t33 -59q0 -43 -46 -68.5t-132 -25.5q-63 0 -119 25q7 28 13 65q46 -23 88 -23q57 0 57 31q0 37 -91 28q8 38 17 93q-160 10 -254.5 103.5t-94.5 258.5q0 168 102.5 265.5t279.5 97.5q158 0 251.5 -77t111.5 -201
l-222 -12q-9 63 -47.5 96.5t-98.5 33.5q-77 0 -118.5 -55.5t-41.5 -144.5q0 -90 44 -146.5t122 -56.5q64 0 104 37t50 111z" />
    <glyph glyph-name="Egrave" unicode="&#xc8;" horiz-adv-x="661" 
d="M62 5q-1 284 -8 687q231 6 570 10q0 -51 2 -152q-130 -1 -371 -7q-1 -52 1 -139q196 0 305 1q-2 -37 1 -137l-303 1l3 -115q131 -3 370 -5q-1 -56 -1 -156q-267 9 -569 12zM337 743q-30 32 -150 143q17 8 110 71q31 -43 130 -159q-29 -15 -90 -55z" />
    <glyph glyph-name="Eacute" unicode="&#xc9;" horiz-adv-x="661" 
d="M361 743l-90 55q44 52 76 91.5t42 52.5l10 14l112 -70q-53 -49 -90.5 -85t-48.5 -47zM62 5q-1 284 -8 687q231 6 570 10q0 -51 2 -152q-130 -1 -371 -7q-1 -52 1 -139q196 0 305 1q-2 -37 1 -137l-303 1l3 -115q131 -3 370 -5q-1 -56 -1 -156q-267 9 -569 12z" />
    <glyph glyph-name="Ecircumflex" unicode="&#xca;" horiz-adv-x="661" 
d="M215 744q-21 25 -65 73q56 40 137 109q37 -1 114 2q45 -41 137 -111q-18 -17 -64 -72q-47 36 -131 94q-41 -24 -128 -95zM62 5q-1 284 -8 687q231 6 570 10q0 -51 2 -152q-130 -1 -371 -7q-1 -52 1 -139q196 0 305 1q-2 -37 1 -137l-303 1l3 -115q131 -3 370 -5
q-1 -56 -1 -156q-267 9 -569 12z" />
    <glyph glyph-name="Edieresis" unicode="&#xcb;" horiz-adv-x="661" 
d="M235 765q-42 0 -64 21.5t-22 54.5q0 30 25 49.5t62 19.5q38 0 61.5 -19.5t23.5 -52.5q0 -37 -24.5 -55t-61.5 -18zM458 767q-37 0 -59.5 20.5t-22.5 54.5q0 30 22.5 49.5t61.5 19.5q40 0 60.5 -20t20.5 -52q0 -35 -24 -53.5t-59 -18.5zM62 5q-1 284 -8 687q231 6 570 10
q0 -51 2 -152q-130 -1 -371 -7q-1 -52 1 -139q196 0 305 1q-2 -37 1 -137l-303 1l3 -115q131 -3 370 -5q-1 -56 -1 -156q-267 9 -569 12z" />
    <glyph glyph-name="Igrave" unicode="&#xcc;" horiz-adv-x="332" 
d="M66 -1q0 307 -4 695q73 0 203 1q2 -334 5 -695q-97 1 -204 -1zM158 738q-30 32 -150 143q17 8 110 71q31 -43 130 -159q-29 -15 -90 -55z" />
    <glyph glyph-name="Iacute" unicode="&#xcd;" horiz-adv-x="332" 
d="M66 -1q0 307 -4 695q73 0 203 1q2 -334 5 -695q-97 1 -204 -1zM185 738l-90 55q44 52 76 91.5t42 53.5l10 13l112 -70q-53 -49 -90.5 -85t-48.5 -47z" />
    <glyph glyph-name="Icircumflex" unicode="&#xce;" horiz-adv-x="332" 
d="M66 -1q0 307 -4 695q73 0 203 1q2 -334 5 -695q-97 1 -204 -1zM38 739q-21 25 -65 73q56 40 137 109q37 -1 114 2q45 -41 137 -111q-18 -17 -64 -72q-47 36 -131 94q-41 -24 -128 -95z" />
    <glyph glyph-name="Idieresis" unicode="&#xcf;" horiz-adv-x="332" 
d="M66 -1q0 307 -4 695q73 0 203 1q2 -334 5 -695q-97 1 -204 -1zM57 760q-42 0 -64 21.5t-22 54.5q0 30 25 49.5t62 19.5q38 0 61.5 -19.5t23.5 -52.5q0 -37 -24.5 -55t-61.5 -18zM280 762q-37 0 -59.5 20.5t-22.5 54.5q0 30 22.5 49.5t61.5 19.5q40 0 60.5 -20t20.5 -52
q0 -35 -24 -53.5t-59 -18.5z" />
    <glyph glyph-name="Eth" unicode="&#xd0;" horiz-adv-x="828" 
d="M87 -4l2 269q-26 0 -86 -2q1 7 1.5 19t1.5 53.5t-1 84.5q30 -3 84 -5l-1 266q136 21 232 21q232 0 354.5 -90t122.5 -264q0 -185 -127.5 -274t-386.5 -89q-86 0 -196 11zM293 141q32 -2 46 -2q242 0 242 210q0 96 -60.5 148.5t-174.5 52.5q-28 0 -59 -3l1 -137h102
q-2 -53 1 -139q-36 -1 -101 -2z" />
    <glyph glyph-name="Ntilde" unicode="&#xd1;" horiz-adv-x="760" 
d="M57 19q2 248 -3 654q96 4 195 7q105 -174 258 -412q0 183 -10 447q100 -1 198 -1q0 -280 11 -722q-96 -8 -202 -12q-104 171 -258 415q0 -179 6 -378zM283 765q-37 2 -99 -2q-5 73 24 121.5t90 48.5q38 0 86.5 -28.5t66.5 -28.5q27 0 21 54q35 1 96 6q14 -77 -12 -123.5
t-84 -46.5q-43 0 -94 27t-65 27q-34 0 -30 -55z" />
    <glyph glyph-name="Ograve" unicode="&#xd2;" horiz-adv-x="835" 
d="M418 -21q-174 0 -280 96t-107 265q-3 174 103.5 273.5t283.5 99.5q178 0 282.5 -98.5t103.5 -273.5q0 -171 -108 -267t-278 -95zM417 140q75 0 122 53t47 148q0 96 -45 153t-124 57q-78 0 -123.5 -56.5t-45.5 -154.5q0 -86 45.5 -143t123.5 -57zM408 741q-30 32 -150 143
q17 8 110 71q31 -43 130 -159q-29 -15 -90 -55z" />
    <glyph glyph-name="Oacute" unicode="&#xd3;" horiz-adv-x="835" 
d="M435 741l-90 55q44 52 76 91.5t42 52.5l10 14l112 -70q-53 -49 -90.5 -85t-48.5 -47zM418 -21q-174 0 -280 96t-107 265q-3 174 103.5 273.5t283.5 99.5q178 0 282.5 -98.5t103.5 -273.5q0 -171 -108 -267t-278 -95zM417 140q75 0 122 53t47 148q0 96 -45 153t-124 57
q-78 0 -123.5 -56.5t-45.5 -154.5q0 -86 45.5 -143t123.5 -57z" />
    <glyph glyph-name="Ocircumflex" unicode="&#xd4;" horiz-adv-x="835" 
d="M287 740q-21 25 -65 73q56 40 137 109q37 -1 114 2q45 -41 137 -111q-18 -17 -64 -72q-47 36 -131 94q-41 -24 -128 -95zM418 -21q-174 0 -280 96t-107 265q-3 174 103.5 273.5t283.5 99.5q178 0 282.5 -98.5t103.5 -273.5q0 -171 -108 -267t-278 -95zM417 140
q75 0 122 53t47 148q0 96 -45 153t-124 57q-78 0 -123.5 -56.5t-45.5 -154.5q0 -86 45.5 -143t123.5 -57z" />
    <glyph glyph-name="Otilde" unicode="&#xd5;" horiz-adv-x="835" 
d="M418 -21q-174 0 -280 96t-107 265q-3 174 103.5 273.5t283.5 99.5q178 0 282.5 -98.5t103.5 -273.5q0 -171 -108 -267t-278 -95zM417 140q75 0 122 53t47 148q0 96 -45 153t-124 57q-78 0 -123.5 -56.5t-45.5 -154.5q0 -86 45.5 -143t123.5 -57zM321 756q-37 2 -99 -2
q-5 73 24 121.5t90 48.5q38 0 86.5 -28.5t66.5 -28.5q27 0 21 54q35 1 96 6q14 -77 -12 -123.5t-84 -46.5q-43 0 -94 27t-65 27q-34 0 -30 -55z" />
    <glyph glyph-name="Odieresis" unicode="&#xd6;" horiz-adv-x="835" 
d="M306 763q-42 0 -64 21.5t-22 54.5q0 30 25 49.5t62 19.5q38 0 61.5 -19.5t23.5 -52.5q0 -37 -24.5 -55t-61.5 -18zM529 765q-37 0 -59.5 20.5t-22.5 54.5q0 30 22.5 49.5t61.5 19.5q40 0 60.5 -20t20.5 -52q0 -35 -24 -53.5t-59 -18.5zM418 -21q-174 0 -280 96t-107 265
q-3 174 103.5 273.5t283.5 99.5q178 0 282.5 -98.5t103.5 -273.5q0 -171 -108 -267t-278 -95zM417 140q75 0 122 53t47 148q0 96 -45 153t-124 57q-78 0 -123.5 -56.5t-45.5 -154.5q0 -86 45.5 -143t123.5 -57z" />
    <glyph glyph-name="multiply" unicode="&#xd7;" horiz-adv-x="540" 
d="M127 85q-37 39 -103 100q65 64 146 146l-148 148q25 24 50 49.5t38 39.5l13 13q75 -79 146 -151q67 68 145 150q47 -51 102 -103q-65 -65 -148 -147l151 -150q-29 -27 -54.5 -52t-36.5 -36l-11 -12q-86 88 -148 150q-16 -16 -142 -145z" />
    <glyph glyph-name="Oslash" unicode="&#xd8;" horiz-adv-x="839" 
d="M239 -143q-67 43 -165 95q38 39 91 101q-134 103 -134 290q0 168 106 267t283 99q66 0 125 -14q17 35 53 123q71 -39 177 -90q-33 -39 -83 -104q116 -96 116 -279q0 -167 -104 -267.5t-287 -100.5q-55 0 -107 11q-13 -21 -71 -131zM418 140q78 0 124 55t46 155
q0 87 -43.5 143t-124.5 56q-83 0 -126.5 -55.5t-43.5 -147.5t45.5 -149t122.5 -57z" />
    <glyph glyph-name="Ugrave" unicode="&#xd9;" horiz-adv-x="751" 
d="M377 -14q-171 0 -257 107t-86 314q0 126 31 276q65 -9 200 -24q-26 -135 -26 -233q0 -132 33 -196t102 -64q136 0 136 237q0 119 -28 305q64 2 203 9q32 -186 32 -304q0 -427 -340 -427zM368 727q-30 32 -150 143q17 8 110 71q31 -43 130 -159q-29 -15 -90 -55z" />
    <glyph glyph-name="Uacute" unicode="&#xda;" horiz-adv-x="751" 
d="M393 734l-90 55q44 52 76 91.5t42 53.5l10 13l112 -70q-53 -49 -90.5 -85t-48.5 -47zM377 -14q-171 0 -257 107t-86 314q0 126 31 276q65 -9 200 -24q-26 -135 -26 -233q0 -132 33 -196t102 -64q136 0 136 237q0 119 -28 305q64 2 203 9q32 -186 32 -304
q0 -427 -340 -427z" />
    <glyph glyph-name="Ucircumflex" unicode="&#xdb;" horiz-adv-x="751" 
d="M246 739q-21 25 -65 73q56 40 137 109q37 -1 114 2q45 -41 137 -111q-18 -17 -64 -72q-47 36 -131 94q-41 -24 -128 -95zM377 -14q-171 0 -257 107t-86 314q0 126 31 276q65 -9 200 -24q-26 -135 -26 -233q0 -132 33 -196t102 -64q136 0 136 237q0 119 -28 305
q64 2 203 9q32 -186 32 -304q0 -427 -340 -427z" />
    <glyph glyph-name="Udieresis" unicode="&#xdc;" horiz-adv-x="751" 
d="M265 757q-42 0 -64 21.5t-22 54.5q0 30 25 49.5t62 19.5q38 0 61.5 -19.5t23.5 -52.5q0 -37 -24.5 -55t-61.5 -18zM488 759q-37 0 -59.5 20.5t-22.5 54.5q0 30 22.5 49.5t61.5 19.5q40 0 60.5 -20t20.5 -52q0 -35 -24 -53.5t-59 -18.5zM377 -14q-171 0 -257 107t-86 314
q0 126 31 276q65 -9 200 -24q-26 -135 -26 -233q0 -132 33 -196t102 -64q136 0 136 237q0 119 -28 305q64 2 203 9q32 -186 32 -304q0 -427 -340 -427z" />
    <glyph glyph-name="Yacute" unicode="&#xdd;" horiz-adv-x="746" 
d="M267 -10q0 10 -2.5 65.5t-4.5 98.5q-86 181 -257 518q68 2 226 9q29 -80 135 -325q53 103 156 355q64 -3 223 -4q-110 -214 -276 -552q-2 -28 2 -164zM384 724l-90 55q44 52 76 91.5t42 53.5l10 13l112 -70q-53 -49 -90.5 -85t-48.5 -47z" />
    <glyph glyph-name="Thorn" unicode="&#xde;" horiz-adv-x="735" 
d="M54 -4q1 32 1.5 89.5t2 245.5t-1.5 368q82 -5 199 -5q-1 -31 -1 -83q65 6 119 6q178 0 264.5 -67.5t86.5 -190.5q0 -134 -101.5 -204.5t-284.5 -70.5q-38 0 -80 3l3 -90q-84 4 -207 -1zM254 469q0 -153 2 -248q42 -5 71 -5q92 0 142.5 34t50.5 97q0 126 -190 126
q-39 0 -76 -4z" />
    <glyph glyph-name="germandbls" unicode="&#xdf;" horiz-adv-x="730" 
d="M53 12q-19 228 6 424q18 138 99.5 207.5t242.5 69.5q140 0 221 -59t81 -152q0 -64 -42.5 -107.5t-109.5 -59.5q75 -16 114.5 -60.5t39.5 -104.5q0 -196 -283 -196q-50 0 -105 6q1 44 5 122q75 -7 121 12.5t46 71.5q0 43 -43 69t-124 23q2 37 0 112q81 -5 126.5 20.5
t45.5 74.5q0 41 -27.5 65t-78.5 24q-110 0 -129 -143q-20 -195 -3 -424q-48 0 -99 1t-77 2z" />
    <glyph glyph-name="agrave" unicode="&#xe0;" horiz-adv-x="671" 
d="M247 -22q-105 0 -165.5 45t-60.5 120q0 78 68.5 123t212.5 45q58 0 120 -7q0 7 -1 12q-9 87 -93 87t-100 -71q-68 7 -185 11q13 87 92.5 138t192.5 51q155 0 226.5 -63.5t75.5 -194.5q2 -64 2 -137t-1 -114l-1 -41q-74 1 -173 -1q2 25 4 79q-34 -40 -91.5 -61t-122.5 -21
zM309 92q50 0 83 28.5t36 92.5q-48 6 -84 6q-119 0 -119 -65q0 -30 23 -46t61 -16zM334 563q-30 32 -150 143q17 8 110 71q31 -43 130 -159q-29 -15 -90 -55z" />
    <glyph glyph-name="aacute" unicode="&#xe1;" horiz-adv-x="671" 
d="M247 -22q-105 0 -165.5 45t-60.5 120q0 78 68.5 123t212.5 45q58 0 120 -7q0 7 -1 12q-9 87 -93 87t-100 -71q-68 7 -185 11q13 87 92.5 138t192.5 51q155 0 226.5 -63.5t75.5 -194.5q2 -64 2 -137t-1 -114l-1 -41q-74 1 -173 -1q2 25 4 79q-34 -40 -91.5 -61t-122.5 -21
zM309 92q50 0 83 28.5t36 92.5q-48 6 -84 6q-119 0 -119 -65q0 -30 23 -46t61 -16zM359 563l-90 55q44 52 76 91.5t42 52.5l10 14l112 -70q-53 -49 -90.5 -85t-48.5 -47z" />
    <glyph glyph-name="acircumflex" unicode="&#xe2;" horiz-adv-x="671" 
d="M247 -22q-105 0 -165.5 45t-60.5 120q0 78 68.5 123t212.5 45q58 0 120 -7q0 7 -1 12q-9 87 -93 87t-100 -71q-68 7 -185 11q13 87 92.5 138t192.5 51q155 0 226.5 -63.5t75.5 -194.5q2 -64 2 -137t-1 -114l-1 -41q-74 1 -173 -1q2 25 4 79q-34 -40 -91.5 -61t-122.5 -21
zM309 92q50 0 83 28.5t36 92.5q-48 6 -84 6q-119 0 -119 -65q0 -30 23 -46t61 -16zM213 564q-21 25 -65 73q56 40 137 109q37 -1 114 2q45 -41 137 -111q-18 -17 -64 -72q-47 36 -131 94q-41 -24 -128 -95z" />
    <glyph glyph-name="atilde" unicode="&#xe3;" horiz-adv-x="671" 
d="M247 -22q-105 0 -165.5 45t-60.5 120q0 78 68.5 123t212.5 45q58 0 120 -7q0 7 -1 12q-9 87 -93 87t-100 -71q-68 7 -185 11q13 87 92.5 138t192.5 51q155 0 226.5 -63.5t75.5 -194.5q2 -64 2 -137t-1 -114l-1 -41q-74 1 -173 -1q2 25 4 79q-34 -40 -91.5 -61t-122.5 -21
zM309 92q50 0 83 28.5t36 92.5q-48 6 -84 6q-119 0 -119 -65q0 -30 23 -46t61 -16zM247 578q-37 2 -99 -2q-5 73 24 121.5t90 48.5q38 0 86.5 -28.5t66.5 -28.5q27 0 21 54q35 1 96 6q14 -77 -12 -123.5t-84 -46.5q-43 0 -94 27t-65 27q-34 0 -30 -55z" />
    <glyph glyph-name="adieresis" unicode="&#xe4;" horiz-adv-x="671" 
d="M247 -22q-105 0 -165.5 45t-60.5 120q0 78 68.5 123t212.5 45q58 0 120 -7q0 7 -1 12q-9 87 -93 87t-100 -71q-68 7 -185 11q13 87 92.5 138t192.5 51q155 0 226.5 -63.5t75.5 -194.5q2 -64 2 -137t-1 -114l-1 -41q-74 1 -173 -1q2 25 4 79q-34 -40 -91.5 -61t-122.5 -21
zM309 92q50 0 83 28.5t36 92.5q-48 6 -84 6q-119 0 -119 -65q0 -30 23 -46t61 -16zM233 583q-42 0 -64 21.5t-22 54.5q0 30 25 49.5t62 19.5q38 0 61.5 -19.5t23.5 -52.5q0 -37 -24.5 -55t-61.5 -18zM456 585q-37 0 -59.5 20.5t-22.5 54.5q0 30 22.5 49.5t61.5 19.5
q40 0 60.5 -20t20.5 -52q0 -35 -24 -53.5t-59 -18.5z" />
    <glyph glyph-name="aring" unicode="&#xe5;" horiz-adv-x="671" 
d="M247 -22q-105 0 -165.5 45t-60.5 120q0 78 68.5 123t212.5 45q58 0 120 -7q0 7 -1 12q-9 87 -93 87t-100 -71q-68 7 -185 11q13 87 92.5 138t192.5 51q155 0 226.5 -63.5t75.5 -194.5q2 -64 2 -137t-1 -114l-1 -41q-74 1 -173 -1q2 25 4 79q-34 -40 -91.5 -61t-122.5 -21
zM309 92q50 0 83 28.5t36 92.5q-48 6 -84 6q-119 0 -119 -65q0 -30 23 -46t61 -16zM322 570q-64 0 -99.5 30t-35.5 76q0 50 38 77.5t98 27.5q66 0 102 -30t36 -75q0 -53 -39 -79.5t-100 -26.5zM326 628q25 0 40.5 13.5t15.5 34.5q0 20 -14 35t-42 15q-27 0 -42.5 -13
t-15.5 -35t14.5 -36t43.5 -14z" />
    <glyph glyph-name="ae" unicode="&#xe6;" horiz-adv-x="1139" 
d="M792 -26q-89 0 -166 29.5t-112 79.5q-67 -108 -247 -108q-117 0 -181.5 40.5t-64.5 113.5q0 174 341 174q38 0 59 -1v13q-2 40 -25 63.5t-68 23.5q-43 0 -68.5 -19.5t-31.5 -51.5q-60 8 -185 11q15 88 91.5 139.5t193.5 51.5q150 0 223 -87q79 82 241 82q160 0 243 -87
t76 -233q-129 2 -444 -5q20 -102 119 -102q85 0 110 59q99 -8 211 -10q-41 -84 -122 -130t-193 -46zM308 91q53 0 85 30t35 89q-117 3 -160 -14.5t-43 -51.5q0 -25 22 -39t61 -14zM788 399q-105 0 -123 -102q121 2 240 7q-2 41 -33 68t-84 27z" />
    <glyph glyph-name="ccedilla" unicode="&#xe7;" horiz-adv-x="681" 
d="M664 199q-21 -98 -94.5 -154t-179.5 -64v-44q64 0 97 -22t33 -59q0 -43 -46 -68.5t-132 -25.5q-63 0 -119 25q7 28 13 65q46 -23 88 -23q57 0 57 31q0 37 -91 28q8 38 17 93q-135 12 -205.5 84.5t-69.5 190.5q0 121 81 195.5t229 74.5q133 0 219 -59.5t97 -161.5l-213 -9
q-5 40 -32 66t-69 26q-52 0 -82 -38.5t-30 -94.5q0 -59 30 -96t84 -37q37 0 64.5 22.5t34.5 65.5q74 -6 219 -11z" />
    <glyph glyph-name="egrave" unicode="&#xe8;" horiz-adv-x="714" 
d="M368 -23q-172 0 -254.5 75t-81.5 204q0 125 89.5 198t233.5 73q179 -1 258 -85.5t74 -240.5q-139 -1 -443 -7q21 -92 119 -92q80 0 108 58q52 -5 211 -9q-83 -174 -314 -174zM364 399q-54 0 -85.5 -28.5t-38.5 -82.5q11 0 92 3t149 6q-3 50 -33 76t-84 26zM352 558
q-30 32 -150 143q17 8 110 71q31 -43 130 -159q-29 -15 -90 -55z" />
    <glyph glyph-name="eacute" unicode="&#xe9;" horiz-adv-x="714" 
d="M376 558l-90 55q44 52 76 91.5t42 53.5l10 13l112 -70q-53 -49 -90.5 -85t-48.5 -47zM368 -23q-172 0 -254.5 75t-81.5 204q0 125 89.5 198t233.5 73q179 -1 258 -85.5t74 -240.5q-139 -1 -443 -7q21 -92 119 -92q80 0 108 58q52 -5 211 -9q-83 -174 -314 -174zM364 399
q-54 0 -85.5 -28.5t-38.5 -82.5q11 0 92 3t149 6q-3 50 -33 76t-84 26z" />
    <glyph glyph-name="ecircumflex" unicode="&#xea;" horiz-adv-x="714" 
d="M230 555q-21 25 -65 73q56 40 137 109q37 -1 114 2q45 -41 137 -111q-18 -17 -64 -72q-47 36 -131 94q-41 -24 -128 -95zM368 -23q-172 0 -254.5 75t-81.5 204q0 125 89.5 198t233.5 73q179 -1 258 -85.5t74 -240.5q-139 -1 -443 -7q21 -92 119 -92q80 0 108 58
q52 -5 211 -9q-83 -174 -314 -174zM364 399q-54 0 -85.5 -28.5t-38.5 -82.5q11 0 92 3t149 6q-3 50 -33 76t-84 26z" />
    <glyph glyph-name="edieresis" unicode="&#xeb;" horiz-adv-x="714" 
d="M250 577q-42 0 -64 21.5t-22 54.5q0 30 25 49.5t62 19.5q38 0 61.5 -19.5t23.5 -52.5q0 -37 -24.5 -55t-61.5 -18zM473 579q-37 0 -59.5 20.5t-22.5 54.5q0 30 22.5 49.5t61.5 19.5q40 0 60.5 -20t20.5 -52q0 -35 -24 -53.5t-59 -18.5zM368 -23q-172 0 -254.5 75
t-81.5 204q0 125 89.5 198t233.5 73q179 -1 258 -85.5t74 -240.5q-139 -1 -443 -7q21 -92 119 -92q80 0 108 58q52 -5 211 -9q-83 -174 -314 -174zM364 399q-54 0 -85.5 -28.5t-38.5 -82.5q11 0 92 3t149 6q-3 50 -33 76t-84 26z" />
    <glyph glyph-name="igrave" unicode="&#xec;" horiz-adv-x="314" 
d="M58 1q2 131 -2 497q79 0 200 1q0 -293 3 -497q-87 1 -201 -1zM149 553q-30 32 -150 143q17 8 110 71q31 -43 130 -159q-29 -15 -90 -55z" />
    <glyph glyph-name="iacute" unicode="&#xed;" horiz-adv-x="314" 
d="M176 553l-90 55q44 52 76 91.5t42 52.5l10 14l112 -70q-53 -49 -90.5 -85t-48.5 -47zM58 1q2 131 -2 497q79 0 200 1q0 -293 3 -497q-87 1 -201 -1z" />
    <glyph glyph-name="icircumflex" unicode="&#xee;" horiz-adv-x="314" 
d="M29 554q-21 25 -65 73q56 40 137 109q37 -1 114 2q45 -41 137 -111q-18 -17 -64 -72q-47 36 -131 94q-41 -24 -128 -95zM58 1q2 131 -2 497q79 0 200 1q0 -293 3 -497q-87 1 -201 -1z" />
    <glyph glyph-name="idieresis" unicode="&#xef;" horiz-adv-x="314" 
d="M48 575q-42 0 -64 21.5t-22 54.5q0 30 25 49.5t62 19.5q38 0 61.5 -19.5t23.5 -52.5q0 -37 -24.5 -55t-61.5 -18zM271 577q-37 0 -59.5 20.5t-22.5 54.5q0 30 22.5 49.5t61.5 19.5q40 0 60.5 -20t20.5 -52q0 -35 -24 -53.5t-59 -18.5zM58 1q2 131 -2 497q79 0 200 1
q0 -293 3 -497q-87 1 -201 -1z" />
    <glyph glyph-name="eth" unicode="&#xf0;" horiz-adv-x="718" 
d="M361 -24q-156 0 -242.5 77t-86.5 212q0 116 74.5 189.5t195.5 73.5q57 0 105 -25.5t75 -65.5q-33 124 -151 185l113 102q49 -25 91 -61q14 13 54 55q45 -61 106 -134q-25 -16 -62 -43q58 -105 58 -234q0 -158 -89 -244.5t-241 -86.5zM369 106q56 0 88.5 41t32.5 108
q0 60 -34 103.5t-89 43.5q-59 0 -95 -41.5t-36 -107.5q0 -65 34.5 -106t98.5 -41z" />
    <glyph glyph-name="ntilde" unicode="&#xf1;" horiz-adv-x="681" 
d="M442 -20q1 14 1.5 38t1.5 98.5t-1 134.5q-2 111 -81 111q-51 0 -82 -41.5t-33 -107.5q-2 -30 -2 -79t1 -83l1 -34q-126 2 -203 0l1 474q96 -2 159 1q-2 -41 -2 -88q30 58 88.5 91.5t138.5 32.5q99 -1 152.5 -58.5t57.5 -161.5q2 -44 2.5 -125.5t-0.5 -141.5v-60zM253 573
q-37 2 -99 -2q-5 73 24 121.5t90 48.5q38 0 86.5 -28.5t66.5 -28.5q27 0 21 54q35 1 96 6q14 -77 -12 -123.5t-84 -46.5q-43 0 -94 27t-65 27q-34 0 -30 -55z" />
    <glyph glyph-name="ograve" unicode="&#xf2;" 
d="M361 -17q-148 0 -238.5 71t-90.5 209q-1 124 91 193.5t235 69.5q150 0 242.5 -71.5t91.5 -197.5q0 -92 -47.5 -155.5t-120 -91t-163.5 -27.5zM363 118q53 0 88 36.5t35 105.5q0 58 -31.5 96t-90.5 38q-56 0 -91 -34.5t-35 -95.5q0 -67 32.5 -106.5t92.5 -39.5zM353 558
q-30 32 -150 143q17 8 110 71q31 -43 130 -159q-29 -15 -90 -55z" />
    <glyph glyph-name="oacute" unicode="&#xf3;" 
d="M378 558l-90 55q44 52 76 91.5t42 53.5l10 13l112 -70q-53 -49 -90.5 -85t-48.5 -47zM361 -17q-148 0 -238.5 71t-90.5 209q-1 124 91 193.5t235 69.5q150 0 242.5 -71.5t91.5 -197.5q0 -92 -47.5 -155.5t-120 -91t-163.5 -27.5zM363 118q53 0 88 36.5t35 105.5
q0 58 -31.5 96t-90.5 38q-56 0 -91 -34.5t-35 -95.5q0 -67 32.5 -106.5t92.5 -39.5z" />
    <glyph glyph-name="ocircumflex" unicode="&#xf4;" 
d="M233 556q-21 25 -65 73q56 40 137 109q37 -1 114 2q45 -41 137 -111q-18 -17 -64 -72q-47 36 -131 94q-41 -24 -128 -95zM361 -17q-148 0 -238.5 71t-90.5 209q-1 124 91 193.5t235 69.5q150 0 242.5 -71.5t91.5 -197.5q0 -92 -47.5 -155.5t-120 -91t-163.5 -27.5z
M363 118q53 0 88 36.5t35 105.5q0 58 -31.5 96t-90.5 38q-56 0 -91 -34.5t-35 -95.5q0 -67 32.5 -106.5t92.5 -39.5z" />
    <glyph glyph-name="otilde" unicode="&#xf5;" 
d="M361 -17q-148 0 -238.5 71t-90.5 209q-1 124 91 193.5t235 69.5q150 0 242.5 -71.5t91.5 -197.5q0 -92 -47.5 -155.5t-120 -91t-163.5 -27.5zM363 118q53 0 88 36.5t35 105.5q0 58 -31.5 96t-90.5 38q-56 0 -91 -34.5t-35 -95.5q0 -67 32.5 -106.5t92.5 -39.5zM266 570
q-37 2 -99 -2q-5 73 24 121.5t90 48.5q38 0 86.5 -28.5t66.5 -28.5q27 0 21 54q35 1 96 6q14 -77 -12 -123.5t-84 -46.5q-43 0 -94 27t-65 27q-34 0 -30 -55z" />
    <glyph glyph-name="odieresis" unicode="&#xf6;" 
d="M252 577q-42 0 -64 21.5t-22 54.5q0 30 25 49.5t62 19.5q38 0 61.5 -19.5t23.5 -52.5q0 -37 -24.5 -55t-61.5 -18zM475 579q-37 0 -59.5 20.5t-22.5 54.5q0 30 22.5 49.5t61.5 19.5q40 0 60.5 -20t20.5 -52q0 -35 -24 -53.5t-59 -18.5zM361 -17q-148 0 -238.5 71
t-90.5 209q-1 124 91 193.5t235 69.5q150 0 242.5 -71.5t91.5 -197.5q0 -92 -47.5 -155.5t-120 -91t-163.5 -27.5zM363 118q53 0 88 36.5t35 105.5q0 58 -31.5 96t-90.5 38q-56 0 -91 -34.5t-35 -95.5q0 -67 32.5 -106.5t92.5 -39.5z" />
    <glyph glyph-name="divide" unicode="&#xf7;" horiz-adv-x="494" 
d="M17 410q98 -2 213 -2.5t182 0.5l66 1l-2 -155q-107 2 -221.5 2t-176.5 -1l-61 -1v156zM244 633q42 0 67.5 -24.5t25.5 -66.5t-25.5 -66.5t-69.5 -24.5q-46 0 -69.5 24t-23.5 67q0 91 95 91zM245 218q43 0 68.5 -24.5t25.5 -71.5q0 -39 -25.5 -62t-69.5 -23q-45 0 -69 23
t-24 62q0 49 26 72.5t68 23.5z" />
    <glyph glyph-name="oslash" unicode="&#xf8;" horiz-adv-x="727" 
d="M362 -15q-24 0 -64 4q-23 -45 -56 -121q-58 33 -157 81q25 32 66 85q-119 72 -119 229q0 113 87.5 189t247.5 76q29 0 57 -3q2 3 9.5 20.5t18.5 42.5t23 53q74 -38 160 -76q-26 -32 -65 -88q60 -36 92.5 -91.5t32.5 -124.5q0 -129 -91 -202.5t-242 -73.5zM364 120
q59 0 90.5 38.5t31.5 102.5q0 58 -32.5 95.5t-89.5 37.5q-61 0 -93.5 -37t-32.5 -95q0 -66 32.5 -104t93.5 -38z" />
    <glyph glyph-name="ugrave" unicode="&#xf9;" horiz-adv-x="682" 
d="M280 2q-130 0 -185.5 79t-55.5 247q0 89 12 176q46 -6 190 -14q-8 -75 -8 -134q0 -106 22 -153t76 -47q40 0 68.5 33.5t31.5 106.5q4 47 4.5 104.5t-0.5 91.5l-1 34q44 -2 198 -2q-3 -212 1 -530l-171 1q2 33 2 84q-64 -77 -184 -77zM328 551q-30 32 -150 143
q17 8 110 71q31 -43 130 -159q-29 -15 -90 -55z" />
    <glyph glyph-name="uacute" unicode="&#xfa;" horiz-adv-x="682" 
d="M352 551l-90 55q44 52 76 91.5t42 52.5l10 14l112 -70q-53 -49 -90.5 -85t-48.5 -47zM280 2q-130 0 -185.5 79t-55.5 247q0 89 12 176q46 -6 190 -14q-8 -75 -8 -134q0 -106 22 -153t76 -47q40 0 68.5 33.5t31.5 106.5q4 47 4.5 104.5t-0.5 91.5l-1 34q44 -2 198 -2
q-3 -212 1 -530l-171 1q2 33 2 84q-64 -77 -184 -77z" />
    <glyph glyph-name="ucircumflex" unicode="&#xfb;" horiz-adv-x="682" 
d="M207 552q-21 25 -65 73q56 40 137 109q37 -1 114 2q45 -41 137 -111q-18 -17 -64 -72q-47 36 -131 94q-41 -24 -128 -95zM280 2q-130 0 -185.5 79t-55.5 247q0 89 12 176q46 -6 190 -14q-8 -75 -8 -134q0 -106 22 -153t76 -47q40 0 68.5 33.5t31.5 106.5q4 47 4.5 104.5
t-0.5 91.5l-1 34q44 -2 198 -2q-3 -212 1 -530l-171 1q2 33 2 84q-64 -77 -184 -77z" />
    <glyph glyph-name="udieresis" unicode="&#xfc;" horiz-adv-x="682" 
d="M226 573q-42 0 -64 21.5t-22 54.5q0 30 25 49.5t62 19.5q38 0 61.5 -19.5t23.5 -52.5q0 -37 -24.5 -55t-61.5 -18zM449 575q-37 0 -59.5 20.5t-22.5 54.5q0 30 22.5 49.5t61.5 19.5q40 0 60.5 -20t20.5 -52q0 -35 -24 -53.5t-59 -18.5zM280 2q-130 0 -185.5 79t-55.5 247
q0 89 12 176q46 -6 190 -14q-8 -75 -8 -134q0 -106 22 -153t76 -47q40 0 68.5 33.5t31.5 106.5q4 47 4.5 104.5t-0.5 91.5l-1 34q44 -2 198 -2q-3 -212 1 -530l-171 1q2 33 2 84q-64 -77 -184 -77z" />
    <glyph glyph-name="yacute" unicode="&#xfd;" horiz-adv-x="639" 
d="M374 -250l-207 32q22 54 38 97t21 59l5 16q-60 144 -117.5 277t-84.5 195l-27 61q64 1 117.5 4t74.5 5l21 3q30 -97 58 -183t41 -124l13 -38q35 108 63.5 203t39.5 135l11 41l196 -9q-91 -260 -156.5 -453.5t-86.5 -256.5zM337 553l-90 55q44 52 76 91.5t42 52.5l10 14
l112 -70q-53 -49 -90.5 -85t-48.5 -47z" />
    <glyph glyph-name="thorn" unicode="&#xfe;" horiz-adv-x="731" 
d="M45 -216v900l207 1q-6 -133 -8 -225q74 68 194 68q122 0 191.5 -80t69.5 -192q1 -122 -74 -198.5t-196 -76.5q-122 0 -186 67l11 -263zM373 100q56 0 88.5 40.5t32.5 116.5q0 59 -32 103t-91 44q-57 0 -92 -41t-35 -109q0 -70 34 -112t95 -42z" />
    <glyph glyph-name="ydieresis" unicode="&#xff;" horiz-adv-x="639" 
d="M374 -250l-207 32q22 54 38 97t21 59l5 16q-60 144 -117.5 277t-84.5 195l-27 61q64 1 117.5 4t74.5 5l21 3q30 -97 58 -183t41 -124l13 -38q35 108 63.5 203t39.5 135l11 41l196 -9q-91 -260 -156.5 -453.5t-86.5 -256.5zM210 575q-42 0 -64 21.5t-22 54.5q0 30 25 49.5
t62 19.5q38 0 61.5 -19.5t23.5 -52.5q0 -37 -24.5 -55t-61.5 -18zM433 577q-37 0 -59.5 20.5t-22.5 54.5q0 30 22.5 49.5t61.5 19.5q40 0 60.5 -20t20.5 -52q0 -35 -24 -53.5t-59 -18.5z" />
    <glyph glyph-name="Amacron" unicode="&#x100;" horiz-adv-x="758" 
d="M3 21q89 288 218 678l312 4q107 -337 222 -724q-128 2 -216 -1l-39 141q-106 2 -263 2q-18 -68 -26 -102zM367 585q-59 -202 -92 -322q40 -1 185 -1q-70 247 -93 323zM207 782q1 30 -1 101q86 -1 332 2l-1 -101q-100 2 -330 -2z" />
    <glyph glyph-name="amacron" unicode="&#x101;" horiz-adv-x="671" 
d="M247 -22q-105 0 -165.5 45t-60.5 120q0 78 68.5 123t212.5 45q58 0 120 -7q0 7 -1 12q-9 87 -93 87t-100 -71q-68 7 -185 11q13 87 92.5 138t192.5 51q155 0 226.5 -63.5t75.5 -194.5q2 -64 2 -137t-1 -114l-1 -41q-74 1 -173 -1q2 25 4 79q-34 -40 -91.5 -61t-122.5 -21
zM309 92q50 0 83 28.5t36 92.5q-48 6 -84 6q-119 0 -119 -65q0 -30 23 -46t61 -16zM178 603q1 30 -1 101q86 -1 332 2l-1 -101q-100 2 -330 -2z" />
    <glyph glyph-name="Abreve" unicode="&#x102;" horiz-adv-x="758" 
d="M3 21q89 288 218 678l312 4q107 -337 222 -724q-128 2 -216 -1l-39 141q-106 2 -263 2q-18 -68 -26 -102zM367 585q-59 -202 -92 -322q40 -1 185 -1q-70 247 -93 323zM370 758q-91 0 -138.5 39t-44.5 107q46 0 117 5q0 -30 17 -47.5t50 -17.5q31 0 48.5 19t13.5 57
q40 -1 120 1q6 -82 -45 -122.5t-138 -40.5z" />
    <glyph glyph-name="abreve" unicode="&#x103;" horiz-adv-x="671" 
d="M247 -22q-105 0 -165.5 45t-60.5 120q0 78 68.5 123t212.5 45q58 0 120 -7q0 7 -1 12q-9 87 -93 87t-100 -71q-68 7 -185 11q13 87 92.5 138t192.5 51q155 0 226.5 -63.5t75.5 -194.5q2 -64 2 -137t-1 -114l-1 -41q-74 1 -173 -1q2 25 4 79q-34 -40 -91.5 -61t-122.5 -21
zM309 92q50 0 83 28.5t36 92.5q-48 6 -84 6q-119 0 -119 -65q0 -30 23 -46t61 -16zM343 582q-91 0 -138.5 39t-44.5 107q46 0 117 5q0 -30 17 -47.5t50 -17.5q31 0 48.5 19t13.5 57q40 -1 120 1q6 -82 -45 -122.5t-138 -40.5z" />
    <glyph glyph-name="Aogonek" unicode="&#x104;" horiz-adv-x="758" 
d="M621 -229q-91 -12 -139.5 14.5t-48.5 76.5q-1 37 26.5 73t75.5 57l-35 127q-106 2 -263 2q-18 -68 -26 -102l-208 2q89 288 218 678l312 4q107 -337 222 -724l-154 1q-54 -35 -54 -72q0 -22 21.5 -34t60.5 -8q-5 -33 -8 -95zM367 585q-59 -202 -92 -322q40 -1 185 -1
q-70 247 -93 323z" />
    <glyph glyph-name="aogonek" unicode="&#x105;" horiz-adv-x="671" 
d="M247 -22q-105 0 -165.5 45t-60.5 120q0 79 68.5 123.5t214.5 44.5q58 0 118 -7q0 7 -1 12q-9 87 -93 87t-100 -71q-68 7 -185 11q13 87 92.5 138t192.5 51q155 0 226.5 -63.5t75.5 -194.5q2 -64 2 -137t-1 -114l-1 -41q-43 1 -102 0q-57 -32 -57 -72q0 -21 22 -33t61 -9
q-6 -33 -9 -95q-91 -12 -139 14.5t-49 76.5q-1 37 25.5 72.5t75.5 56.5q0 13 3 67q-34 -40 -91.5 -61t-122.5 -21zM309 92q50 0 83 28.5t36 92.5q-48 6 -83 6q-120 0 -120 -65q0 -30 23 -46t61 -16z" />
    <glyph glyph-name="Cacute" unicode="&#x106;" horiz-adv-x="806" 
d="M429 746l-90 55q44 52 76 91.5t42 53.5l10 13l112 -70q-53 -49 -90.5 -85t-48.5 -47zM419 -18q-176 0 -282 95t-106 269q0 168 102.5 265.5t279.5 97.5q158 0 251.5 -77t111.5 -201l-222 -12q-9 63 -47.5 96.5t-98.5 33.5q-77 0 -118.5 -55.5t-41.5 -144.5
q0 -90 44 -146.5t122 -56.5q64 0 104 37t50 111l223 -11q-11 -141 -109 -221t-263 -80z" />
    <glyph glyph-name="cacute" unicode="&#x107;" horiz-adv-x="681" 
d="M365 559l-90 55q44 52 76 91.5t42 52.5l10 14l112 -70q-53 -49 -90.5 -85t-48.5 -47zM356 -21q-158 0 -241.5 74t-82.5 203q0 121 81 195.5t229 74.5q133 0 219 -59.5t97 -161.5l-213 -9q-5 40 -32 66t-69 26q-52 0 -82 -38.5t-30 -94.5q0 -59 30 -96t84 -37
q37 0 64.5 22.5t34.5 65.5q74 -6 219 -11q-23 -106 -106 -163t-202 -57z" />
    <glyph glyph-name="Ccircumflex" unicode="&#x108;" horiz-adv-x="806" 
d="M281 741q-21 25 -65 73q56 40 137 109q37 -1 114 2q45 -41 137 -111q-18 -17 -64 -72q-47 36 -131 94q-41 -24 -128 -95zM419 -18q-176 0 -282 95t-106 269q0 168 102.5 265.5t279.5 97.5q158 0 251.5 -77t111.5 -201l-222 -12q-9 63 -47.5 96.5t-98.5 33.5
q-77 0 -118.5 -55.5t-41.5 -144.5q0 -90 44 -146.5t122 -56.5q64 0 104 37t50 111l223 -11q-11 -141 -109 -221t-263 -80z" />
    <glyph glyph-name="ccircumflex" unicode="&#x109;" horiz-adv-x="681" 
d="M219 553q-21 25 -65 73q56 40 137 109q37 -1 114 2q45 -41 137 -111q-18 -17 -64 -72q-47 36 -131 94q-41 -24 -128 -95zM356 -21q-158 0 -241.5 74t-82.5 203q0 121 81 195.5t229 74.5q133 0 219 -59.5t97 -161.5l-213 -9q-5 40 -32 66t-69 26q-52 0 -82 -38.5
t-30 -94.5q0 -59 30 -96t84 -37q37 0 64.5 22.5t34.5 65.5q74 -6 219 -11q-23 -106 -106 -163t-202 -57z" />
    <glyph glyph-name="Ccaron" unicode="&#x10c;" horiz-adv-x="806" 
d="M353 754q-44 41 -137 111q19 17 65 73q46 -37 130 -95q41 24 129 95l64 -73q-55 -39 -136 -108q-37 1 -115 -3zM419 -18q-176 0 -282 95t-106 269q0 168 102.5 265.5t279.5 97.5q158 0 251.5 -77t111.5 -201l-222 -12q-9 63 -47.5 96.5t-98.5 33.5q-77 0 -118.5 -55.5
t-41.5 -144.5q0 -90 44 -146.5t122 -56.5q64 0 104 37t50 111l223 -11q-11 -141 -109 -221t-263 -80z" />
    <glyph glyph-name="ccaron" unicode="&#x10d;" horiz-adv-x="681" 
d="M291 567q-44 41 -137 111q19 17 65 73q46 -37 130 -95q41 24 129 95l64 -73q-55 -39 -136 -108q-37 1 -115 -3zM356 -21q-158 0 -241.5 74t-82.5 203q0 121 81 195.5t229 74.5q133 0 219 -59.5t97 -161.5l-213 -9q-5 40 -32 66t-69 26q-52 0 -82 -38.5t-30 -94.5
q0 -59 30 -96t84 -37q37 0 64.5 22.5t34.5 65.5q74 -6 219 -11q-23 -106 -106 -163t-202 -57z" />
    <glyph glyph-name="Dcaron" unicode="&#x10e;" horiz-adv-x="794" 
d="M296 751q-44 41 -137 111q19 17 65 73q46 -37 130 -95q41 24 129 95l64 -73q-55 -39 -136 -108q-37 1 -115 -3zM259 145q34 -2 49 -2q240 0 240 206q0 94 -57.5 147t-171.5 53q-34 0 -66 -4zM55 -2q2 224 1.5 376.5t-1.5 231.5l-1 78q129 19 238 19q233 0 352.5 -92.5
t119.5 -261.5q0 -180 -126.5 -271.5t-373.5 -91.5q-95 0 -209 12z" />
    <glyph glyph-name="dcaron" unicode="&#x10f;" horiz-adv-x="723" 
d="M865 614q0 -38 -29 -76t-82 -67l-37 42q31 25 45 48q-24 6 -38 23.5t-14 38.5q0 28 22 48t56 20q37 0 57 -21t20 -56zM675 -22l-179 2l5 77q-65 -77 -194 -77q-126 0 -200.5 73.5t-74.5 195.5q0 130 72.5 203t197.5 73q107 0 174 -69l-5 234q40 -1 204 1q-2 -328 0 -713z
M362 102q57 0 92 40t35 110q-3 66 -36.5 108.5t-91.5 42.5q-56 0 -89.5 -42t-33.5 -109q0 -71 34 -110.5t90 -39.5z" />
    <glyph glyph-name="Dcroat" unicode="&#x110;" horiz-adv-x="828" 
d="M87 -4l2 269q-26 0 -86 -2q1 7 1.5 19t1.5 53.5t-1 84.5q30 -3 84 -5l-1 266q136 21 232 21q232 0 354.5 -90t122.5 -264q0 -185 -127.5 -274t-386.5 -89q-86 0 -196 11zM293 141q32 -2 46 -2q242 0 242 210q0 96 -60.5 148.5t-174.5 52.5q-28 0 -59 -3l1 -137h102
q-2 -53 1 -139q-36 -1 -101 -2z" />
    <glyph glyph-name="dcroat" unicode="&#x111;" horiz-adv-x="766" 
d="M772 488l-98 4q-2 -289 0 -514q-65 2 -177 2q2 30 4 80q-65 -79 -200 -79q-123 0 -196 74t-73 202q0 112 69 191.5t191 79.5q115 0 184 -71q-1 18 -2 60.5t-2.5 86.5t-3.5 88q28 -2 208 1q-1 -24 -1 -66l101 4zM362 102q59 0 93 41.5t34 113.5q0 62 -34 104t-93 42
q-54 0 -88.5 -40t-34.5 -114q0 -67 33 -107t90 -40z" />
    <glyph glyph-name="Emacron" unicode="&#x112;" horiz-adv-x="661" 
d="M62 5q-1 284 -8 687q231 6 570 10q0 -51 2 -152q-130 -1 -371 -7q-1 -52 1 -139q196 0 305 1q-2 -37 1 -137l-303 1l3 -115q131 -3 370 -5q-1 -56 -1 -156q-267 9 -569 12zM180 786q1 30 -1 101q86 -1 332 2l-1 -101q-100 2 -330 -2z" />
    <glyph glyph-name="emacron" unicode="&#x113;" horiz-adv-x="714" 
d="M368 -23q-172 0 -254.5 75t-81.5 204q0 125 89.5 198t233.5 73q179 -1 258 -85.5t74 -240.5q-139 -1 -443 -7q21 -92 119 -92q80 0 108 58q52 -5 211 -9q-83 -174 -314 -174zM364 399q-54 0 -85.5 -28.5t-38.5 -82.5q11 0 92 3t149 6q-3 50 -33 76t-84 26zM195 598
q1 30 -1 101q86 -1 332 2l-1 -101q-100 2 -330 -2z" />
    <glyph glyph-name="Edotaccent" unicode="&#x116;" horiz-adv-x="661" 
d="M62 5q-1 284 -8 687q231 6 570 10q0 -51 2 -152q-130 -1 -371 -7q-1 -52 1 -139q196 0 305 1q-2 -37 1 -137l-303 1l3 -115q131 -3 370 -5q-1 -56 -1 -156q-267 9 -569 12zM345 762q-48 0 -74 26t-26 65q0 36 27 59.5t73 23.5q48 0 74 -25.5t26 -60.5q0 -41 -27.5 -64.5
t-72.5 -23.5z" />
    <glyph glyph-name="edotaccent" unicode="&#x117;" horiz-adv-x="714" 
d="M368 -23q-172 0 -254.5 75t-81.5 204q0 125 89.5 198t233.5 73q179 -1 258 -85.5t74 -240.5q-139 -1 -443 -7q21 -92 119 -92q80 0 108 58q52 -5 211 -9q-83 -174 -314 -174zM364 399q-54 0 -85.5 -28.5t-38.5 -82.5q11 0 92 3t149 6q-3 50 -33 76t-84 26zM360 575
q-48 0 -74 26t-26 65q0 36 27 59.5t73 23.5q48 0 74 -25.5t26 -60.5q0 -41 -27.5 -64.5t-72.5 -23.5z" />
    <glyph glyph-name="Eogonek" unicode="&#x118;" horiz-adv-x="661" 
d="M626 -224q-90 -12 -138.5 14.5t-49.5 75.5q-1 36 26 73.5t76 59.5l-478 6q-1 284 -8 687q231 6 570 10q0 -51 2 -152q-129 -1 -371 -7q0 -52 1 -140q126 0 305 2q-2 -38 1 -137q-107 1 -303 1l3 -115q131 -3 370 -5l-1 -152q-38 -18 -58.5 -40.5t-20.5 -43.5
q0 -22 21.5 -34t60.5 -8q-5 -34 -8 -95z" />
    <glyph glyph-name="eogonek" unicode="&#x119;" horiz-adv-x="714" 
d="M450 -215q-91 -12 -139.5 14.5t-48.5 76.5q-2 58 57 103q-147 11 -217.5 84.5t-69.5 192.5q0 125 89.5 198t233.5 73q179 -1 258 -85.5t74 -240.5q-139 -1 -443 -7q21 -92 119 -92q80 0 108 58q52 -5 211 -9q-74 -157 -272 -172q-34 -30 -34 -57q0 -22 21.5 -34t60.5 -8
q-5 -33 -8 -95zM364 399q-54 0 -85.5 -28.5t-38.5 -82.5q11 0 92 3t149 6q-3 50 -33 76t-84 26z" />
    <glyph glyph-name="Ecaron" unicode="&#x11a;" horiz-adv-x="661" 
d="M287 746q-44 41 -137 111q19 17 65 73q46 -37 130 -95q41 24 129 95l64 -73q-55 -39 -136 -108q-37 1 -115 -3zM62 5q-1 284 -8 687q231 6 570 10q0 -51 2 -152q-130 -1 -371 -7q-1 -52 1 -139q196 0 305 1q-2 -37 1 -137l-303 1l3 -115q131 -3 370 -5q-1 -56 -1 -156
q-267 9 -569 12z" />
    <glyph glyph-name="ecaron" unicode="&#x11b;" horiz-adv-x="714" 
d="M302 566q-44 41 -137 111q19 17 65 73q46 -37 130 -95q41 24 129 95l64 -73q-55 -39 -136 -108q-37 1 -115 -3zM368 -23q-172 0 -254.5 75t-81.5 204q0 125 89.5 198t233.5 73q179 -1 258 -85.5t74 -240.5q-139 -1 -443 -7q21 -92 119 -92q80 0 108 58q52 -5 211 -9
q-83 -174 -314 -174zM364 399q-54 0 -85.5 -28.5t-38.5 -82.5q11 0 92 3t149 6q-3 50 -33 76t-84 26z" />
    <glyph glyph-name="Gcircumflex" unicode="&#x11c;" horiz-adv-x="821" 
d="M287 741q-21 25 -65 73q56 40 137 109q37 -1 114 2q45 -41 137 -111q-18 -17 -64 -72q-47 36 -131 94q-41 -24 -128 -95zM421 -28q-174 0 -282 101.5t-108 273.5q0 164 103.5 266t283.5 102q147 0 242.5 -67.5t116.5 -192.5q-97 -6 -214 -14q-13 54 -51.5 85.5
t-98.5 31.5q-80 0 -125.5 -57.5t-45.5 -149.5q0 -98 50 -157t145 -59q56 0 98 27t58 75l-208 -4q2 44 0 141q147 -3 417 -3q4 -189 -100 -294t-281 -105z" />
    <glyph glyph-name="gcircumflex" unicode="&#x11d;" horiz-adv-x="648" 
d="M324 211q44 0 72.5 25.5t28.5 71.5q0 41 -27 67t-74 26q-48 0 -74 -26.5t-26 -67.5q0 -43 27.5 -69.5t72.5 -26.5zM467 -149q0 17 -14 27t-61 18t-131 10q-38 -18 -38 -47q0 -54 125 -54q57 0 88 12.5t31 33.5zM660 -112q0 -62 -52.5 -106t-130 -64t-169.5 -20
q-135 0 -215.5 34t-80.5 100q0 90 133 109q-45 9 -72 34t-27 55q0 69 102 104q-122 55 -122 181q1 110 84.5 164.5t211.5 54.5q140 0 223 -54.5t83 -171.5q0 -105 -86 -156.5t-210 -51.5q-37 0 -80 5q-9 -9 -9 -21q0 -11 12 -17.5t44.5 -11.5t89.5 -7q142 -5 206.5 -45
t64.5 -115zM203 569q-21 25 -65 73q56 40 137 109q37 -1 114 2q45 -41 137 -111q-18 -17 -64 -72q-47 36 -131 94q-41 -24 -128 -95z" />
    <glyph glyph-name="Gbreve" unicode="&#x11e;" horiz-adv-x="821" 
d="M421 -28q-174 0 -282 101.5t-108 273.5q0 164 103.5 266t283.5 102q147 0 242.5 -67.5t116.5 -192.5q-97 -6 -214 -14q-13 54 -51.5 85.5t-98.5 31.5q-80 0 -125.5 -57.5t-45.5 -149.5q0 -98 50 -157t145 -59q56 0 98 27t58 75l-208 -4q2 44 0 141q147 -3 417 -3
q4 -189 -100 -294t-281 -105zM416 756q-91 0 -138.5 39t-44.5 107q46 0 117 5q0 -30 17 -47.5t50 -17.5q31 0 48.5 19t13.5 57q40 -1 120 1q6 -82 -45 -122.5t-138 -40.5z" />
    <glyph glyph-name="gbreve" unicode="&#x11f;" horiz-adv-x="648" 
d="M324 211q44 0 72.5 25.5t28.5 71.5q0 41 -27 67t-74 26q-48 0 -74 -26.5t-26 -67.5q0 -43 27.5 -69.5t72.5 -26.5zM467 -149q0 17 -14 27t-61 18t-131 10q-38 -18 -38 -47q0 -54 125 -54q57 0 88 12.5t31 33.5zM660 -112q0 -62 -52.5 -106t-130 -64t-169.5 -20
q-135 0 -215.5 34t-80.5 100q0 90 133 109q-45 9 -72 34t-27 55q0 69 102 104q-122 55 -122 181q1 110 84.5 164.5t211.5 54.5q140 0 223 -54.5t83 -171.5q0 -105 -86 -156.5t-210 -51.5q-37 0 -80 5q-9 -9 -9 -21q0 -11 12 -17.5t44.5 -11.5t89.5 -7q142 -5 206.5 -45
t64.5 -115zM334 587q-91 0 -138.5 39t-44.5 107q46 0 117 5q0 -30 17 -47.5t50 -17.5q31 0 48.5 19t13.5 57q40 -1 120 1q6 -82 -45 -122.5t-138 -40.5z" />
    <glyph glyph-name="Gcommaaccent" unicode="&#x122;" horiz-adv-x="821" 
d="M494 -141q0 -38 -29 -76t-82 -67l-37 42q31 25 45 48q-24 6 -38 23.5t-14 38.5q0 28 22 48t56 20q37 0 57 -21t20 -56zM421 -28q-174 0 -282 101.5t-108 273.5q0 164 103.5 266t283.5 102q147 0 242.5 -67.5t116.5 -192.5q-97 -6 -214 -14q-13 54 -51.5 85.5t-98.5 31.5
q-80 0 -125.5 -57.5t-45.5 -149.5q0 -98 50 -157t145 -59q56 0 98 27t58 75l-208 -4q2 44 0 141q147 -3 417 -3q4 -189 -100 -294t-281 -105z" />
    <glyph glyph-name="gcommaaccent" unicode="&#x123;" horiz-adv-x="648" 
d="M324 211q44 0 72.5 25.5t28.5 71.5q0 41 -27 67t-74 26q-48 0 -74 -26.5t-26 -67.5q0 -43 27.5 -69.5t72.5 -26.5zM467 -149q0 17 -14 27t-61 18t-131 10q-38 -18 -38 -47q0 -54 125 -54q57 0 88 12.5t31 33.5zM660 -112q0 -62 -52.5 -106t-130 -64t-169.5 -20
q-135 0 -215.5 34t-80.5 100q0 90 133 109q-45 9 -72 34t-27 55q0 69 102 104q-122 55 -122 181q1 110 84.5 164.5t211.5 54.5q140 0 223 -54.5t83 -171.5q0 -105 -86 -156.5t-210 -51.5q-37 0 -80 5q-9 -9 -9 -21q0 -11 12 -17.5t44.5 -11.5t89.5 -7q142 -5 206.5 -45
t64.5 -115zM253 658q0 38 29 76t82 67l37 -42q-31 -25 -45 -48q24 -6 38 -23.5t14 -38.5q0 -28 -22 -48t-56 -20q-37 0 -57 21t-20 56z" />
    <glyph glyph-name="Hcircumflex" unicode="&#x124;" horiz-adv-x="757" 
d="M249 749q-21 25 -65 73q56 40 137 109q37 -1 114 2q45 -41 137 -111q-18 -17 -64 -72q-47 36 -131 94q-41 -24 -128 -95zM501 -17v224q-79 0 -244 -1l3 -188q-103 0 -202 -1q0 264 -4 660q97 0 199 1q0 -121 2 -303q76 -3 245 -2l-3 340q96 -1 203 1q0 -325 3 -733z" />
    <glyph glyph-name="hcircumflex" unicode="&#x125;" horiz-adv-x="683" 
d="M18 710q-21 25 -65 73q56 40 137 109q37 -1 114 2q45 -41 137 -111q-18 -17 -64 -72q-47 36 -131 94q-41 -24 -128 -95zM46 18q4 286 0 662q73 0 203 1l-1 -241q28 40 77.5 64t112.5 24q94 0 147 -55t57 -153q2 -80 2.5 -165t-0.5 -130l-1 -45l-198 1q1 14 1.5 38t1 98.5
t-1.5 134.5q-3 111 -80 111q-55 0 -84.5 -44t-31.5 -108q-2 -37 -2 -85t1 -78l1 -29q-91 2 -204 -1z" />
    <glyph glyph-name="Imacron" unicode="&#x12a;" horiz-adv-x="332" 
d="M66 -1q0 307 -4 695q73 0 203 1q2 -334 5 -695q-97 1 -204 -1zM2 781q1 30 -1 101q86 -1 332 2l-1 -101q-100 2 -330 -2z" />
    <glyph glyph-name="imacron" unicode="&#x12b;" horiz-adv-x="314" 
d="M58 1q2 131 -2 497q79 0 200 1q0 -293 3 -497q-87 1 -201 -1zM-7 596q1 30 -1 101q86 -1 332 2l-1 -101q-100 2 -330 -2z" />
    <glyph glyph-name="Iogonek" unicode="&#x12e;" horiz-adv-x="332" 
d="M220 -215q-91 -12 -139.5 14.5t-48.5 76.5q-1 34 23 68t67 56q-37 0 -56 -1q0 307 -4 695q73 0 203 1q2 -334 5 -695h-57q-67 -34 -67 -78q0 -22 21.5 -34t60.5 -8q-5 -33 -8 -95z" />
    <glyph glyph-name="iogonek" unicode="&#x12f;" horiz-adv-x="314" 
d="M58 1q2 131 -2 497q79 0 200 1q0 -293 3 -497h-51q-67 -36 -67 -78q0 -21 21.5 -33t60.5 -9q-5 -33 -8 -95q-91 -12 -139 14.5t-49 76.5q-1 34 23 67.5t67 56.5zM159 544q-126 0 -126 90q0 88 125 88q123 0 123 -87q0 -91 -122 -91z" />
    <glyph glyph-name="Idotaccent" unicode="&#x130;" horiz-adv-x="332" 
d="M66 -1q0 307 -4 695q73 0 203 1q2 -334 5 -695q-97 1 -204 -1zM166 757q-48 0 -74 26t-26 65q0 36 27 59.5t73 23.5q48 0 74 -25.5t26 -60.5q0 -41 -27.5 -64.5t-72.5 -23.5z" />
    <glyph glyph-name="dotlessi" unicode="&#x131;" horiz-adv-x="314" 
d="M58 1q2 131 -2 497q79 0 200 1q0 -293 3 -497q-87 1 -201 -1z" />
    <glyph glyph-name="Jcircumflex" unicode="&#x134;" horiz-adv-x="676" 
d="M379 740q-21 25 -65 73q56 40 137 109q37 -1 114 2q45 -41 137 -111q-18 -17 -64 -72q-47 36 -131 94q-41 -24 -128 -95zM317 -15q-145 0 -223 70t-80 198q-2 67 16 120q46 -8 188 -20q-5 -33 -5 -66q0 -134 107 -134q62 0 90 66t28 203q0 115 -31 279q63 1 202 12
q33 -167 33 -300q0 -213 -83.5 -320.5t-241.5 -107.5z" />
    <glyph glyph-name="jcircumflex" unicode="&#x135;" horiz-adv-x="314" 
d="M30 559q-21 25 -65 73q56 40 137 109q37 -1 114 2q45 -41 137 -111q-18 -17 -64 -72q-47 36 -131 94q-41 -24 -128 -95zM-72 -223q5 35 5 142q34 -4 46 -4q42 0 61 20t20 68q1 113 1 222t-1 189l-1 80q69 -2 113 -1.5t64 1.5l20 1q1 -22 1.5 -62.5t1.5 -176t0 -270.5
q0 -220 -219 -220q-57 0 -112 11z" />
    <glyph glyph-name="Kcommaaccent" unicode="&#x136;" horiz-adv-x="755" 
d="M451 -124q0 -38 -29 -76t-82 -67l-37 42q31 25 45 48q-24 6 -38 23.5t-14 38.5q0 28 22 48t56 20q37 0 57 -21t20 -56zM522 -23q-101 168 -169 276q-26 -31 -63 -75t-38 -45l2 -121l-200 -1v670l198 -1q-1 -119 -1 -307l265 339l229 -11q-121 -146 -245 -303
q61 -108 122.5 -211t92.5 -151l31 -49q-69 -1 -125 -3.5t-77 -4.5z" />
    <glyph glyph-name="kcommaaccent" unicode="&#x137;" horiz-adv-x="661" 
d="M399 -121q0 -38 -29 -76t-82 -67l-37 42q31 25 45 48q-24 6 -38 23.5t-14 38.5q0 28 22 48t56 20q37 0 57 -21t20 -56zM442 -23q-71 134 -123 219q-37 -43 -73 -88l1 -90l-201 1q2 228 2.5 393.5t-0.5 217.5l-1 51l201 -2q-2 -178 -2 -385q49 66 88.5 126t55.5 87l15 27
l238 -5q-118 -139 -179 -217l194 -324z" />
    <glyph glyph-name="Lacute" unicode="&#x139;" horiz-adv-x="602" 
d="M187 732l-90 55q44 52 76 91.5t42 53.5l10 13l112 -70q-53 -49 -90.5 -85t-48.5 -47zM60 3q-1 369 -6 686q62 -2 202 0q-2 -123 4 -522l330 -3l-1 -166z" />
    <glyph glyph-name="lacute" unicode="&#x13a;" horiz-adv-x="306" 
d="M178 738l-90 55q44 52 76 91.5t42 53.5l10 13l112 -70q-53 -49 -90.5 -85t-48.5 -47zM253 1l-201 1l2 698l201 -2z" />
    <glyph glyph-name="Lcommaaccent" unicode="&#x13b;" horiz-adv-x="602" 
d="M401 -121q0 -38 -29 -76t-82 -67l-37 42q31 25 45 48q-24 6 -38 23.5t-14 38.5q0 28 22 48t56 20q37 0 57 -21t20 -56zM60 3q-1 369 -6 686q62 -2 202 0q-2 -123 4 -522l330 -3l-1 -166z" />
    <glyph glyph-name="lcommaaccent" unicode="&#x13c;" horiz-adv-x="306" 
d="M231 -121q0 -38 -29 -76t-82 -67l-37 42q31 25 45 48q-24 6 -38 23.5t-14 38.5q0 28 22 48t56 20q37 0 57 -21t20 -56zM253 1l-201 1l2 698l201 -2z" />
    <glyph glyph-name="Lcaron" unicode="&#x13d;" horiz-adv-x="602" 
d="M489 662q0 -38 -29 -76t-82 -67l-37 42q31 25 45 48q-24 6 -38 23.5t-14 38.5q0 28 22 48t56 20q37 0 57 -21t20 -56zM60 3q-1 369 -6 686q62 -2 202 0q-2 -123 4 -522l330 -3l-1 -166z" />
    <glyph glyph-name="lcaron" unicode="&#x13e;" horiz-adv-x="306" 
d="M445 622q0 -38 -29 -76t-82 -67l-37 42q31 25 45 48q-24 6 -38 23.5t-14 38.5q0 28 22 48t56 20q37 0 57 -21t20 -56zM253 1l-201 1l2 698l201 -2z" />
    <glyph glyph-name="Lslash" unicode="&#x141;" horiz-adv-x="607" 
d="M8 261q0 7 0.5 19.5t1.5 54t-1 84.5q18 3 52 11l-3 259q62 -2 202 0q-1 -60 0 -213l134 34q-2 -62 1 -148q-48 -11 -134 -33l3 -162l330 -3l-1 -166l-529 5q0 116 -1 273z" />
    <glyph glyph-name="lslash" unicode="&#x142;" horiz-adv-x="354" 
d="M7 273l-2 142l73 18l-1 267l201 -2q-2 -158 -2 -211l73 21l-1 -143q-14 -4 -38.5 -9.5t-34.5 -8.5l1 -346l-201 1q2 226 2 291z" />
    <glyph glyph-name="Nacute" unicode="&#x143;" horiz-adv-x="760" 
d="M388 733l-90 55q44 52 76 91.5t42 52.5l10 14l112 -70q-53 -49 -90.5 -85t-48.5 -47zM57 19q2 248 -3 654q96 4 195 7q105 -174 258 -412q0 183 -10 447q100 -1 198 -1q0 -280 11 -722q-96 -8 -202 -12q-104 171 -258 415q0 -179 6 -378z" />
    <glyph glyph-name="nacute" unicode="&#x144;" horiz-adv-x="681" 
d="M365 558l-90 55q44 52 76 91.5t42 53.5l10 13l112 -70q-53 -49 -90.5 -85t-48.5 -47zM442 -20q1 14 1.5 38t1.5 98.5t-1 134.5q-2 111 -81 111q-51 0 -82 -41.5t-33 -107.5q-2 -30 -2 -79t1 -83l1 -34q-126 2 -203 0l1 474q96 -2 159 1q-2 -41 -2 -88q30 58 88.5 91.5
t138.5 32.5q99 -1 152.5 -58.5t57.5 -161.5q2 -44 2.5 -125.5t-0.5 -141.5v-60z" />
    <glyph glyph-name="Ncommaaccent" unicode="&#x145;" horiz-adv-x="760" 
d="M457 -121q0 -38 -29 -76t-82 -67l-37 42q31 25 45 48q-24 6 -38 23.5t-14 38.5q0 28 22 48t56 20q37 0 57 -21t20 -56zM57 19q2 248 -3 654q96 4 195 7q105 -174 258 -412q0 183 -10 447q100 -1 198 -1q0 -280 11 -722q-96 -8 -202 -12q-104 171 -258 415q0 -179 6 -378z
" />
    <glyph glyph-name="ncommaaccent" unicode="&#x146;" horiz-adv-x="681" 
d="M426 -126q0 -38 -29 -76t-82 -67l-37 42q31 25 45 48q-24 6 -38 23.5t-14 38.5q0 28 22 48t56 20q37 0 57 -21t20 -56zM442 -20q1 14 1.5 38t1.5 98.5t-1 134.5q-2 111 -81 111q-51 0 -82 -41.5t-33 -107.5q-2 -30 -2 -79t1 -83l1 -34q-126 2 -203 0l1 474q96 -2 159 1
q-2 -41 -2 -88q30 58 88.5 91.5t138.5 32.5q99 -1 152.5 -58.5t57.5 -161.5q2 -44 2.5 -125.5t-0.5 -141.5v-60z" />
    <glyph glyph-name="Ncaron" unicode="&#x147;" horiz-adv-x="760" 
d="M322 755q-44 41 -137 111q19 17 65 73q46 -37 130 -95q41 24 129 95l64 -73q-55 -39 -136 -108q-37 1 -115 -3zM57 19q2 248 -3 654q96 4 195 7q105 -174 258 -412q0 183 -10 447q100 -1 198 -1q0 -280 11 -722q-96 -8 -202 -12q-104 171 -258 415q0 -179 6 -378z" />
    <glyph glyph-name="ncaron" unicode="&#x148;" horiz-adv-x="681" 
d="M291 566q-44 41 -137 111q19 17 65 73q46 -37 130 -95q41 24 129 95l64 -73q-55 -39 -136 -108q-37 1 -115 -3zM442 -20q1 14 1.5 38t1.5 98.5t-1 134.5q-2 111 -81 111q-51 0 -82 -41.5t-33 -107.5q-2 -30 -2 -79t1 -83l1 -34q-126 2 -203 0l1 474q96 -2 159 1
q-2 -41 -2 -88q30 58 88.5 91.5t138.5 32.5q99 -1 152.5 -58.5t57.5 -161.5q2 -44 2.5 -125.5t-0.5 -141.5v-60z" />
    <glyph glyph-name="Omacron" unicode="&#x14c;" horiz-adv-x="835" 
d="M251 780q1 30 -1 101q86 -1 332 2l-1 -101q-100 2 -330 -2zM418 -21q-174 0 -280 96t-107 265q-3 174 103.5 273.5t283.5 99.5q178 0 282.5 -98.5t103.5 -273.5q0 -171 -108 -267t-278 -95zM417 140q75 0 122 53t47 148q0 96 -45 153t-124 57q-78 0 -123.5 -56.5
t-45.5 -154.5q0 -86 45.5 -143t123.5 -57z" />
    <glyph glyph-name="omacron" unicode="&#x14d;" 
d="M197 598q1 30 -1 101q86 -1 332 2l-1 -101q-100 2 -330 -2zM361 -17q-148 0 -238.5 71t-90.5 209q-1 124 91 193.5t235 69.5q150 0 242.5 -71.5t91.5 -197.5q0 -92 -47.5 -155.5t-120 -91t-163.5 -27.5zM363 118q53 0 88 36.5t35 105.5q0 58 -31.5 96t-90.5 38
q-56 0 -91 -34.5t-35 -95.5q0 -67 32.5 -106.5t92.5 -39.5z" />
    <glyph glyph-name="Ohungarumlaut" unicode="&#x150;" horiz-adv-x="835" 
d="M514 743l-88 46q39 56 67 98t37 56l8 14l111 -56zM333 750l-88 46q38 56 65.5 98t35.5 56l9 15l111 -58q-48 -54 -81 -93.5t-43 -51.5zM418 -21q-174 0 -280 96t-107 265q-3 174 103.5 273.5t283.5 99.5q178 0 282.5 -98.5t103.5 -273.5q0 -171 -108 -267t-278 -95z
M417 140q75 0 122 53t47 148q0 96 -45 153t-124 57q-78 0 -123.5 -56.5t-45.5 -154.5q0 -86 45.5 -143t123.5 -57z" />
    <glyph glyph-name="ohungarumlaut" unicode="&#x151;" 
d="M458 563l-88 46q39 56 67 98t37 56l8 14l111 -56zM277 570l-88 46q38 56 65.5 98.5t35.5 56.5l9 14l111 -58q-48 -54 -81 -93.5t-43 -51.5zM361 -17q-148 0 -238.5 71t-90.5 209q-1 124 91 193.5t235 69.5q150 0 242.5 -71.5t91.5 -197.5q0 -92 -47.5 -155.5t-120 -91
t-163.5 -27.5zM363 118q53 0 88 36.5t35 105.5q0 58 -31.5 96t-90.5 38q-56 0 -91 -34.5t-35 -95.5q0 -67 32.5 -106.5t92.5 -39.5z" />
    <glyph glyph-name="OE" unicode="&#x152;" horiz-adv-x="1201" 
d="M1099 272l-303 2q2 -80 4 -119q16 -1 46.5 -2t127.5 -2.5t197 -0.5q-3 -75 -3 -159q-127 11 -557 17q1 16 0 62q-31 -43 -92.5 -68.5t-136.5 -25.5q-155 0 -253 99.5t-98 263.5q0 161 92.5 266.5t253.5 105.5q145 0 226 -81q0 34 -1 55q125 -1 556 13q0 -72 5 -151
q-153 2 -367 -4q-1 -58 -1 -141q104 -2 302 1q-1 -55 2 -131zM418 138q74 0 121.5 52t47.5 153q0 92 -44.5 149.5t-126.5 57.5q-81 0 -124 -58.5t-43 -150.5q0 -89 47 -146t122 -57z" />
    <glyph glyph-name="oe" unicode="&#x153;" horiz-adv-x="1170" 
d="M829 -25q-178 0 -253 97q-82 -85 -229 -85q-144 0 -229.5 72t-85.5 207q0 120 86 191.5t227 71.5q168 0 247 -93q80 88 237 88q158 0 239.5 -82.5t73.5 -242.5q-124 1 -442 -6q26 -93 123 -93q83 0 103 63q99 -11 212 -14q-32 -75 -112 -124.5t-197 -49.5zM363 119
q56 0 89 37t33 102q0 57 -31 97.5t-91 40.5q-56 0 -91 -36.5t-35 -94.5q0 -65 33 -105.5t93 -40.5zM818 399q-109 0 -123 -110q183 6 242 10q-8 100 -119 100z" />
    <glyph glyph-name="Racute" unicode="&#x154;" horiz-adv-x="736" 
d="M376 753l-90 55q44 52 76 91.5t42 52.5l10 14l112 -70q-53 -49 -90.5 -85t-48.5 -47zM512 -26q-52 90 -139 230q-55 -3 -122 2q0 -88 3 -197q-117 1 -198 -1q3 251 0 671q151 32 282 32q176 0 277 -66t100 -186q0 -161 -149 -221q57 -90 156 -236q-91 -10 -210 -28z
M249 354q50 -6 89 -6q183 0 183 108q0 104 -156 104q-55 0 -118 -11z" />
    <glyph glyph-name="racute" unicode="&#x155;" horiz-adv-x="492" 
d="M298 548l-90 55q44 52 76 91.5t42 53.5l10 13l112 -70q-53 -49 -90.5 -85t-48.5 -47zM46 1q1 249 -1 490q68 0 164 1q-1 -40 -1 -90q34 63 103 93.5t164 19.5q-3 -77 -4 -177q-132 0 -177.5 -43.5t-47.5 -168.5l2 -124q-80 0 -202 -1z" />
    <glyph glyph-name="Rcommaaccent" unicode="&#x156;" horiz-adv-x="736" 
d="M437 -121q0 -38 -29 -76t-82 -67l-37 42q31 25 45 48q-24 6 -38 23.5t-14 38.5q0 28 22 48t56 20q37 0 57 -21t20 -56zM512 -26q-52 90 -139 230q-55 -3 -122 2q0 -88 3 -197q-117 1 -198 -1q3 251 0 671q151 32 282 32q176 0 277 -66t100 -186q0 -161 -149 -221
q57 -90 156 -236q-91 -10 -210 -28zM249 354q50 -6 89 -6q183 0 183 108q0 104 -156 104q-55 0 -118 -11z" />
    <glyph glyph-name="rcommaaccent" unicode="&#x157;" horiz-adv-x="492" 
d="M232 -121q0 -38 -29 -76t-82 -67l-37 42q31 25 45 48q-24 6 -38 23.5t-14 38.5q0 28 22 48t56 20q37 0 57 -21t20 -56zM47 1q1 249 -1 490q68 0 164 1q-1 -40 -1 -90q34 63 103 93.5t164 19.5q-3 -77 -4 -177q-132 0 -177.5 -43.5t-47.5 -168.5l2 -124q-80 0 -202 -1z
" />
    <glyph glyph-name="Rcaron" unicode="&#x158;" horiz-adv-x="736" 
d="M302 761q-44 41 -137 111q19 17 65 73q46 -37 130 -95q41 24 129 95l64 -73q-55 -39 -136 -108q-37 1 -115 -3zM512 -26q-52 90 -139 230q-55 -3 -122 2q0 -88 3 -197q-117 1 -198 -1q3 251 0 671q151 32 282 32q176 0 277 -66t100 -186q0 -161 -149 -221
q57 -90 156 -236q-91 -10 -210 -28zM249 354q50 -6 89 -6q183 0 183 108q0 104 -156 104q-55 0 -118 -11z" />
    <glyph glyph-name="rcaron" unicode="&#x159;" horiz-adv-x="492" 
d="M222 556q-44 41 -137 111q19 17 65 73q46 -37 130 -95q41 24 129 95l64 -73q-55 -39 -136 -108q-37 1 -115 -3zM46 1q1 249 -1 490q68 0 164 1q-1 -40 -1 -90q34 63 103 93.5t164 19.5q-3 -77 -4 -177q-132 0 -177.5 -43.5t-47.5 -168.5l2 -124q-80 0 -202 -1z" />
    <glyph glyph-name="Sacute" unicode="&#x15a;" horiz-adv-x="748" 
d="M392 751l-90 55q44 52 76 91.5t42 52.5l10 14l112 -70q-53 -49 -90.5 -85t-48.5 -47zM381 -22q-161 0 -256.5 70.5t-105.5 193.5q79 -1 217 6q2 -55 45 -87t112 -32q50 0 80 17.5t30 48.5q0 34 -37 53.5t-152 33.5q-152 18 -217.5 68t-65.5 145q0 100 86 160.5t234 60.5
q161 1 255 -70t107 -195q-75 3 -208 3q-1 50 -42 82.5t-110 32.5q-49 0 -75 -19t-26 -50q0 -33 39.5 -52.5t144.5 -32.5q163 -20 228.5 -68.5t65.5 -135.5q0 -114 -95.5 -173.5t-253.5 -59.5z" />
    <glyph glyph-name="sacute" unicode="&#x15b;" horiz-adv-x="628" 
d="M332 565l-90 55q44 52 76 91.5t42 52.5l10 14l112 -70q-53 -49 -90.5 -85t-48.5 -47zM330 -33q-138 0 -220.5 52.5t-93.5 155.5q52 -1 191 1q13 -80 122 -80q38 0 61.5 12.5t23.5 31.5q0 24 -31 37t-119 21q-120 12 -176.5 51.5t-56.5 120.5q0 78 72 122t197 44
q136 0 216 -54t92 -137q-56 -2 -185 -11q-8 33 -39 52.5t-74 19.5q-39 0 -58.5 -12t-19.5 -30q0 -22 29 -35t105 -19q135 -11 191 -48.5t56 -110.5q0 -89 -77 -136.5t-206 -47.5z" />
    <glyph glyph-name="Scircumflex" unicode="&#x15c;" horiz-adv-x="748" 
d="M244 746q-21 25 -65 73q56 40 137 109q37 -1 114 2q45 -41 137 -111q-18 -17 -64 -72q-47 36 -131 94q-41 -24 -128 -95zM381 -22q-161 0 -256.5 70.5t-105.5 193.5q79 -1 217 6q2 -55 45 -87t112 -32q50 0 80 17.5t30 48.5q0 34 -37 53.5t-152 33.5q-152 18 -217.5 68
t-65.5 145q0 100 86 160.5t234 60.5q161 1 255 -70t107 -195q-75 3 -208 3q-1 50 -42 82.5t-110 32.5q-49 0 -75 -19t-26 -50q0 -33 39.5 -52.5t144.5 -32.5q163 -20 228.5 -68.5t65.5 -135.5q0 -114 -95.5 -173.5t-253.5 -59.5z" />
    <glyph glyph-name="scircumflex" unicode="&#x15d;" horiz-adv-x="628" 
d="M186 563q-21 25 -65 73q56 40 137 109q37 -1 114 2q45 -41 137 -111q-18 -17 -64 -72q-47 36 -131 94q-41 -24 -128 -95zM330 -33q-138 0 -220.5 52.5t-93.5 155.5q52 -1 191 1q13 -80 122 -80q38 0 61.5 12.5t23.5 31.5q0 24 -31 37t-119 21q-120 12 -176.5 51.5
t-56.5 120.5q0 78 72 122t197 44q136 0 216 -54t92 -137q-56 -2 -185 -11q-8 33 -39 52.5t-74 19.5q-39 0 -58.5 -12t-19.5 -30q0 -22 29 -35t105 -19q135 -11 191 -48.5t56 -110.5q0 -89 -77 -136.5t-206 -47.5z" />
    <glyph glyph-name="Scedilla" unicode="&#x15e;" horiz-adv-x="748" 
d="M503 195q0 34 -37 53.5t-152 33.5q-152 18 -217.5 68t-65.5 145q0 100 86 160.5t234 60.5q161 1 255 -70t107 -195q-75 3 -208 3q-1 50 -42 82.5t-110 32.5q-49 0 -75 -19t-26 -50q0 -33 39.5 -52.5t144.5 -32.5q163 -20 228.5 -68.5t65.5 -135.5q0 -105 -82 -163.5
t-222 -67.5v-42q64 0 97 -22t33 -59q0 -43 -46 -68.5t-132 -25.5q-63 0 -119 25q7 28 13 65q46 -23 88 -23q57 0 57 31q0 37 -91 28q8 37 17 90q-145 9 -230 78.5t-94 184.5q79 -1 217 6q2 -55 45 -87t112 -32q50 0 80 17.5t30 48.5z" />
    <glyph glyph-name="scedilla" unicode="&#x15f;" horiz-adv-x="628" 
d="M414 140q0 24 -31 37t-119 21q-120 12 -176.5 51.5t-56.5 120.5q0 78 72 122t197 44q136 0 216 -54t92 -137q-56 -2 -185 -11q-8 33 -39 52.5t-74 19.5q-39 0 -58.5 -12t-19.5 -30q0 -22 29 -35t105 -19q135 -11 191 -48.5t56 -110.5q0 -82 -66.5 -129t-180.5 -54v-42
q64 0 97 -22t33 -59q0 -43 -46 -68.5t-132 -25.5q-63 0 -119 25q7 28 13 65q46 -23 88 -23q57 0 57 31q0 37 -91 28q8 37 17 92q-118 8 -187.5 60t-79.5 146q52 -1 191 1q13 -80 122 -80q38 0 61.5 12.5t23.5 31.5z" />
    <glyph glyph-name="Scaron" unicode="&#x160;" horiz-adv-x="748" 
d="M316 759q-44 41 -137 111q19 17 65 73q46 -37 130 -95q41 24 129 95l64 -73q-55 -39 -136 -108q-37 1 -115 -3zM381 -22q-161 0 -256.5 70.5t-105.5 193.5q79 -1 217 6q2 -55 45 -87t112 -32q50 0 80 17.5t30 48.5q0 34 -37 53.5t-152 33.5q-152 18 -217.5 68t-65.5 145
q0 100 86 160.5t234 60.5q161 1 255 -70t107 -195q-75 3 -208 3q-1 50 -42 82.5t-110 32.5q-49 0 -75 -19t-26 -50q0 -33 39.5 -52.5t144.5 -32.5q163 -20 228.5 -68.5t65.5 -135.5q0 -114 -95.5 -173.5t-253.5 -59.5z" />
    <glyph glyph-name="scaron" unicode="&#x161;" horiz-adv-x="628" 
d="M258 573q-44 41 -137 111q19 17 65 73q46 -37 130 -95q41 24 129 95l64 -73q-55 -39 -136 -108q-37 1 -115 -3zM330 -33q-138 0 -220.5 52.5t-93.5 155.5q52 -1 191 1q13 -80 122 -80q38 0 61.5 12.5t23.5 31.5q0 24 -31 37t-119 21q-120 12 -176.5 51.5t-56.5 120.5
q0 78 72 122t197 44q136 0 216 -54t92 -137q-56 -2 -185 -11q-8 33 -39 52.5t-74 19.5q-39 0 -58.5 -12t-19.5 -30q0 -22 29 -35t105 -19q135 -11 191 -48.5t56 -110.5q0 -89 -77 -136.5t-206 -47.5z" />
    <glyph glyph-name="Tcommaaccent" unicode="&#x162;" horiz-adv-x="642" 
d="M400 -121q0 -38 -29 -76t-82 -67l-37 42q31 25 45 48q-24 6 -38 23.5t-14 38.5q0 28 22 48t56 20q37 0 57 -21t20 -56zM13 520q0 81 -1 177q410 -1 618 1q-1 -93 -1 -178h-205q4 -411 5 -526q-99 0 -207 -1q0 206 -2 527h-207z" />
    <glyph glyph-name="tcommaaccent" unicode="&#x163;" horiz-adv-x="535" 
d="M403 -121q0 -38 -29 -76t-82 -67l-37 42q31 25 45 48q-24 6 -38 23.5t-14 38.5q0 28 22 48t56 20q37 0 57 -21t20 -56zM511 22q-104 -29 -184 -29q-219 0 -225 241q-2 94 -2 151l-91 -1l-1 148l93 -2l3 132l199 1q-2 -57 -3 -134h202l-1 -147q-140 2 -202 2q0 -66 3 -126
q2 -50 23.5 -73t70.5 -23q35 0 101 16z" />
    <glyph glyph-name="Tcaron" unicode="&#x164;" horiz-adv-x="642" 
d="M264 749q-44 41 -137 111q19 17 65 73q46 -37 130 -95q41 24 129 95l64 -73q-55 -39 -136 -108q-37 1 -115 -3zM13 520q0 81 -1 177q410 -1 618 1q-1 -93 -1 -178h-205q4 -411 5 -526q-99 0 -207 -1q0 206 -2 527h-207z" />
    <glyph glyph-name="tcaron" unicode="&#x165;" horiz-adv-x="535" 
d="M510 720q0 -38 -29 -76t-82 -67l-37 42q31 25 45 48q-24 6 -38 23.5t-14 38.5q0 28 22 48t56 20q37 0 57 -21t20 -56zM511 22q-104 -29 -184 -29q-219 0 -225 241q-2 94 -2 151l-91 -1l-1 148l93 -2l3 132l199 1q-2 -57 -3 -134h202l-1 -147q-140 2 -202 2q0 -66 3 -126
q2 -50 23.5 -73t70.5 -23q35 0 101 16z" />
    <glyph glyph-name="Umacron" unicode="&#x16a;" horiz-adv-x="751" 
d="M377 -14q-171 0 -257 107t-86 314q0 126 31 276q65 -9 200 -24q-26 -135 -26 -233q0 -132 33 -196t102 -64q136 0 136 237q0 119 -28 305q64 2 203 9q32 -186 32 -304q0 -427 -340 -427zM210 781q1 30 -1 101q86 -1 332 2l-1 -101q-100 2 -330 -2z" />
    <glyph glyph-name="umacron" unicode="&#x16b;" horiz-adv-x="682" 
d="M280 2q-130 0 -185.5 79t-55.5 247q0 89 12 176q46 -6 190 -14q-8 -75 -8 -134q0 -106 22 -153t76 -47q40 0 68.5 33.5t31.5 106.5q4 47 4.5 104.5t-0.5 91.5l-1 34q44 -2 198 -2q-3 -212 1 -530l-171 1q2 33 2 84q-64 -77 -184 -77zM171 594q1 30 -1 101q86 -1 332 2
l-1 -101q-100 2 -330 -2z" />
    <glyph glyph-name="Ubreve" unicode="&#x16c;" horiz-adv-x="751" 
d="M377 -14q-171 0 -257 107t-86 314q0 126 31 276q65 -9 200 -24q-26 -135 -26 -233q0 -132 33 -196t102 -64q136 0 136 237q0 119 -28 305q64 2 203 9q32 -186 32 -304q0 -427 -340 -427zM375 746q-91 0 -138.5 39t-44.5 107q46 0 117 5q0 -30 17 -47.5t50 -17.5
q31 0 48.5 19t13.5 57q40 -1 120 1q6 -82 -45 -122.5t-138 -40.5z" />
    <glyph glyph-name="ubreve" unicode="&#x16d;" horiz-adv-x="682" 
d="M280 2q-130 0 -185.5 79t-55.5 247q0 89 12 176q46 -6 190 -14q-8 -75 -8 -134q0 -106 22 -153t76 -47q40 0 68.5 33.5t31.5 106.5q4 47 4.5 104.5t-0.5 91.5l-1 34q44 -2 198 -2q-3 -212 1 -530l-171 1q2 33 2 84q-64 -77 -184 -77zM336 561q-91 0 -138.5 39t-44.5 107
q46 0 117 5q0 -30 17 -47.5t50 -17.5q31 0 48.5 19t13.5 57q40 -1 120 1q6 -82 -45 -122.5t-138 -40.5z" />
    <glyph glyph-name="Uring" unicode="&#x16e;" horiz-adv-x="751" 
d="M374 741q-64 0 -99.5 30t-35.5 76q0 50 38 77.5t98 27.5q66 0 102 -30t36 -75q0 -53 -39 -79.5t-100 -26.5zM378 799q25 0 40.5 13.5t15.5 34.5q0 20 -14 35t-42 15q-27 0 -42.5 -13t-15.5 -35t14.5 -36t43.5 -14zM377 -14q-171 0 -257 107t-86 314q0 126 31 276
q65 -9 200 -24q-26 -135 -26 -233q0 -132 33 -196t102 -64q136 0 136 237q0 119 -28 305q64 2 203 9q32 -186 32 -304q0 -427 -340 -427z" />
    <glyph glyph-name="uring" unicode="&#x16f;" horiz-adv-x="682" 
d="M331 554q-64 0 -99.5 30t-35.5 76q0 50 38 77.5t98 27.5q66 0 102 -30t36 -75q0 -53 -39 -79.5t-100 -26.5zM335 612q25 0 40.5 13.5t15.5 34.5q0 20 -14 35t-42 15q-27 0 -42.5 -13t-15.5 -35t14.5 -36t43.5 -14zM280 2q-130 0 -185.5 79t-55.5 247q0 89 12 176
q46 -6 190 -14q-8 -75 -8 -134q0 -106 22 -153t76 -47q40 0 68.5 33.5t31.5 106.5q4 47 4.5 104.5t-0.5 91.5l-1 34q44 -2 198 -2q-3 -212 1 -530l-171 1q2 33 2 84q-64 -77 -184 -77z" />
    <glyph glyph-name="Uhungarumlaut" unicode="&#x170;" horiz-adv-x="751" 
d="M377 -14q-171 0 -257 107t-86 314q0 126 31 276q65 -9 200 -24q-26 -135 -26 -233q0 -132 33 -196t102 -64q136 0 136 237q0 119 -28 305q64 2 203 9q32 -186 32 -304q0 -427 -340 -427zM472 743l-88 46q39 56 67 98t37 56l8 14l111 -56zM291 750l-88 46q38 56 65.5 98
t35.5 56l9 15l111 -58q-48 -54 -81 -93.5t-43 -51.5z" />
    <glyph glyph-name="uhungarumlaut" unicode="&#x171;" horiz-adv-x="682" 
d="M280 2q-130 0 -185.5 79t-55.5 247q0 89 12 176q46 -6 190 -14q-8 -75 -8 -134q0 -106 22 -153t76 -47q40 0 68.5 33.5t31.5 106.5q4 47 4.5 104.5t-0.5 91.5l-1 34q44 -2 198 -2q-3 -212 1 -530l-171 1q2 33 2 84q-64 -77 -184 -77zM432 550l-88 46q39 56 67 98t37 56
l8 14l111 -56zM251 557l-88 46q38 56 65.5 98t35.5 57l9 14l111 -58q-48 -54 -81 -93.5t-43 -51.5z" />
    <glyph glyph-name="Uogonek" unicode="&#x172;" horiz-adv-x="751" 
d="M465 -215q-91 -12 -139.5 14.5t-48.5 76.5q-1 30 17 59.5t51 51.5q-311 19 -311 420q0 126 31 276q65 -9 200 -24q-26 -135 -26 -233q0 -132 33 -196t102 -64q136 0 136 237q0 119 -28 305q64 2 203 9q32 -186 32 -304q0 -385 -277 -423q-49 -34 -49 -68q0 -22 21.5 -34
t60.5 -8q-5 -33 -8 -95z" />
    <glyph glyph-name="uogonek" unicode="&#x173;" horiz-adv-x="682" 
d="M280 2q-130 0 -185.5 79t-55.5 247q0 89 12 176q46 -6 190 -14q-8 -75 -8 -134q0 -106 22 -153t76 -47q40 0 68.5 33.5t31.5 106.5q4 47 4.5 104.5t-0.5 91.5l-1 34q44 -2 198 -2q-3 -212 1 -530q-32 1 -84 2q-59 -37 -59 -75q0 -22 21.5 -34t60.5 -8q-5 -34 -8 -95
q-91 -12 -139.5 14.5t-48.5 75.5q-1 34 22 67t64 57q2 10 2 81q-64 -77 -184 -77z" />
    <glyph glyph-name="Ydieresis" unicode="&#x178;" horiz-adv-x="746" 
d="M267 -10q0 10 -2.5 65.5t-4.5 98.5q-86 181 -257 518q68 2 226 9q29 -80 135 -325q53 103 156 355q64 -3 223 -4q-110 -214 -276 -552q-2 -28 2 -164zM263 764q-42 0 -64 21.5t-22 54.5q0 30 25 49.5t62 19.5q38 0 61.5 -19.5t23.5 -52.5q0 -37 -24.5 -55t-61.5 -18z
M486 766q-37 0 -59.5 20.5t-22.5 54.5q0 30 22.5 49.5t61.5 19.5q40 0 60.5 -20t20.5 -52q0 -35 -24 -53.5t-59 -18.5z" />
    <glyph glyph-name="Zacute" unicode="&#x179;" horiz-adv-x="669" 
d="M352 739l-90 55q44 52 76 91.5t42 52.5l10 14l112 -70q-53 -49 -90.5 -85t-48.5 -47zM630 -3l-594 6l1 141q222 244 347 385l-338 -6l-1 172l579 5l2 -147q-191 -211 -351 -383l357 -1z" />
    <glyph glyph-name="zacute" unicode="&#x17a;" horiz-adv-x="607" 
d="M323 548l-90 55q44 52 76 91.5t42 53.5l10 13l112 -70q-53 -49 -90.5 -85t-48.5 -47zM573 -3q-194 4 -329 6t-174 2h-38l2 118l293 248q-100 -2 -171.5 -4.5t-92.5 -4.5l-21 -1l-2 149q166 0 298 1t180 3l49 1l1 -122q-91 -75 -163.5 -136.5t-99.5 -85.5l-27 -24
q83 0 157 1.5t107 3.5l33 1z" />
    <glyph glyph-name="Zdotaccent" unicode="&#x17b;" horiz-adv-x="669" 
d="M630 -3l-594 6l1 141q222 244 347 385l-338 -6l-1 172l579 5l2 -147q-191 -211 -351 -383l357 -1zM336 758q-48 0 -74 26t-26 65q0 36 27 59.5t73 23.5q48 0 74 -25.5t26 -60.5q0 -41 -27.5 -64.5t-72.5 -23.5z" />
    <glyph glyph-name="zdotaccent" unicode="&#x17c;" horiz-adv-x="607" 
d="M573 -3q-194 4 -329 6t-174 2h-38l2 118l293 248q-100 -2 -171.5 -4.5t-92.5 -4.5l-21 -1l-2 149q166 0 298 1t180 3l49 1l1 -122q-91 -75 -163.5 -136.5t-99.5 -85.5l-27 -24q83 0 157 1.5t107 3.5l33 1zM304 567q-48 0 -74 26t-26 65q0 36 27 59.5t73 23.5
q48 0 74 -25.5t26 -60.5q0 -41 -27.5 -64.5t-72.5 -23.5z" />
    <glyph glyph-name="Zcaron" unicode="&#x17d;" horiz-adv-x="669" 
d="M279 747q-44 41 -137 111q19 17 65 73q46 -37 130 -95q41 24 129 95l64 -73q-55 -39 -136 -108q-37 1 -115 -3zM630 -3l-594 6l1 141q222 244 347 385l-338 -6l-1 172l579 5l2 -147q-191 -211 -351 -383l357 -1z" />
    <glyph glyph-name="zcaron" unicode="&#x17e;" horiz-adv-x="607" 
d="M247 556q-44 41 -137 111q19 17 65 73q46 -37 130 -95q41 24 129 95l64 -73q-55 -39 -136 -108q-37 1 -115 -3zM573 -3q-194 4 -329 6t-174 2h-38l2 118l293 248q-100 -2 -171.5 -4.5t-92.5 -4.5l-21 -1l-2 149q166 0 298 1t180 3l49 1l1 -122q-91 -75 -163.5 -136.5
t-99.5 -85.5l-27 -24q83 0 157 1.5t107 3.5l33 1z" />
    <glyph glyph-name="florin" unicode="&#x192;" horiz-adv-x="647" 
d="M570 268l-140 3q-28 -117 -60 -234q-31 -110 -90 -159.5t-153 -49.5q-52 0 -118 12q6 47 8 136q28 -5 45 -5q46 0 73.5 24t44.5 79q40 134 57 199h-91l2 136q39 -2 122 -4l21 89q25 107 77 155t145 48q54 0 126 -15l-18 -143q-30 8 -50 8q-68 0 -90 -78q-8 -27 -18 -65
l106 1z" />
    <glyph glyph-name="Scommaaccent" unicode="&#x218;" horiz-adv-x="748" 
d="M452 -131q0 -38 -29 -76t-82 -67l-37 42q31 25 45 48q-24 6 -38 23.5t-14 38.5q0 28 22 48t56 20q37 0 57 -21t20 -56zM381 -22q-161 0 -256.5 70.5t-105.5 193.5q79 -1 217 6q2 -55 45 -87t112 -32q50 0 80 17.5t30 48.5q0 34 -37 53.5t-152 33.5q-152 18 -217.5 68
t-65.5 145q0 100 86 160.5t234 60.5q161 1 255 -70t107 -195q-75 3 -208 3q-1 50 -42 82.5t-110 32.5q-49 0 -75 -19t-26 -50q0 -33 39.5 -52.5t144.5 -32.5q163 -20 228.5 -68.5t65.5 -135.5q0 -114 -95.5 -173.5t-253.5 -59.5z" />
    <glyph glyph-name="scommaaccent" unicode="&#x219;" horiz-adv-x="628" 
d="M393 -146q0 -38 -29 -76t-82 -67l-37 42q31 25 45 48q-24 6 -38 23.5t-14 38.5q0 28 22 48t56 20q37 0 57 -21t20 -56zM330 -33q-138 0 -220.5 52.5t-93.5 155.5q52 -1 191 1q13 -80 122 -80q38 0 61.5 12.5t23.5 31.5q0 24 -31 37t-119 21q-120 12 -176.5 51.5
t-56.5 120.5q0 78 72 122t197 44q136 0 216 -54t92 -137q-56 -2 -185 -11q-8 33 -39 52.5t-74 19.5q-39 0 -58.5 -12t-19.5 -30q0 -22 29 -35t105 -19q135 -11 191 -48.5t56 -110.5q0 -89 -77 -136.5t-206 -47.5z" />
    <glyph glyph-name="uni0237" unicode="&#x237;" horiz-adv-x="314" 
d="M-72 -223q5 35 5 142q34 -4 46 -4q42 0 61 20t20 68q1 113 1 222t-1 189l-1 80q69 -2 113 -1.5t64 1.5l20 1q1 -22 1.5 -62.5t1.5 -176t0 -270.5q0 -220 -219 -220q-57 0 -112 11z" />
    <glyph glyph-name="circumflex" unicode="&#x2c6;" 
d="M233 549q-21 25 -65 73q56 40 137 109q37 -1 114 2q45 -41 137 -111q-18 -17 -64 -72q-47 36 -131 94q-41 -24 -128 -95z" />
    <glyph glyph-name="caron" unicode="&#x2c7;" 
d="M305 556q-44 41 -137 111q19 17 65 73q46 -37 130 -95q41 24 129 95l64 -73q-55 -39 -136 -108q-37 1 -115 -3z" />
    <glyph glyph-name="breve" unicode="&#x2d8;" 
d="M362 567q-91 0 -138.5 39t-44.5 107q46 0 117 5q0 -30 17 -47.5t50 -17.5q31 0 48.5 19t13.5 57q40 -1 120 1q6 -82 -45 -122.5t-138 -40.5z" />
    <glyph glyph-name="dotaccent" unicode="&#x2d9;" 
d="M362 567q-48 0 -74 26t-26 65q0 36 27 59.5t73 23.5q48 0 74 -25.5t26 -60.5q0 -41 -27.5 -64.5t-72.5 -23.5z" />
    <glyph glyph-name="ring" unicode="&#x2da;" horiz-adv-x="352" 
d="M174 555q-64 0 -99.5 30t-35.5 76q0 50 38 77.5t98 27.5q66 0 102 -30t36 -75q0 -53 -39 -79.5t-100 -26.5zM178 613q25 0 40.5 13.5t15.5 34.5q0 20 -14 35t-42 15q-27 0 -42.5 -13t-15.5 -35t14.5 -36t43.5 -14z" />
    <glyph glyph-name="ogonek" unicode="&#x2db;" 
d="M451 -215q-91 -12 -139.5 14.5t-48.5 76.5q-1 38 28.5 75t80.5 58l85 -1q-80 -40 -80 -86q0 -22 21.5 -34t60.5 -8q-5 -33 -8 -95z" />
    <glyph glyph-name="tilde" unicode="&#x2dc;" 
d="M267 563q-37 2 -99 -2q-5 73 24 121.5t90 48.5q38 0 86.5 -28.5t66.5 -28.5q27 0 21 54q35 1 96 6q14 -77 -12 -123.5t-84 -46.5q-43 0 -94 27t-65 27q-34 0 -30 -55z" />
    <glyph glyph-name="hungarumlaut" unicode="&#x2dd;" 
d="M429 555l-88 46q39 56 67 98t36 56l9 14l111 -56zM248 562l-88 46q38 56 65.5 98.5t36.5 56.5l8 14l111 -58q-48 -54 -81 -93.5t-42 -51.5z" />
    <glyph glyph-name="endash" unicode="&#x2013;" horiz-adv-x="463" 
d="M449 253q-167 4 -435 1q0 133 -1 165q255 -4 437 1q0 -1 -0.5 -9t-0.5 -21t-0.5 -31.5t-0.5 -46.5t1 -59z" />
    <glyph glyph-name="emdash" unicode="&#x2014;" horiz-adv-x="562" 
d="M13 254q1 32 1 165q336 -4 535 1q-3 -82 -3 -167q-216 6 -533 1z" />
    <glyph glyph-name="quoteleft" unicode="&#x2018;" horiz-adv-x="269" 
d="M138 414q-52 0 -81.5 34t-29.5 88q0 52 38.5 105.5t105.5 87.5l75 -58q-52 -35 -69 -71q31 -8 48.5 -32.5t17.5 -55.5q0 -44 -30.5 -71t-74.5 -27z" />
    <glyph glyph-name="quoteright" unicode="&#x2019;" horiz-adv-x="275" 
d="M108 391q-22 18 -42.5 32.5t-29.5 20.5l-10 6q49 31 73 70q-32 8 -49.5 32t-17.5 56q0 44 30.5 72.5t76.5 28.5q47 0 78.5 -34.5t31.5 -87.5q0 -54 -37.5 -108t-103.5 -88z" />
    <glyph glyph-name="quotesinglbase" unicode="&#x201a;" horiz-adv-x="275" 
d="M108 -134l-82 58q46 31 73 71q-33 8 -50 32t-17 55q0 43 30.5 72t75.5 29q48 0 79.5 -34.5t31.5 -87.5q0 -54 -38 -107t-103 -88z" />
    <glyph glyph-name="quotedblleft" unicode="&#x201c;" horiz-adv-x="521" 
d="M135 414q-50 0 -79 33.5t-29 88.5q0 111 141 191l82 -59q-47 -32 -71 -65q31 -9 48.5 -34t17.5 -54q0 -46 -31 -73.5t-79 -27.5zM383 390q-47 0 -79 34.5t-32 88.5q0 49 38.5 103t102.5 87q22 -17 42.5 -31.5t30.5 -20.5l9 -6q-48 -31 -72 -68q32 -8 49 -32.5t17 -54.5
q0 -43 -30 -71.5t-76 -28.5z" />
    <glyph glyph-name="quotedblright" unicode="&#x201d;" horiz-adv-x="516" 
d="M351 417l-80 59q52 40 69 74q-31 8 -50 33t-19 57q0 45 31 72t77 27q52 0 81 -34.5t29 -89.5q0 -108 -138 -198zM100 406l-75 59q48 33 68 71q-31 8 -49 33t-18 57q0 43 31 71t75 28q53 0 81.5 -34.5t28.5 -87.5q0 -54 -37.5 -106.5t-104.5 -90.5z" />
    <glyph glyph-name="quotedblbase" unicode="&#x201e;" horiz-adv-x="517" 
d="M350 -128l-77 60q53 41 68 73q-32 7 -50.5 33t-18.5 59q0 44 31 70.5t77 26.5q52 0 81 -34t29 -89q0 -115 -140 -199zM101 -138l-76 58q49 36 68 71q-31 8 -49 33.5t-18 57.5q0 43 30.5 70t75.5 27q52 0 81 -34t29 -87t-37 -106t-104 -90z" />
    <glyph glyph-name="dagger" unicode="&#x2020;" horiz-adv-x="399" 
d="M19 473l2 122q36 -1 114 -2q1 39 0 111q27 -1 131 2q-1 -46 -1 -114h114q-1 -31 1 -122q-38 1 -115 2q0 -164 2 -258l-136 2q2 107 3 257q-36 1 -115 0z" />
    <glyph glyph-name="daggerdbl" unicode="&#x2021;" horiz-adv-x="399" 
d="M135 215v90h-114q0 94 -2 108h116l-1 93h-115q1 28 1 108h114q0 21 -0.5 51.5t-0.5 38.5h59h40.5t25 0.5t11.5 0.5q-2 -58 -2 -91q28 0 66 0.5t46 0.5q-1 -52 -1 -109h-112q-1 -33 -1 -93q29 0 67.5 0.5t47.5 0.5q-1 -68 -1 -108h-114q0 -19 0.5 -52t0.5 -40
q-116 4 -131 1z" />
    <glyph glyph-name="bullet" unicode="&#x2022;" horiz-adv-x="342" 
d="M172 207q-70 0 -108.5 40.5t-38.5 110.5q0 68 41 108.5t105 40.5q62 0 104 -42t42 -105q0 -71 -38 -112t-107 -41z" />
    <glyph glyph-name="ellipsis" unicode="&#x2026;" horiz-adv-x="862" 
d="M145 -10q-55 0 -87 32.5t-32 88.5q0 51 32.5 83t85.5 32q51 0 85 -32.5t33 -82.5q-2 -56 -32 -88.5t-85 -32.5zM430 -34q-54 0 -86.5 31.5t-32.5 87.5q0 52 33 84t86 32t85.5 -32.5t31.5 -81.5q-1 -56 -31.5 -88.5t-85.5 -32.5zM718 -14q-57 0 -89 30.5t-32 88.5
q0 51 33 83t86 32q54 0 88 -32.5t32 -80.5q-1 -56 -31.5 -88.5t-86.5 -32.5z" />
    <glyph glyph-name="perthousand" unicode="&#x2030;" horiz-adv-x="1291" 
d="M217 433q67 0 67 99q2 96 -66 96q-32 0 -50 -24.5t-18 -71.5q0 -46 17 -72.5t50 -26.5zM216 335q-102 0 -152.5 56.5t-50.5 148.5q0 83 57 135.5t148 52.5q97 0 150.5 -53t53.5 -145q0 -98 -57.5 -146.5t-148.5 -48.5zM191 -27l-92 13q147 188 282.5 366.5t196.5 263.5
l62 85l94 -14q-158 -201 -293.5 -379.5t-192.5 -256.5zM630 64q30 0 48 24t18 73q0 97 -68 97q-30 0 -48 -25t-18 -66q0 -103 68 -103zM627 -34q-93 0 -147.5 54.5t-54.5 142.5q0 86 54 142.5t151 56.5q96 0 150 -54.5t54 -142.5q0 -93 -58 -146t-149 -53zM1071 77
q69 0 69 100q0 44 -18 69.5t-49 25.5q-30 0 -48.5 -24.5t-18.5 -72.5q0 -45 17 -71.5t48 -26.5zM1074 -21q-88 0 -147 50t-59 145q0 90 55.5 144t149.5 54t149.5 -52t55.5 -136q0 -93 -52.5 -149t-151.5 -56z" />
    <glyph glyph-name="guilsinglleft" unicode="&#x2039;" horiz-adv-x="282" 
d="M118 106q-34 83 -107 235q54 97 118 225q40 -4 135 -5q-50 -85 -117 -223q39 -90 105 -226q-54 0 -134 -6z" />
    <glyph glyph-name="guilsinglright" unicode="&#x203a;" horiz-adv-x="277" 
d="M156 115q-61 3 -135 5q49 87 110 207q-39 86 -110 228q63 -1 136 4q31 -72 109 -237q-44 -78 -110 -207z" />
    <glyph glyph-name="fraction" unicode="&#x2044;" horiz-adv-x="599" 
d="M96 -29q-11 7 -125 20q146 187 278 365t191 262l59 85l129 -20q-159 -202 -292 -380t-186 -255z" />
    <glyph glyph-name="Euro" unicode="&#x20ac;" horiz-adv-x="861" 
d="M2 353q1 20 0 75q36 -1 96 0q26 130 127 211t244 81q140 0 233.5 -66t127.5 -177l-228 -8q-14 43 -47 67.5t-78 24.5q-126 0 -158 -131q141 2 328 6l-2 -76q-135 1 -335 -2q-1 -14 0 -36q155 2 351 6q-2 -26 0 -74q-135 1 -340 -2q32 -121 153 -121q59 0 91.5 22.5
t51.5 76.5l223 -10q-65 -249 -372 -246q-146 0 -243 72t-125 203q-64 -2 -94 -2q1 16 1 75h83q-1 12 0 32z" />
    <glyph glyph-name="servicemark" unicode="&#x2120;" horiz-adv-x="783" 
d="M356 398q1 13 2 36t3 97.5t-2 145.5q56 -3 151 2q16 -85 44 -183q2 13 16 84t23 121q74 -5 149 -5q3 -122 17 -315q-56 0 -102 -4q0 107 -7 250q-17 -74 -39 -190q-74 0 -111 2q-13 68 -47 181q0 -147 4 -223zM175 373q-72 0 -116 31.5t-49 87.5q47 -2 109 1
q5 -53 57 -53q45 0 45 33q0 16 -15.5 24t-67.5 15q-64 8 -91.5 30t-27.5 63q0 44 39.5 71t106.5 27q71 0 112.5 -32t47.5 -87q-44 2 -104 2q-2 51 -47 51q-21 0 -33.5 -9t-12.5 -25q0 -18 18 -26.5t64 -13.5q68 -7 95.5 -27.5t27.5 -60.5q0 -47 -43.5 -74.5t-114.5 -27.5z
" />
    <glyph glyph-name="trademark" unicode="&#x2122;" horiz-adv-x="703" 
d="M272 399q8 100 11 272q53 -2 147 2q15 -81 44 -178l40 200q73 -4 148 -4q3 -116 17 -309q-56 0 -101 -4q-1 102 -7 246q-24 -104 -40 -187q-74 0 -111 2q-13 65 -47 179q0 -143 4 -220zM7 603q1 31 2 89q80 -2 252 3l-1 -92q-31 1 -73 1q0 -89 4 -222q-49 2 -103 0l1 222
q-52 0 -82 -1z" />
    <glyph glyph-name="minus" unicode="&#x2212;" horiz-adv-x="494" 
d="M477 409l1 -155q-98 2 -213.5 2.5t-182.5 -0.5l-66 -1l2 155q107 -2 221.5 -2h176.5z" />
    <glyph glyph-name="Pcircle" unicode="&#x24c5;" horiz-adv-x="864" 
d="M441 712q191 0 292 -102t101 -280q0 -157 -108 -256.5t-303 -99.5q-176 0 -284 97.5t-108 267.5q0 79 21.5 142t58.5 105.5t89.5 71.5t112 41.5t128.5 12.5zM435 648q-47 0 -89.5 -7.5t-88.5 -28t-79 -53.5t-54.5 -89t-21.5 -129q0 -141 83.5 -222.5t241.5 -81.5
q164 0 249.5 84.5t85.5 220.5q0 148 -87.5 227t-239.5 79zM234 125q2 163 0 436q94 13 160 13q135 0 209.5 -43t74.5 -125q0 -88 -67 -128t-176 -40q-36 0 -55 2l3 -114q-98 0 -149 -1zM379 476v-150q17 -2 46 -2q110 0 110 82q0 74 -108 73q-21 0 -48 -3z" />
    <glyph glyph-name="Pcircle" unicode="&#x24df;" horiz-adv-x="864" 
d="M441 712q191 0 292 -102t101 -280q0 -157 -108 -256.5t-303 -99.5q-176 0 -284 97.5t-108 267.5q0 79 21.5 142t58.5 105.5t89.5 71.5t112 41.5t128.5 12.5zM435 648q-47 0 -89.5 -7.5t-88.5 -28t-79 -53.5t-54.5 -89t-21.5 -129q0 -141 83.5 -222.5t241.5 -81.5
q164 0 249.5 84.5t85.5 220.5q0 148 -87.5 227t-239.5 79zM234 125q2 163 0 436q94 13 160 13q135 0 209.5 -43t74.5 -125q0 -88 -67 -128t-176 -40q-36 0 -55 2l3 -114q-98 0 -149 -1zM379 476v-150q17 -2 46 -2q110 0 110 82q0 74 -108 73q-21 0 -48 -3z" />
    <glyph glyph-name="commaaccent" 
d="M442 -121q0 -38 -29 -76t-82 -67l-37 42q31 25 45 48q-24 6 -38 23.5t-14 38.5q0 28 22 48t56 20q37 0 57 -21t20 -56z" />
    <glyph glyph-name="L_A" horiz-adv-x="1246" 
d="M60 -8q0 369 -6 686q63 -2 202 0q-1 -123 4 -522q156 -3 270 -3q136 418 179 548l312 4q107 -337 222 -723q-128 1 -216 -2q-14 52 -39 141q-106 2 -265 2l-21 -83q-57 1 -116 1v-54zM855 590q-47 -157 -94 -325q41 -1 188 -1q-40 140 -94 326z" />
    <glyph glyph-name="L_Aacute" horiz-adv-x="1246" 
d="M877 753l-90 55q44 52 76 91.5t42 52.5l10 14l112 -70q-53 -49 -90.5 -85t-48.5 -47zM60 -8q0 369 -6 686q63 -2 202 0q-1 -123 4 -522q156 -3 270 -3q136 418 179 548l312 4q107 -337 222 -723q-128 1 -216 -2q-14 52 -39 141q-106 2 -265 2l-21 -83q-57 1 -116 1v-54z
M855 590q-47 -157 -94 -325q41 -1 188 -1q-40 140 -94 326z" />
    <glyph glyph-name="L_Abreve" horiz-adv-x="1246" 
d="M60 -8q0 369 -6 686q63 -2 202 0q-1 -123 4 -522q156 -3 270 -3q136 418 179 548l312 4q107 -337 222 -723q-128 1 -216 -2q-14 52 -39 141q-106 2 -265 2l-21 -83q-57 1 -116 1v-54zM855 590q-47 -157 -94 -325q41 -1 188 -1q-40 140 -94 326zM859 770q-91 0 -138.5 39
t-44.5 107q46 0 117 5q0 -30 17 -47.5t50 -17.5q31 0 48.5 19t13.5 57q40 -1 120 1q6 -82 -45 -122.5t-138 -40.5z" />
    <glyph glyph-name="L_Acircumflex" horiz-adv-x="1246" 
d="M729 745q-21 25 -65 73q56 40 137 109q37 -1 114 2q45 -41 137 -111q-18 -17 -64 -72q-47 36 -131 94q-41 -24 -128 -95zM60 -8q0 369 -6 686q63 -2 202 0q-1 -123 4 -522q156 -3 270 -3q136 418 179 548l312 4q107 -337 222 -723q-128 1 -216 -2q-14 52 -39 141
q-106 2 -265 2l-21 -83q-57 1 -116 1v-54zM855 590q-47 -157 -94 -325q41 -1 188 -1q-40 140 -94 326z" />
    <glyph glyph-name="L_Adieresis" horiz-adv-x="1246" 
d="M749 771q-42 0 -64 21.5t-22 54.5q0 30 25 49.5t62 19.5q38 0 61.5 -19.5t23.5 -52.5q0 -37 -24.5 -55t-61.5 -18zM972 773q-37 0 -59.5 20.5t-22.5 54.5q0 30 22.5 49.5t61.5 19.5q40 0 60.5 -20t20.5 -52q0 -35 -24 -53.5t-59 -18.5zM60 -8q0 369 -6 686q63 -2 202 0
q-1 -123 4 -522q156 -3 270 -3q136 418 179 548l312 4q107 -337 222 -723q-128 1 -216 -2q-14 52 -39 141q-106 2 -265 2l-21 -83q-57 1 -116 1v-54zM855 590q-47 -157 -94 -325q41 -1 188 -1q-40 140 -94 326z" />
    <glyph glyph-name="L_Agrave" horiz-adv-x="1246" 
d="M60 -8q0 369 -6 686q63 -2 202 0q-1 -123 4 -522q156 -3 270 -3q136 418 179 548l312 4q107 -337 222 -723q-128 1 -216 -2q-14 52 -39 141q-106 2 -265 2l-21 -83q-57 1 -116 1v-54zM855 590q-47 -157 -94 -325q41 -1 188 -1q-40 140 -94 326zM850 753q-30 32 -150 143
q17 8 110 71q31 -43 130 -159q-29 -15 -90 -55z" />
    <glyph glyph-name="L_Amacron" horiz-adv-x="1246" 
d="M60 -8q0 369 -6 686q63 -2 202 0q-1 -123 4 -522q156 -3 270 -3q136 418 179 548l312 4q107 -337 222 -723q-128 1 -216 -2q-14 52 -39 141q-106 2 -265 2l-21 -83q-57 1 -116 1v-54zM855 590q-47 -157 -94 -325q41 -1 188 -1q-40 140 -94 326zM694 791q1 30 -1 101
q86 -1 332 2l-1 -101q-100 2 -330 -2z" />
    <glyph glyph-name="L_Aogonek" horiz-adv-x="1246" 
d="M1109 -227q-91 -12 -139.5 14.5t-48.5 76.5q-1 37 26.5 73t75.5 57l-35 127q-106 2 -265 2l-21 -83q-57 1 -116 1v-54l-526 5q0 369 -6 686q63 -2 202 0q-1 -123 4 -522q156 -3 270 -3q136 418 179 548l312 4q107 -337 222 -723q-79 1 -154 0q-54 -35 -54 -72
q0 -22 21.5 -34t60.5 -8q-5 -33 -8 -95zM855 590q-47 -157 -94 -325q41 -1 188 -1q-40 140 -94 326z" />
    <glyph glyph-name="L_Aring" horiz-adv-x="1246" 
d="M853 753q-64 0 -99.5 30t-35.5 76q0 50 38 77.5t98 27.5q66 0 102 -30t36 -75q0 -53 -39 -79.5t-100 -26.5zM857 811q25 0 40.5 13.5t15.5 34.5q0 20 -14 35t-42 15q-27 0 -42.5 -13t-15.5 -35t14.5 -36t43.5 -14zM60 -8q0 369 -6 686q63 -2 202 0q-1 -123 4 -522
q156 -3 270 -3q136 418 179 548l312 4q107 -337 222 -723q-128 1 -216 -2q-14 52 -39 141q-106 2 -265 2l-21 -83q-57 1 -116 1v-54zM855 590q-47 -157 -94 -325q41 -1 188 -1q-40 140 -94 326z" />
    <glyph glyph-name="L_Atilde" horiz-adv-x="1246" 
d="M60 -8q0 369 -6 686q63 -2 202 0q-1 -123 4 -522q156 -3 270 -3q136 418 179 548l312 4q107 -337 222 -723q-128 1 -216 -2q-14 52 -39 141q-106 2 -265 2l-21 -83q-57 1 -116 1v-54zM855 590q-47 -157 -94 -325q41 -1 188 -1q-40 140 -94 326zM763 764q-37 2 -99 -2
q-5 73 24 121.5t90 48.5q38 0 86.5 -28.5t66.5 -28.5q27 0 21 54q35 1 96 6q14 -77 -12 -123.5t-84 -46.5q-43 0 -94 27t-65 27q-34 0 -30 -55z" />
    <glyph glyph-name="T_h" horiz-adv-x="1259" 
d="M825 698q-1 -135 -1 -278q30 47 81.5 77.5t109.5 30.5q94 0 147 -55t56 -153q3 -80 3 -165t-1 -130l-1 -45l-197 1q5 127 0 271q-3 111 -79 111q-55 0 -85 -44t-32 -108v-192q-91 2 -203 -1q3 147 0 502q-70 1 -199 0q4 -411 5 -526q-99 0 -207 -1q0 206 -2 527
q-74 2 -207 0q0 81 -1 177q605 -1 813 1z" />
    <glyph glyph-name="zero.numerator" horiz-adv-x="492" 
d="M245 297q-109 0 -169.5 61t-60.5 159q0 103 64.5 158t168.5 55q112 0 170.5 -57t58.5 -155q0 -103 -64.5 -162t-167.5 -59zM247 399q82 0 82 121q0 52 -21 82t-59 30q-41 0 -63 -31t-22 -84t22 -85.5t61 -32.5z" />
    <glyph glyph-name="one.numerator" horiz-adv-x="310" 
d="M122 311v117v97v50l-79 -37l-38 109l154 77l99 -8l4 -404z" />
    <glyph glyph-name="two.numerator" horiz-adv-x="447" 
d="M426 311l-404 4l-4 121q270 58 270 154q0 24 -15.5 39t-42.5 15q-84 0 -74 -97q-62 1 -138 0q-8 88 48.5 138.5t167.5 50.5q96 0 148 -39t52 -103q0 -67 -66.5 -115t-173.5 -68q58 0 116 2t87 4l29 2v-108z" />
    <glyph glyph-name="three.numerator" horiz-adv-x="479" 
d="M242 296q-114 0 -174 43t-57 123q64 -3 157 -5q-1 -33 19.5 -50t57.5 -17q34 0 54.5 12t20.5 33q0 30 -43 41q-50 9 -121 3q1 31 -2 77q83 -6 121 5q43 11 43 39q0 21 -18 33.5t-52 12.5q-36 0 -57 -18t-20 -48l-151 3q-3 72 55.5 112t168.5 40q101 0 159 -34t58 -92
q0 -38 -25.5 -62t-66.5 -30q45 -7 72 -33.5t27 -62.5q0 -59 -62.5 -92t-163.5 -33z" />
    <glyph glyph-name="four.numerator" horiz-adv-x="477" 
d="M284 312l1 73q-123 0 -279 -3q0 29 -1 96l205 252q59 -3 111 -4t75 0h22q-1 -104 -1 -245q34 0 51 1q-1 -42 -1 -97h-50l1 -72zM286 651q-51 -62 -138 -171h138v171z" />
    <glyph glyph-name="five.numerator" horiz-adv-x="473" 
d="M238 297q-98 0 -157 40t-65 113l145 2q3 -29 23.5 -46t54.5 -17q33 0 55 16t22 45q0 27 -19.5 42.5t-54.5 15.5q-54 0 -75 -34q-64 5 -140 8q3 104 5 241q153 -1 400 4q-1 -39 -1 -99q-120 0 -270 -4q-1 -19 -1 -72q51 30 121 30q86 0 134 -37t49 -99q0 -73 -64.5 -111
t-161.5 -38z" />
    <glyph glyph-name="six.numerator" horiz-adv-x="501" 
d="M257 295q-111 0 -176.5 58t-65.5 159q0 105 66.5 163t177.5 58q90 0 149.5 -37.5t64.5 -98.5l-153 -4q-3 20 -20.5 34t-44.5 14q-42 0 -67 -32t-27 -82q25 22 65 36.5t81 14.5q86 0 132.5 -34.5t46.5 -94.5q0 -71 -66 -112.5t-163 -41.5zM267 502q-57 0 -97 -49
q22 -64 87 -64q33 0 56 14.5t23 42.5q0 56 -69 56z" />
    <glyph glyph-name="seven.numerator" horiz-adv-x="416" 
d="M101 310q2 200 151 305l-245 -4v111l402 4v-118q-85 -56 -123 -129.5t-37 -172.5z" />
    <glyph glyph-name="eight.numerator" horiz-adv-x="491" 
d="M252 297q-115 0 -178 35t-63 97q0 37 25.5 62t72.5 32q-83 25 -83 97q0 52 56 83.5t165 31.5q106 0 164.5 -32t58.5 -84q0 -71 -80 -94q41 -10 65.5 -35.5t24.5 -58.5q0 -65 -63.5 -99.5t-164.5 -34.5zM249 384q33 0 57 14t24 37q0 49 -88 57q-84 -7 -84 -55
q0 -24 24.5 -38.5t66.5 -14.5zM256 554q70 10 70 52q0 20 -21 32t-60 12t-58.5 -12.5t-19.5 -30.5q0 -45 89 -53z" />
    <glyph glyph-name="nine.numerator" horiz-adv-x="494" 
d="M240 299q-92 0 -151.5 39t-72.5 111l149 -1q14 -53 80 -53q85 0 91 112q-53 -39 -139 -39q-85 0 -132.5 32.5t-47.5 92.5q0 69 61 106t166 37q111 0 173 -57.5t62 -161.5q0 -113 -66.5 -165.5t-172.5 -52.5zM243 535q50 0 88 40q-20 68 -88 68q-35 0 -55.5 -16t-20.5 -41
q0 -51 76 -51z" />
    <glyph glyph-name="zero.denominator" horiz-adv-x="491" 
d="M245 -21q-109 0 -169.5 61t-60.5 159q0 103 64.5 158t168.5 55q112 0 170.5 -57t58.5 -155q0 -103 -64.5 -162t-167.5 -59zM247 81q82 0 82 121q0 52 -21 82t-59 30q-41 0 -63 -31t-22 -84t22 -85.5t61 -32.5z" />
    <glyph glyph-name="one.denominator" horiz-adv-x="310" 
d="M122 -7v117v97v50l-79 -37l-38 109l154 77l99 -8l4 -404z" />
    <glyph glyph-name="two.denominator" horiz-adv-x="447" 
d="M426 -7l-404 4l-4 121q270 58 270 154q0 24 -15.5 39t-42.5 15q-84 0 -74 -97q-62 1 -138 0q-8 88 48.5 138.5t167.5 50.5q96 0 148 -39t52 -103q0 -67 -66.5 -115t-173.5 -68q58 0 116 2t87 4l29 2v-108z" />
    <glyph glyph-name="three.denominator" horiz-adv-x="479" 
d="M242 -22q-114 0 -174 43t-57 123q64 -3 157 -5q-1 -33 19.5 -50t57.5 -17q34 0 54.5 12t20.5 33q0 30 -43 41q-50 9 -121 3q1 31 -2 77q83 -6 121 5q43 11 43 39q0 21 -18 33.5t-52 12.5q-36 0 -57 -18t-20 -48l-151 3q-3 72 55.5 112t168.5 40q101 0 159 -34t58 -92
q0 -38 -25.5 -62t-66.5 -30q45 -7 72 -33.5t27 -62.5q0 -59 -62.5 -92t-163.5 -33z" />
    <glyph glyph-name="four.denominator" horiz-adv-x="477" 
d="M284 -6l1 73q-123 0 -279 -3q0 29 -1 96l205 252q59 -3 111 -4t75 0h22q-1 -104 -1 -245q34 0 51 1q-1 -42 -1 -97h-50l1 -72zM286 333q-51 -62 -138 -171h138v171z" />
    <glyph glyph-name="five.denominator" horiz-adv-x="473" 
d="M238 -21q-98 0 -157 40t-65 113l145 2q3 -29 23.5 -46t54.5 -17q33 0 55 16t22 45q0 27 -19.5 42.5t-54.5 15.5q-54 0 -75 -34q-64 5 -140 8q3 104 5 241q153 -1 400 4q-1 -39 -1 -99q-120 0 -270 -4q-1 -19 -1 -72q51 30 121 30q86 0 134 -37t49 -99q0 -73 -64.5 -111
t-161.5 -38z" />
    <glyph glyph-name="six.denominator" horiz-adv-x="500" 
d="M257 -23q-111 0 -176.5 58t-65.5 159q0 105 66.5 163t177.5 58q90 0 149.5 -37.5t64.5 -98.5l-153 -4q-3 20 -20.5 34t-44.5 14q-42 0 -67 -32t-27 -82q25 22 65 36.5t81 14.5q86 0 132.5 -34.5t46.5 -94.5q0 -71 -66 -112.5t-163 -41.5zM267 184q-57 0 -97 -49
q22 -64 87 -64q33 0 56 14.5t23 42.5q0 56 -69 56z" />
    <glyph glyph-name="seven.denominator" horiz-adv-x="413" 
d="M98 -8q2 200 151 305l-245 -4v111l402 4v-118q-85 -56 -123 -129.5t-37 -172.5z" />
    <glyph glyph-name="eight.denominator" horiz-adv-x="490" 
d="M252 -21q-115 0 -178 35t-63 97q0 37 25.5 62t72.5 32q-83 25 -83 97q0 52 56 83.5t165 31.5q106 0 164.5 -32t58.5 -84q0 -71 -80 -94q41 -10 65.5 -35.5t24.5 -58.5q0 -65 -63.5 -99.5t-164.5 -34.5zM249 66q33 0 57 14t24 37q0 49 -88 57q-84 -7 -84 -55
q0 -24 24.5 -38.5t66.5 -14.5zM256 236q70 10 70 52q0 20 -21 32t-60 12t-58.5 -12.5t-19.5 -30.5q0 -45 89 -53z" />
    <glyph glyph-name="nine.denominator" horiz-adv-x="494" 
d="M240 -19q-92 0 -151.5 39t-72.5 111l149 -1q14 -53 80 -53q85 0 91 112q-53 -39 -139 -39q-85 0 -132.5 32.5t-47.5 92.5q0 69 61 106t166 37q111 0 173 -57.5t62 -161.5q0 -113 -66.5 -165.5t-172.5 -52.5zM243 217q50 0 88 40q-20 68 -88 68q-35 0 -55.5 -16t-20.5 -41
q0 -51 76 -51z" />
    <glyph glyph-name="dollar.titling" horiz-adv-x="557" 
d="M352 136l-146 1l4 88q-80 13 -129 53.5t-50 102.5q86 -2 162 0q1 -33 25 -52t63 -19q33 0 54 12.5t21 35.5q0 11 -8 18.5t-36.5 15t-80.5 12.5q-99 10 -145 42.5t-46 89.5q0 49 45.5 85t122.5 47l-7 95h156q-5 -52 -7 -99q72 -15 118.5 -55.5t54.5 -100.5q-72 0 -162 -5
q-2 33 -22.5 53t-56.5 20q-71 0 -71 -47q0 -25 26.5 -37.5t87.5 -17.5q113 -9 157 -37.5t44 -80.5q0 -55 -48 -89.5t-128 -44.5z" />
    <glyph glyph-name="cent.titling" horiz-adv-x="566" 
d="M214 135q4 43 6 94q-89 17 -140 74t-51 143q0 87 49 143.5t140 72.5l-8 100h150q-7 -75 -8 -100q78 -14 128 -59.5t56 -110.5l-179 -7q-8 88 -75 88q-83 0 -83 -122q0 -121 82 -121q65 0 79 80q72 -4 179 -8q-26 -152 -188 -175l4 -92q-38 3 -141 0z" />
    <glyph glyph-name="Euro.titling" horiz-adv-x="681" 
d="M29 447q0 13 -1 29v17h59q18 100 93.5 157.5t189.5 57.5q105 0 179 -48.5t94 -128.5l-178 -6q-6 31 -28 50t-61 19q-90 0 -113 -99l242 4q-2 -17 -2 -47q-99 0 -245 -1q-1 -18 0 -36q66 0 258 4q-2 -12 0 -47q-102 0 -252 -1q23 -92 109 -92q84 0 103 75l177 -7
q-13 -87 -90.5 -134.5t-193.5 -46.5q-113 0 -186.5 52t-93.5 150l-57 -1l1 47h51l-1 34z" />
    <glyph glyph-name="sterling.titling" horiz-adv-x="623" 
d="M47 389v62q16 -1 48 -1q-30 60 -30 97q0 80 66 120.5t189 40.5q125 0 199 -58t72 -150q-63 0 -173 -6q1 41 -22 68.5t-68 27.5q-42 0 -64.5 -18t-22.5 -51q0 -27 26 -72l200 2v-69q-56 2 -178 4q0 -44 -43 -77q78 -3 336 3l-3 -131q-216 8 -530 8q2 64 2 112q62 22 63 88
h-67z" />
    <glyph glyph-name="yen.titling" horiz-adv-x="602" 
d="M64 356q1 24 -2 74q34 -1 89 0q-21 42 -133 260q65 -1 176 5q45 -117 105 -248q42 95 111 265q9 -1 24.5 -2t61 -2t88.5 0q-63 -116 -140 -274q29 0 91 2l-1 -73h-125l-17 -38l144 3q0 -21 1 -71h-159q0 -6 1 -28.5t2 -41.5q-76 1 -159 -1q1 12 0 69q-51 0 -161 -2v71
q63 -1 142 0l-17 35z" />
    <glyph glyph-name="zero.titling" horiz-adv-x="614" 
d="M307 168q-128 0 -207.5 75.5t-79.5 197.5q0 128 80 197.5t207 69.5q137 0 212 -69.5t75 -195.5q0 -128 -80 -201.5t-207 -73.5zM309 295q50 0 80.5 39.5t30.5 110.5q0 64 -30 103.5t-80 39.5q-55 0 -84 -40t-29 -106q0 -62 29 -104.5t83 -42.5z" />
    <glyph glyph-name="one.titling" horiz-adv-x="371" 
d="M144 184q1 270 0 337l-95 -46l-45 131l187 93l115 -9l5 -505z" />
    <glyph glyph-name="two.titling" horiz-adv-x="551" 
d="M527 181q-156 3 -281 4.5t-172 0.5h-48l-5 149q336 76 336 193q0 32 -20 51.5t-57 19.5q-50 0 -73 -32.5t-16 -92.5l-171 1q-11 109 60 172t209 63q121 0 184.5 -47t63.5 -126q0 -83 -78.5 -141.5t-211.5 -88.5q72 0 141.5 2.5t103.5 4.5l34 3z" />
    <glyph glyph-name="three.titling" horiz-adv-x="588" 
d="M296 161q-140 0 -215 53.5t-69 155.5q97 -4 189 -7q-4 -42 22.5 -64.5t75.5 -22.5q42 0 69.5 16t27.5 44q0 36 -57 50q-53 10 -142 4q0 40 -2 96q89 -6 140 7q59 13 59 48q0 28 -24.5 44.5t-67.5 16.5q-47 0 -74 -23.5t-24 -61.5l-181 3q-5 90 67.5 139.5t209.5 49.5
q121 0 193.5 -43t72.5 -115q0 -45 -32 -74t-82 -38q55 -8 88.5 -40t33.5 -78q0 -77 -77.5 -118.5t-200.5 -41.5z" />
    <glyph glyph-name="four.titling" horiz-adv-x="582" 
d="M346 182l1 91q-148 0 -340 -3q-1 36 -1 120l249 313l251 -5q-1 -133 -1 -306q45 0 67 1q-1 -51 -1 -120h-65l1 -90zM180 391h168q1 124 1 216q-107 -134 -169 -216z" />
    <glyph glyph-name="five.titling" horiz-adv-x="581" 
d="M294 163q-121 0 -194.5 50.5t-81.5 141.5l177 1q2 -36 28.5 -57.5t70.5 -21.5q40 0 68 20t28 57q0 34 -24.5 54t-69.5 20q-67 0 -94 -44q-74 6 -171 10q5 129 6 301q182 -1 493 5q-2 -47 -2 -124q-144 1 -334 -4q-2 -50 -2 -91q57 36 154 36q106 0 164.5 -46t59.5 -121
q0 -92 -78 -139.5t-198 -47.5z" />
    <glyph glyph-name="six.titling" horiz-adv-x="610" 
d="M313 161q-136 0 -214.5 72t-78.5 198q0 131 81 204t218 73q114 0 184 -48t76 -127l-186 -5q-5 30 -26 47.5t-56 17.5q-52 0 -82 -42.5t-31 -108.5q32 31 82 48.5t101 17.5q106 0 160.5 -39.5t54.5 -114.5q0 -90 -80.5 -141.5t-202.5 -51.5zM331 411q-71 0 -121 -53
q29 -80 109 -80q43 0 68.5 20t25.5 49t-20.5 46.5t-61.5 17.5z" />
    <glyph glyph-name="seven.titling" horiz-adv-x="508" 
d="M124 180q-2 244 191 382l-308 -5l1 136l492 6l2 -150q-104 -68 -151 -159t-46 -216z" />
    <glyph glyph-name="eight.titling" horiz-adv-x="602" 
d="M310 162q-145 0 -221.5 43.5t-76.5 122.5q0 46 33 77t93 40q-51 15 -79.5 46t-28.5 73q0 65 68.5 105t204.5 40q132 0 203.5 -41t71.5 -104q0 -42 -27.5 -72.5t-78.5 -43.5q54 -12 86 -44t32 -74q0 -83 -79 -125.5t-201 -42.5zM306 270q43 0 73 17.5t30 47.5t-30.5 48.5
t-82.5 23.5q-104 -10 -104 -69q0 -31 30.5 -49.5t83.5 -18.5zM314 482q89 13 89 64q0 26 -26.5 42t-74.5 16q-50 0 -75.5 -16.5t-25.5 -39.5q0 -26 31 -43.5t82 -22.5z" />
    <glyph glyph-name="nine.titling" horiz-adv-x="601" 
d="M296 164q-119 0 -193 51t-87 144q43 -2 88 -2t68 1l24 1q5 -36 32 -56.5t71 -20.5q107 0 110 151q-57 -57 -173 -57q-102 0 -159.5 39.5t-57.5 113.5q0 86 75.5 133t199.5 47q133 0 210.5 -72t77.5 -200q0 -137 -79.5 -205t-206.5 -68zM294 459q61 0 108 47
q-23 88 -107 88q-41 0 -68 -20t-27 -49q0 -66 94 -66z" />
    <glyph glyph-name="questiondown.cap" horiz-adv-x="725" 
d="M368 -41q-159 0 -256.5 58.5t-97.5 161.5q0 99 73 152.5t196 57.5l1 61l204 2l3 -165q-134 13 -196 -10t-62 -83q0 -41 36.5 -67t94.5 -26q68 0 102 38.5t36 99.5q85 -9 214 -11q-16 -126 -106 -197.5t-242 -71.5zM380 484q-65 0 -100 29.5t-35 83.5q0 50 36.5 79
t96.5 29q69 0 103.5 -30.5t34.5 -82.5q0 -50 -37 -79t-99 -29z" />
    <glyph glyph-name="exclamdown.cap" horiz-adv-x="323" 
d="M47 -11q10 167 20 458q82 -1 183 4q3 -149 27 -464q-15 1 -39 1.5t-90.5 1.5t-100.5 -1zM160 484q-59 0 -93.5 31t-34.5 79q0 49 36.5 78t88.5 29q63 0 98.5 -29.5t35.5 -80.5q0 -47 -33.5 -77t-97.5 -30z" />
    <glyph glyph-name="parenleft.cap" horiz-adv-x="368" 
d="M184 -110q-139 223 -139 436q0 127 38.5 247t109.5 211l158 -63q-105 -184 -105 -387q0 -161 112 -383q-43 -13 -86.5 -28.5t-65.5 -24.5z" />
    <glyph glyph-name="parenright.cap" horiz-adv-x="368" 
d="M185 -116q-79 33 -176 63q112 219 112 383q0 204 -104 386q68 25 163 68q69 -91 106 -211t37 -245q0 -206 -138 -444z" />
    <glyph glyph-name="bracketleft.cap" horiz-adv-x="398" 
d="M375 -87q-18 1 -48 1.5t-118 1.5t-147 0q3 259 -4 849q145 -1 312 2q0 -63 3 -136q-59 0 -112 -3q-3 -306 0 -568q60 -2 118 -2q-4 -64 -4 -145z" />
    <glyph glyph-name="bracketright.cap" horiz-adv-x="397" 
d="M25 -85l-6 144l120 2q1 138 0.5 265.5t-1.5 217.5l-1 90l-109 2l1 138l310 -2q-4 -263 -4.5 -476t0.5 -294l1 -82q-66 0 -143.5 -1t-122.5 -3z" />
    <glyph glyph-name="braceleft.cap" horiz-adv-x="442" 
d="M423 -81q-61 -18 -120 -18q-91 0 -134.5 38.5t-43.5 127.5q0 17 2 51t2 49q0 56 -25.5 81t-90.5 20q2 87 2 166q61 -5 87 11t26 63q0 16 -4 58t-4 64q0 77 41 111.5t126 36.5q58 0 122 -16l3 -135q-53 5 -74.5 -9t-21.5 -55q0 -13 2.5 -44t2.5 -46q0 -53 -21.5 -81.5
t-75.5 -40.5q51 -12 71 -44t20 -88l-3 -81q0 -52 22.5 -69.5t82.5 -10.5z" />
    <glyph glyph-name="braceright.cap" horiz-adv-x="442" 
d="M19 -86q4 33 6 136q57 -8 82 7t25 64q0 13 -3 45.5t-3 49.5q0 105 95 127q-100 17 -100 125q0 16 3 47t3 43q0 41 -21 55t-76 10l2 137q65 13 120 13q92 0 131.5 -36t39.5 -106q0 -22 -4.5 -65t-4.5 -60q0 -48 26 -64.5t87 -11.5l2 -162q-62 4 -88.5 -19.5t-26.5 -77.5
q0 -17 3 -57t3 -60q0 -83 -43 -120.5t-134 -37.5q-59 0 -124 18z" />
    <glyph glyph-name="slash.cap" horiz-adv-x="467" 
d="M-2 -52q76 199 147 396.5t105 295.5l33 98h186q-101 -273 -172 -470.5t-91 -258.5l-21 -61h-187z" />
    <glyph glyph-name="backslash.cap" horiz-adv-x="467" 
d="M469 -49q-88 2 -186 0q-58 177 -285 790q83 -3 187 0q115 -343 284 -790z" />
    <glyph glyph-name="bar.cap" horiz-adv-x="325" 
d="M75 -56q2 377 -3 799l180 -2l-1 -795q-66 2 -176 -2z" />
    <glyph glyph-name="at.cap" horiz-adv-x="915" 
d="M594 -19q-86 -19 -165 -20.5t-153 19t-127.5 63t-86 118.5t-32.5 179q0 174 110 280t317 106q205 0 316.5 -94.5t111.5 -282.5q0 -135 -43 -192.5t-124 -57.5q-43 0 -77 20.5t-49 57.5q-61 -76 -207 -76q-95 0 -146 41t-51 105q0 66 62.5 104.5t195.5 38.5q48 0 93 -4
q-1 14 -2 24q-6 76 -86 76q-75 0 -92 -66l-162 1q8 81 77.5 126.5t191.5 45.5q117 0 178.5 -49t66.5 -131q2 -37 -4 -155q-3 -64 43 -64q28 0 41.5 31t13.5 114q0 318 -345 318q-177 0 -264 -82t-87 -236q0 -186 120 -263.5t350 -23.5q2 -23 15 -71zM544 295l1 32
q-42 5 -67 5q-61 0 -94 -20t-33 -52q0 -31 22 -47.5t61 -16.5q45 0 76 23.5t34 75.5z" />
    <glyph glyph-name="A.alt" horiz-adv-x="758" 
d="M3 0q95 290 225 679l311 4q91 -288 216 -675q-128 1 -216 -2q-10 35 -29 98q-110 2 -271 2l-29 -108zM373 568q-36 -117 -94 -320q41 -1 189 -1q-48 166 -95 321z" />
    <glyph glyph-name="B.alt" horiz-adv-x="754" 
d="M62 -3q-1 324 -8 689q169 20 283 20q368 0 368 -198q0 -58 -40.5 -101t-116.5 -57q95 -16 142 -60t47 -98q0 -105 -94 -157.5t-312 -52.5q-115 0 -269 15zM251 109q59 -6 102 -6q175 0 173 95q0 36 -42.5 61.5t-132.5 25.5q-48 0 -103 -7zM247 563v-154q46 -5 97 -5
q157 0 157 84q0 81 -157 81q-41 0 -97 -6z" />
    <glyph glyph-name="C.alt" horiz-adv-x="806" 
d="M419 -15q-170 0 -279 90t-109 264q0 154 98 253.5t284 99.5q157 0 252 -75.5t114 -202.5l-222 -9q-8 59 -46.5 93t-102.5 34q-79 0 -119.5 -54t-40.5 -136q0 -89 44.5 -141t121.5 -52q63 0 104 33t50 95q65 -3 121 -3.5t79 0.5l24 1q-10 -132 -108.5 -211t-264.5 -79z
" />
    <glyph glyph-name="D.alt" horiz-adv-x="795" 
d="M259 143q32 -2 46 -2q121 0 182 47t61 151q0 89 -58.5 139t-178.5 50q-28 0 -58 -3zM55 2q2 223 1.5 370.5t-1.5 220.5l-1 73q119 16 225 16q485 0 485 -341q0 -176 -132.5 -261.5t-397.5 -85.5q-77 0 -179 8z" />
    <glyph glyph-name="E.alt" horiz-adv-x="661" 
d="M62 11q-1 268 -8 672l570 5q0 -48 2 -150q-129 2 -371 -3q0 -55 1 -150q197 0 305 1q-2 -33 1 -133l-303 1l3 -96q137 -1 370 1q-1 -53 -1 -153q-267 5 -569 5z" />
    <glyph glyph-name="F.alt" horiz-adv-x="623" 
d="M62 17q-1 262 -8 664q267 -1 549 3q1 -71 4 -171q-185 3 -351 -1q0 -49 1 -168q105 0 281 2q-1 -51 1 -158q-111 1 -279 0l3 -170z" />
    <glyph glyph-name="G.alt" horiz-adv-x="821" 
d="M421 -23q-170 0 -280 97t-110 268q0 158 104 258t283 100q147 0 243 -65.5t116 -184.5q-98 -1 -215 -9q-26 102 -149 102q-83 0 -127 -55t-44 -142q0 -97 51.5 -151.5t143.5 -54.5q53 0 92.5 21.5t58.5 59.5q-54 0 -190 -3q2 39 0 136q134 -3 404 -3q4 -181 -99.5 -277.5
t-281.5 -96.5z" />
    <glyph glyph-name="H.alt" horiz-adv-x="757" 
d="M501 0v190q-48 2 -244 -1l3 -198q-103 1 -202 -1q0 315 -4 711q97 0 199 1q0 -144 2 -343q76 -3 245 -2l-3 337q96 -1 203 1q0 -288 3 -696z" />
    <glyph glyph-name="I.alt" horiz-adv-x="332" 
d="M66 17q0 271 -4 659q73 0 203 1q2 -299 5 -660q-97 1 -204 0z" />
    <glyph glyph-name="J.alt" horiz-adv-x="676" 
d="M317 -15q-145 0 -223 70t-80 198q-2 74 12 131q49 -5 192 -13q-5 -37 -5 -84q0 -134 107 -134q62 0 90 66t28 203q0 129 -23 283q58 -1 202 8q25 -140 25 -300q0 -213 -83.5 -320.5t-241.5 -107.5z" />
    <glyph glyph-name="K.alt" horiz-adv-x="755" 
d="M519 -18q-133 236 -158 279q-58 -67 -109 -132l2 -131l-200 -1v698l198 -1q-1 -124 -1 -324q77 97 142 182t92 121l27 36l220 -18q-127 -158 -223 -282q55 -102 111.5 -203t85.5 -150l28 -50q-67 -5 -121 -11t-74 -9z" />
    <glyph glyph-name="L.alt" horiz-adv-x="602" 
d="M60 18q-1 342 -6 659q62 -2 202 0q-2 -95 4 -494l330 3l-1 -166z" />
    <glyph glyph-name="M.alt" horiz-adv-x="979" 
d="M43 -3q16 305 29 692q138 3 286 12q56 -195 129 -452q65 201 137 458q122 -5 273 -5q15 -277 39 -696q-105 1 -205 -1q1 221 -4 534q-81 -250 -140 -456q-94 -2 -206 0q-62 242 -136 476q-3 -278 2 -565q-100 2 -204 3z" />
    <glyph glyph-name="N.alt" horiz-adv-x="760" 
d="M57 -7q2 292 -3 698q96 4 195 7q106 -180 258 -420q0 171 -10 431q100 0 198 -1q-1 -251 11 -693q-77 -4 -202 -13q-105 169 -258 404q0 -204 6 -415q-96 2 -195 2z" />
    <glyph glyph-name="O.alt" horiz-adv-x="835" 
d="M414 698q175 0 280.5 -91.5t106.5 -259.5q3 -173 -102.5 -268t-284.5 -95q-180 0 -283.5 98t-102.5 264q0 170 107 261.5t279 90.5zM415 537q-76 0 -122.5 -48.5t-46.5 -142.5q0 -90 42 -145t127 -55q81 0 125 57t44 144q0 85 -45.5 137.5t-123.5 52.5z" />
    <glyph glyph-name="P.alt" horiz-adv-x="721" 
d="M56 -22q3 264 0 682q134 16 247 16q409 0 409 -254q0 -138 -97 -197.5t-281 -59.5q-24 0 -76 2l4 -188q-124 1 -206 -1zM255 520q0 -112 1 -207q39 -4 82 -4q177 0 177 114q0 101 -175 101q-42 0 -85 -4z" />
    <glyph glyph-name="Q.alt" horiz-adv-x="836" 
d="M577 -175q-34 80 -76 173q-47 -7 -84 -7q-188 0 -287 101t-99 261q0 163 106.5 255.5t281.5 92.5q168 0 277 -90t109 -258q0 -199 -143 -295q29 -34 58 -65.5t44 -46.5l14 -15zM417 541q-75 0 -121.5 -49.5t-46.5 -144.5q0 -92 44.5 -143t125.5 -51t124.5 56.5
t43.5 138.5q0 87 -44.5 140t-125.5 53z" />
    <glyph glyph-name="R.alt" horiz-adv-x="731" 
d="M512 -29q-49 91 -128 230q-58 -3 -133 2q0 -102 3 -220q-117 1 -198 -1q3 267 0 687q151 25 276 25q184 0 284 -61.5t99 -181.5q0 -152 -141 -212q36 -63 143 -233q-86 -17 -205 -35zM249 351q39 -5 84 -5q93 0 140.5 26.5t47.5 72.5q0 51 -40.5 75.5t-134.5 24.5
q-42 0 -99 -6z" />
    <glyph glyph-name="S.alt" horiz-adv-x="748" 
d="M381 -17q-163 0 -257.5 66t-104.5 188q79 -1 217 6q2 -53 44 -81t113 -28q51 0 80.5 16.5t29.5 46.5q0 23 -15 37t-57.5 25t-124.5 20q-141 15 -208 61.5t-67 142.5q0 100 86 159t234 59q163 1 256 -65.5t106 -189.5q-75 3 -208 3q-1 48 -41 76.5t-111 28.5
q-49 0 -75 -19t-26 -49q0 -31 41.5 -49t157.5 -32q154 -18 216.5 -64t62.5 -128q0 -114 -95 -172t-254 -58z" />
    <glyph glyph-name="T.alt" horiz-adv-x="642" 
d="M13 503q0 82 -1 178q411 -1 618 1q-1 -93 -1 -177h-205q4 -391 5 -496q-99 0 -207 -1q0 183 -2 496q-47 0 -118 -0.5t-89 -0.5z" />
    <glyph glyph-name="U.alt" horiz-adv-x="751" 
d="M377 -14q-171 0 -257 107t-86 314q0 145 25 283q71 -8 203 -18q-23 -119 -23 -246q0 -132 33 -196t102 -64q136 0 136 237q0 120 -19 285q64 2 203 9q23 -158 23 -284q0 -427 -340 -427z" />
    <glyph glyph-name="V.alt" horiz-adv-x="748" 
d="M227 0q-56 176 -112 346t-84 252l-28 82l223 2q66 -239 155 -525l154 533l210 -3l-214 -684q-137 2 -304 -3z" />
    <glyph glyph-name="W.alt" horiz-adv-x="989" 
d="M586 -1q-67 367 -95 509l-94 -510l-299 -1q-31 293 -83 703l192 3q28 -277 62 -570q35 162 59.5 283.5t31.5 161.5l7 41l250 -1q20 -95 104 -478l66 557l188 -3q-34 -259 -56 -434t-27 -220l-5 -46z" />
    <glyph glyph-name="X.alt" horiz-adv-x="781" 
d="M253 -7l-247 5q130 190 221 334q-106 186 -209 355l236 8q46 -95 135 -261q46 80 82 145t49 91l14 25l232 -7l-215 -347q66 -110 122 -198t79 -121l23 -32l-247 -7l-141 251z" />
    <glyph glyph-name="Y.alt" horiz-adv-x="750" 
d="M275 -30q-2 107 -7 174q-95 209 -265 546q68 -1 229 5q35 -104 140 -349q50 103 152 355q64 -3 223 -4q-106 -212 -271 -552q-3 -38 1 -174z" />
    <glyph glyph-name="Z.alt" horiz-adv-x="672" 
d="M634 11l-598 5l1 141l344 359l-335 -4l-1 172q182 -1 311.5 0t200.5 2l71 1l2 -147q-167 -174 -348 -358l354 1z" />
    <glyph glyph-name="a.alt" horiz-adv-x="671" 
d="M247 -32q-105 0 -165.5 45t-60.5 120q0 191 399 182q-5 38 -28.5 59.5t-63.5 21.5q-43 0 -68.5 -17.5t-31.5 -46.5q-70 9 -188 17q18 79 94 127.5t194 48.5q155 0 226.5 -63.5t75.5 -194.5q2 -64 2 -139.5t-1 -119.5l-1 -44q-74 1 -173 -1q2 31 4 87q-34 -40 -91.5 -61
t-122.5 -21zM305 82q51 0 87.5 36t36.5 107q-204 0 -204 -81q0 -28 22 -44.5t58 -17.5z" />
    <glyph glyph-name="b.alt" horiz-adv-x="720" 
d="M47 6q1 216 -2 693l204 -1q-4 -111 -6 -264q70 78 186 78q118 0 188.5 -74t70.5 -188q0 -119 -77 -190.5t-201 -71.5q-127 0 -192 83l5 -65q-109 2 -176 0zM357 107q58 0 92 40t34 108q0 54 -33 93.5t-93 39.5q-56 0 -90 -39t-34 -96q0 -64 36 -105t88 -41z" />
    <glyph glyph-name="c.alt" horiz-adv-x="681" 
d="M356 -19q-149 0 -237 68t-87 201q0 115 80 188.5t230 73.5q134 0 218.5 -56.5t97.5 -159.5l-213 -6q-5 39 -32 61.5t-69 22.5q-49 0 -80.5 -34.5t-31.5 -90.5q0 -55 31 -90t83 -35q38 0 65 20.5t34 59.5q75 -3 220 -8q-25 -104 -109 -159.5t-200 -55.5z" />
    <glyph glyph-name="d.alt" horiz-adv-x="723" 
d="M675 -9l-179 2q2 21 5 63q-66 -71 -194 -71q-122 0 -198.5 69t-76.5 190t70.5 193.5t199.5 72.5q104 0 174 -63l-5 254q40 -1 204 1q-2 -326 0 -711zM362 107q59 0 93 39t34 101q-2 59 -35 100t-93 41q-57 0 -90 -40.5t-33 -100.5q0 -65 34 -102.5t90 -37.5z" />
    <glyph glyph-name="e.alt" horiz-adv-x="714" 
d="M368 -13q-165 0 -251 70.5t-85 198.5q0 120 88.5 190.5t234.5 70.5q179 -1 258.5 -87t73.5 -236q-135 1 -441 -3q24 -79 117 -79q39 0 68 13t40 35q52 -5 208 -15q-85 -158 -311 -158zM364 389q-112 0 -125 -105q65 0 242 6q-2 40 -31 69.5t-86 29.5z" />
    <glyph glyph-name="f.alt" horiz-adv-x="530" 
d="M499 291q-57 1 -177 1l3 -273q-88 2 -200 -1q-4 134 -4 274l-94 -1q0 44 -1 152q35 -1 96 -2v17q0 109 56 170.5t191 61.5q67 0 153 -16q-3 -56 -7 -144q-40 5 -81 5q-62 0 -85 -21.5t-23 -64.5v-11q53 -1 174 -1z" />
    <glyph glyph-name="g.alt" horiz-adv-x="648" 
d="M308 -293q-136 0 -216 33t-80 98q0 39 32 66.5t93 38.5q-38 11 -60 34t-22 53q0 72 99 105q-128 53 -128 175q1 103 82.5 156t213.5 53q20 0 54 -2q14 95 26 204q91 -30 213 -67q-47 -70 -105 -169q118 -54 118 -182q0 -92 -82.5 -145t-213.5 -53q-43 0 -75 4
q-8 -11 -8 -25q0 -17 30.5 -24t119.5 -9q145 -4 203 -42t58 -107q0 -90 -101 -142.5t-251 -52.5zM324 216q45 0 73 23.5t28 63.5q0 36 -27 59.5t-74 23.5q-46 0 -73 -23t-27 -61t27.5 -62t72.5 -24zM467 -139q0 17 -15 26t-58.5 13.5t-132.5 6.5q-38 -20 -38 -48
q0 -46 125 -45q57 0 88 15t31 32z" />
    <glyph glyph-name="h.alt" horiz-adv-x="683" 
d="M46 -10q4 334 0 710q73 0 203 1l-1 -261q28 40 77.5 64t112.5 24q94 0 147 -55t57 -153q2 -80 2.5 -158.5t-0.5 -117.5l-1 -38l-198 1q1 11 1.5 31.5t1 86t-1.5 127.5q-3 111 -80 111q-55 0 -84.5 -44t-31.5 -108q-2 -37 -2 -92t1 -91l1 -37q-91 2 -204 -1z" />
    <glyph glyph-name="i.alt" horiz-adv-x="315" 
d="M59 15q1 101 -3 467q79 0 200 2q1 -264 4 -468q-88 1 -201 -1zM160 529q-127 0 -127 94q0 41 31 65.5t93 24.5t93.5 -24t31.5 -66q0 -94 -122 -94z" />
    <glyph glyph-name="j.alt" horiz-adv-x="315" 
d="M163 527q-129 0 -129 96q0 40 32 66t93 26q60 0 91 -25.5t31 -66.5q0 -48 -31 -72t-87 -24zM-72 -211q5 36 5 142q36 -4 48 -4q41 0 59.5 20.5t19.5 67.5q1 112 1 215t-1 176l-1 73q69 -2 113 -1.5t64 1.5l20 1q1 -19 1.5 -55.5t1.5 -162.5t0 -264q0 -220 -220 -220
q-48 0 -111 11z" />
    <glyph glyph-name="k.alt" horiz-adv-x="656" 
d="M444 -28q-57 122 -120 240q-49 -56 -78 -92l1 -122h-201q2 228 2.5 403t-0.5 236l-1 61l201 -2q-2 -176 -2 -392q51 67 89 121.5t51 76.5l13 21l237 -5q-117 -131 -166 -191l183 -334q-72 -5 -124.5 -10t-68.5 -8z" />
    <glyph glyph-name="l.alt" horiz-adv-x="306" 
d="M253 -14l-201 1l2 724l201 -2q-2 -253 -2.5 -434t-0.5 -235z" />
    <glyph glyph-name="m.alt" horiz-adv-x="1056" 
d="M48 1q2 198 -3 477l158 -1q-2 -29 -2 -70q31 53 89 84t130 31q148 0 189 -129q35 42 88 66.5t113 24.5q107 0 153 -59.5t51 -162.5q3 -56 3 -119.5t-1 -99.5l-2 -36l-197 1q6 80 -1 203q-5 106 -78 106q-48 0 -76 -41t-30 -104v-182q-88 1 -200 -1q1 16 2 42t2.5 102
t-2.5 123q-5 99 -74 99q-44 0 -77 -42.5t-34 -110.5q-2 -41 -2.5 -91t0.5 -79l1 -30q-75 1 -200 -1z" />
    <glyph glyph-name="n.alt" horiz-adv-x="681" 
d="M443 5q1 10 1.5 29t1 82t-1.5 125q-2 111 -81 111q-51 0 -82 -41.5t-33 -107.5q-2 -30 -2 -83t1 -90l1 -38q-126 2 -203 0l1 491q96 -2 159 1q-2 -42 -2 -90q30 58 88.5 91.5t138.5 32.5q99 -1 152.5 -58.5t57.5 -161.5l3 -292z" />
    <glyph glyph-name="o.alt" 
d="M363 510q70 0 128 -15t104 -46t71.5 -84.5t25.5 -124.5q1 -120 -90 -186.5t-236 -66.5q-153 0 -244 71.5t-90 187.5q0 125 89 194.5t242 69.5zM361 375q-55 0 -89 -35t-34 -97q0 -55 33 -89.5t89 -34.5q57 0 91.5 32.5t34.5 87.5q0 64 -32.5 100t-92.5 36z" />
    <glyph glyph-name="p.alt" horiz-adv-x="731" 
d="M45 -239v772l185 1q-1 -47 -1 -96q71 73 205 73q119 0 192 -79t73 -182q1 -118 -76 -191t-203 -73q-114 0 -177 60l11 -284zM373 105q57 0 89 38.5t32 108.5q0 59 -32.5 97.5t-91.5 38.5t-92.5 -39.5t-33.5 -101.5q0 -67 36 -104.5t93 -37.5z" />
    <glyph glyph-name="q.alt" horiz-adv-x="731" 
d="M475 -233q10 202 11 279q-59 -66 -183 -66t-197.5 75.5t-73.5 190.5q0 114 75 190.5t188 76.5q62 0 117 -22t87 -58l-3 94h187q-2 -198 -2 -388t1 -281l1 -90zM360 102q59 0 93.5 37.5t34.5 105.5q0 63 -33.5 101.5t-93.5 38.5q-58 0 -91 -39.5t-33 -98.5
q0 -67 31.5 -106t91.5 -39z" />
    <glyph glyph-name="r.alt" horiz-adv-x="492" 
d="M46 12q1 232 -1 473q68 0 164 1q-1 -29 -1 -71q35 62 103.5 96.5t163.5 23.5q-3 -77 -4 -177q-130 0 -176.5 -49.5t-48.5 -169.5l2 -126q-80 0 -202 -1z" />
    <glyph glyph-name="s.alt" horiz-adv-x="628" 
d="M330 -23q-132 0 -217 47.5t-96 144.5q64 1 190 7q11 -70 122 -70q39 0 62 12t23 31q0 21 -30.5 31.5t-117.5 17.5q-120 9 -177.5 48.5t-57.5 116.5q0 71 69.5 117t199.5 46q138 0 217 -49.5t91 -131.5q-56 -2 -185 -11q-15 62 -113 62q-78 0 -78 -39q0 -22 31 -33.5
t116 -17.5q132 -9 183 -46t51 -101q0 -81 -74.5 -131.5t-208.5 -50.5z" />
    <glyph glyph-name="t.alt" horiz-adv-x="535" 
d="M511 3q-102 -22 -175 -22q-112 0 -171.5 56.5t-62.5 181.5q-2 94 -2 151l-91 -1l-1 148l93 -2l3 135l199 1q-2 -58 -3 -137h202l-1 -147q-140 2 -202 2q0 -67 3 -127q2 -49 24.5 -71.5t75.5 -22.5q38 0 95 12z" />
    <glyph glyph-name="u.alt" horiz-adv-x="682" 
d="M280 13q-128 0 -184.5 77t-56.5 238q0 110 11 195q46 -6 190 -14q-7 -66 -7 -153q0 -98 23.5 -143.5t74.5 -45.5q93 0 100 129q4 47 4.5 103.5t-0.5 89.5l-1 33q44 -2 198 -2q-3 -197 1 -515l-171 1q2 33 2 84q-64 -77 -184 -77z" />
    <glyph glyph-name="v.alt" horiz-adv-x="648" 
d="M462 27q-84 1 -140.5 0.5t-85.5 -1.5l-30 -1l-206 486l207 9q35 -110 65 -199t43 -123l13 -35l117 363l203 -5q-56 -155 -102.5 -278.5t-65.5 -169.5z" />
    <glyph glyph-name="w.alt" horiz-adv-x="914" 
d="M547 7q-33 108 -56.5 181t-30.5 92l-7 18l-86 -300q-84 2 -146 2.5t-83 -0.5h-20l-115 515q61 -1 108.5 0t64.5 3l18 1l68 -372l102 333h176l116 -305l67 343l188 -3l-119 -509z" />
    <glyph glyph-name="x.alt" horiz-adv-x="704" 
d="M691 515q-45 -63 -84 -120t-66.5 -97.5t-33.5 -48.5l182 -264q-68 0 -124.5 -1.5t-78.5 -3.5l-22 -1l-117 195q-34 -55 -62 -101.5t-39 -65.5l-10 -19l-230 4q97 134 184 265l-180 254l229 5q71 -127 115 -200l121 210z" />
    <glyph glyph-name="y.alt" horiz-adv-x="642" 
d="M375 -269l-207 32l71 191q-60 144 -119.5 281.5t-88.5 202.5l-29 66q64 2 117 5t75 5l21 2q30 -97 60 -187.5t45 -132.5l15 -42q35 108 62.5 199.5t36.5 128.5l10 38l196 -9q-91 -260 -157 -455t-87 -260z" />
    <glyph glyph-name="z.alt" horiz-adv-x="607" 
d="M573 6q-194 4 -329 6t-174 2h-38l2 118l293 229q-100 -1 -171 -3.5t-92 -3.5l-22 -2l-2 147q166 -1 298 0t180 3l49 1l1 -122q-95 -72 -167.5 -129t-97.5 -78l-25 -21q83 0 157 1.5t107 3.5l33 1z" />
    <glyph glyph-name="dotlessi.alt" horiz-adv-x="315" 
d="M59 15q1 101 -3 467q79 0 200 2q1 -264 4 -468q-88 1 -201 -1z" />
    <glyph glyph-name="Aacute.alt" horiz-adv-x="758" 
d="M397 729l-90 55q44 52 76 91.5t42 52.5l10 14l112 -70q-53 -49 -90.5 -85t-48.5 -47zM3 0q95 290 225 679l311 4q91 -288 216 -675q-128 1 -216 -2q-10 35 -29 98q-110 2 -271 2l-29 -108zM373 568q-36 -117 -94 -320q41 -1 189 -1q-48 166 -95 321z" />
    <glyph glyph-name="Abreve.alt" horiz-adv-x="758" 
d="M3 0q95 290 225 679l311 4q91 -288 216 -675q-128 1 -216 -2q-10 35 -29 98q-110 2 -271 2l-29 -108zM373 568q-36 -117 -94 -320q41 -1 189 -1q-48 166 -95 321zM378 747q-91 0 -138.5 39t-44.5 107q46 0 117 5q0 -30 17 -47.5t50 -17.5q31 0 48.5 19t13.5 57
q40 -1 120 1q6 -82 -45 -122.5t-138 -40.5z" />
    <glyph glyph-name="Acircumflex.alt" horiz-adv-x="758" 
d="M249 729q-21 25 -65 73q56 40 137 109q37 -1 114 2q45 -41 137 -111q-18 -17 -64 -72q-47 36 -131 94q-41 -24 -128 -95zM3 0q95 290 225 679l311 4q91 -288 216 -675q-128 1 -216 -2q-10 35 -29 98q-110 2 -271 2l-29 -108zM373 568q-36 -117 -94 -320q41 -1 189 -1
q-48 166 -95 321z" />
    <glyph glyph-name="Adieresis.alt" horiz-adv-x="758" 
d="M269 748q-42 0 -64 21.5t-22 54.5q0 30 25 49.5t62 19.5q38 0 61.5 -19.5t23.5 -52.5q0 -37 -24.5 -55t-61.5 -18zM492 750q-37 0 -59.5 20.5t-22.5 54.5q0 30 22.5 49.5t61.5 19.5q40 0 60.5 -20t20.5 -52q0 -35 -24 -53.5t-59 -18.5zM3 0q95 290 225 679l311 4
q91 -288 216 -675q-128 1 -216 -2q-10 35 -29 98q-110 2 -271 2l-29 -108zM373 568q-36 -117 -94 -320q41 -1 189 -1q-48 166 -95 321z" />
    <glyph glyph-name="Agrave.alt" horiz-adv-x="758" 
d="M3 0q95 290 225 679l311 4q91 -288 216 -675q-128 1 -216 -2q-10 35 -29 98q-110 2 -271 2l-29 -108zM373 568q-36 -117 -94 -320q41 -1 189 -1q-48 166 -95 321zM371 729q-30 32 -150 143q17 8 110 71q31 -43 130 -159q-29 -15 -90 -55z" />
    <glyph glyph-name="Amacron.alt" horiz-adv-x="758" 
d="M3 0q95 290 225 679l311 4q91 -288 216 -675q-128 1 -216 -2q-10 35 -29 98q-110 2 -271 2l-29 -108zM373 568q-36 -117 -94 -320q41 -1 189 -1q-48 166 -95 321zM214 769q1 30 -1 101q86 -1 332 2l-1 -101q-100 2 -330 -2z" />
    <glyph glyph-name="Aogonek.alt" horiz-adv-x="758" 
d="M626 -204q-91 -12 -139.5 14.5t-48.5 76.5q-1 36 25.5 71.5t72.5 56.5l-26 89q-110 2 -271 2l-29 -108l-207 2q95 290 225 679l311 4q91 -288 216 -675q-72 1 -144 0q-59 -35 -59 -75q0 -22 21.5 -34t60.5 -8q-5 -33 -8 -95zM373 568q-36 -117 -94 -320q41 -1 189 -1
q-48 166 -95 321z" />
    <glyph glyph-name="Aring.alt" horiz-adv-x="758" 
d="M371 736q-64 0 -99.5 30t-35.5 76q0 50 38 77.5t98 27.5q66 0 102 -30t36 -75q0 -53 -39 -79.5t-100 -26.5zM375 794q25 0 40.5 13.5t15.5 34.5q0 20 -14 35t-42 15q-27 0 -42.5 -13t-15.5 -35t14.5 -36t43.5 -14zM3 0q95 290 225 679l311 4q91 -288 216 -675
q-128 1 -216 -2q-10 35 -29 98q-110 2 -271 2l-29 -108zM373 568q-36 -117 -94 -320q41 -1 189 -1q-48 166 -95 321z" />
    <glyph glyph-name="Atilde.alt" horiz-adv-x="758" 
d="M3 0q95 290 225 679l311 4q91 -288 216 -675q-128 1 -216 -2q-10 35 -29 98q-110 2 -271 2l-29 -108zM373 568q-36 -117 -94 -320q41 -1 189 -1q-48 166 -95 321zM283 742q-37 2 -99 -2q-5 73 24 121.5t90 48.5q38 0 86.5 -28.5t66.5 -28.5q27 0 21 54q35 1 96 6
q14 -77 -12 -123.5t-84 -46.5q-43 0 -94 27t-65 27q-34 0 -30 -55z" />
    <glyph glyph-name="Cacute.alt" horiz-adv-x="805" 
d="M419 -15q-170 0 -279 90t-109 264q0 154 98 253.5t284 99.5q157 0 252 -75.5t114 -202.5l-222 -9q-8 59 -46.5 93t-102.5 34q-79 0 -119.5 -54t-40.5 -136q0 -89 44.5 -141t121.5 -52q63 0 104 33t50 95q65 -3 121 -3.5t79 0.5l24 1q-10 -132 -108.5 -211t-264.5 -79z
M427 734l-90 55q44 52 76 91.5t42 53.5l10 13l112 -70q-53 -49 -90.5 -85t-48.5 -47z" />
    <glyph glyph-name="Ccaron.alt" horiz-adv-x="805" 
d="M351 738q-44 41 -137 111q19 17 65 73q46 -37 130 -95q41 24 129 95l64 -73q-55 -39 -136 -108q-37 1 -115 -3zM419 -15q-170 0 -279 90t-109 264q0 154 98 253.5t284 99.5q157 0 252 -75.5t114 -202.5l-222 -9q-8 59 -46.5 93t-102.5 34q-79 0 -119.5 -54t-40.5 -136
q0 -89 44.5 -141t121.5 -52q63 0 104 33t50 95q65 -3 121 -3.5t79 0.5l24 1q-10 -132 -108.5 -211t-264.5 -79z" />
    <glyph glyph-name="Ccedilla.alt" horiz-adv-x="805" 
d="M792 275q-9 -122 -95.5 -200t-233.5 -88v-43q64 0 97 -22t33 -59q0 -43 -46 -68.5t-132 -25.5q-63 0 -119 25q7 28 13 65q46 -23 88 -23q57 0 57 31q0 37 -91 28q8 37 17 92q-155 10 -252 99t-97 253q0 154 98 253.5t284 99.5q157 0 252 -75.5t114 -202.5l-222 -9
q-8 59 -46.5 93t-102.5 34q-79 0 -119.5 -54t-40.5 -136q0 -89 44.5 -141t121.5 -52q63 0 104 33t50 95q65 -3 121 -3.5t79 0.5z" />
    <glyph glyph-name="Ccircumflex.alt" horiz-adv-x="805" 
d="M279 730q-21 25 -65 73q56 40 137 109q37 -1 114 2q45 -41 137 -111q-18 -17 -64 -72q-47 36 -131 94q-41 -24 -128 -95zM419 -15q-170 0 -279 90t-109 264q0 154 98 253.5t284 99.5q157 0 252 -75.5t114 -202.5l-222 -9q-8 59 -46.5 93t-102.5 34q-79 0 -119.5 -54
t-40.5 -136q0 -89 44.5 -141t121.5 -52q63 0 104 33t50 95q65 -3 121 -3.5t79 0.5l24 1q-10 -132 -108.5 -211t-264.5 -79z" />
    <glyph glyph-name="Dcaron.alt" horiz-adv-x="794" 
d="M296 733q-44 41 -137 111q19 17 65 73q46 -37 130 -95q41 24 129 95l64 -73q-55 -39 -136 -108q-37 1 -115 -3zM259 143q32 -2 46 -2q121 0 182 47t61 151q0 89 -58.5 139t-178.5 50q-28 0 -58 -3zM55 2q2 223 1.5 370.5t-1.5 220.5l-1 73q119 16 225 16q485 0 485 -341
q0 -176 -132.5 -261.5t-397.5 -85.5q-77 0 -179 8z" />
    <glyph glyph-name="Eacute.alt" horiz-adv-x="663" 
d="M372 733l-90 55q44 52 76 91.5t42 52.5l10 14l112 -70q-53 -49 -90.5 -85t-48.5 -47zM62 11q-1 268 -8 672l570 5q0 -48 2 -150q-129 2 -371 -3q0 -55 1 -150q197 0 305 1q-2 -33 1 -133l-303 1l3 -96q137 -1 370 1q-1 -53 -1 -153q-267 5 -569 5z" />
    <glyph glyph-name="Ecaron.alt" horiz-adv-x="663" 
d="M299 741q-44 41 -137 111q19 17 65 73q46 -37 130 -95q41 24 129 95l64 -73q-55 -39 -136 -108q-37 1 -115 -3zM62 11q-1 268 -8 672l570 5q0 -48 2 -150q-129 2 -371 -3q0 -55 1 -150q197 0 305 1q-2 -33 1 -133l-303 1l3 -96q137 -1 370 1q-1 -53 -1 -153
q-267 5 -569 5z" />
    <glyph glyph-name="Ecircumflex.alt" horiz-adv-x="663" 
d="M227 734q-21 25 -65 73q56 40 137 109q37 -1 114 2q45 -41 137 -111q-18 -17 -64 -72q-47 36 -131 94q-41 -24 -128 -95zM62 11q-1 268 -8 672l570 5q0 -48 2 -150q-129 2 -371 -3q0 -55 1 -150q197 0 305 1q-2 -33 1 -133l-303 1l3 -96q137 -1 370 1q-1 -53 -1 -153
q-267 5 -569 5z" />
    <glyph glyph-name="Edieresis.alt" horiz-adv-x="663" 
d="M246 755q-42 0 -64 21.5t-22 54.5q0 30 25 49.5t62 19.5q38 0 61.5 -19.5t23.5 -52.5q0 -37 -24.5 -55t-61.5 -18zM469 757q-37 0 -59.5 20.5t-22.5 54.5q0 30 22.5 49.5t61.5 19.5q40 0 60.5 -20t20.5 -52q0 -35 -24 -53.5t-59 -18.5zM62 11q-1 268 -8 672l570 5
q0 -48 2 -150q-129 2 -371 -3q0 -55 1 -150q197 0 305 1q-2 -33 1 -133l-303 1l3 -96q137 -1 370 1q-1 -53 -1 -153q-267 5 -569 5z" />
    <glyph glyph-name="Edotaccent.alt" horiz-adv-x="663" 
d="M356 752q-48 0 -74 26t-26 65q0 36 27 59.5t73 23.5q48 0 74 -25.5t26 -60.5q0 -41 -27.5 -64.5t-72.5 -23.5zM62 11q-1 268 -8 672l570 5q0 -48 2 -150q-129 2 -371 -3q0 -55 1 -150q197 0 305 1q-2 -33 1 -133l-303 1l3 -96q137 -1 370 1q-1 -53 -1 -153q-267 5 -569 5
z" />
    <glyph glyph-name="Egrave.alt" horiz-adv-x="663" 
d="M348 733q-30 32 -150 143q17 8 110 71q31 -43 130 -159q-29 -15 -90 -55zM62 11q-1 268 -8 672l570 5q0 -48 2 -150q-129 2 -371 -3q0 -55 1 -150q197 0 305 1q-2 -33 1 -133l-303 1l3 -96q137 -1 370 1q-1 -53 -1 -153q-267 5 -569 5z" />
    <glyph glyph-name="Emacron.alt" horiz-adv-x="663" 
d="M191 776q1 30 -1 101q86 -1 332 2l-1 -101q-100 2 -330 -2zM62 11q-1 268 -8 672l570 5q0 -48 2 -150q-129 2 -371 -3q0 -55 1 -150q197 0 305 1q-2 -33 1 -133l-303 1l3 -96q137 -1 370 1q-1 -53 -1 -153q-267 5 -569 5z" />
    <glyph glyph-name="Eogonek.alt" horiz-adv-x="663" 
d="M626 -216q-91 -12 -139 14.5t-49 76.5q-1 37 27.5 73.5t79.5 59.5q-184 2 -483 2q-1 270 -8 673l570 5q-1 -49 1 -150q-128 2 -370 -3q0 -55 2 -150q195 0 303 1q-1 -33 1 -132q-141 1 -302 1l3 -97q139 -1 371 1q-1 -53 -1 -152q-80 -40 -80 -86q0 -22 21.5 -34t60.5 -8
q-5 -33 -8 -95z" />
    <glyph glyph-name="Gbreve.alt" horiz-adv-x="821" 
d="M421 -23q-170 0 -280 97t-110 268q0 158 104 258t283 100q147 0 243 -65.5t116 -184.5q-98 -1 -215 -9q-26 102 -149 102q-83 0 -127 -55t-44 -142q0 -97 51.5 -151.5t143.5 -54.5q53 0 92.5 21.5t58.5 59.5q-54 0 -190 -3q2 39 0 136q134 -3 404 -3q4 -181 -99.5 -277.5
t-281.5 -96.5zM416 742q-91 0 -138.5 39t-44.5 107q46 0 117 5q0 -30 17 -47.5t50 -17.5q31 0 48.5 19t13.5 57q40 -1 120 1q6 -82 -45 -122.5t-138 -40.5z" />
    <glyph glyph-name="Gcircumflex.alt" horiz-adv-x="821" 
d="M287 729q-21 25 -65 73q56 40 137 109q37 -1 114 2q45 -41 137 -111q-18 -17 -64 -72q-47 36 -131 94q-41 -24 -128 -95zM421 -23q-170 0 -280 97t-110 268q0 158 104 258t283 100q147 0 243 -65.5t116 -184.5q-98 -1 -215 -9q-26 102 -149 102q-83 0 -127 -55t-44 -142
q0 -97 51.5 -151.5t143.5 -54.5q53 0 92.5 21.5t58.5 59.5q-54 0 -190 -3q2 39 0 136q134 -3 404 -3q4 -181 -99.5 -277.5t-281.5 -96.5z" />
    <glyph glyph-name="Gcommaaccent.alt" horiz-adv-x="821" 
d="M494 -136q0 -38 -29 -76t-82 -67l-37 42q31 25 45 48q-24 6 -38 23.5t-14 38.5q0 28 22 48t56 20q37 0 57 -21t20 -56zM421 -23q-170 0 -280 97t-110 268q0 158 104 258t283 100q147 0 243 -65.5t116 -184.5q-98 -1 -215 -9q-26 102 -149 102q-83 0 -127 -55t-44 -142
q0 -97 51.5 -151.5t143.5 -54.5q53 0 92.5 21.5t58.5 59.5q-54 0 -190 -3q2 39 0 136q134 -3 404 -3q4 -181 -99.5 -277.5t-281.5 -96.5z" />
    <glyph glyph-name="Hcircumflex.alt" horiz-adv-x="757" 
d="M249 745q-21 25 -65 73q56 40 137 109q37 -1 114 2q45 -41 137 -111q-18 -17 -64 -72q-47 36 -131 94q-41 -24 -128 -95zM501 0v190q-48 2 -244 -1l3 -198q-103 1 -202 -1q0 315 -4 711q97 0 199 1q0 -144 2 -343q76 -3 245 -2l-3 337q96 -1 203 1q0 -288 3 -696z" />
    <glyph glyph-name="Iacute.alt" horiz-adv-x="332" 
d="M185 718l-90 55q44 52 76 91.5t42 53.5l10 13l112 -70q-53 -49 -90.5 -85t-48.5 -47zM66 17q0 271 -4 659q73 0 203 1q2 -299 5 -660q-97 1 -204 0z" />
    <glyph glyph-name="Icircumflex.alt" horiz-adv-x="332" 
d="M38 719q-21 25 -65 73q56 40 137 109q37 -1 114 2q45 -41 137 -111q-18 -17 -64 -72q-47 36 -131 94q-41 -24 -128 -95zM66 17q0 271 -4 659q73 0 203 1q2 -299 5 -660q-97 1 -204 0z" />
    <glyph glyph-name="Idieresis.alt" horiz-adv-x="332" 
d="M57 740q-42 0 -64 21.5t-22 54.5q0 30 25 49.5t62 19.5q38 0 61.5 -19.5t23.5 -52.5q0 -37 -24.5 -55t-61.5 -18zM280 742q-37 0 -59.5 20.5t-22.5 54.5q0 30 22.5 49.5t61.5 19.5q40 0 60.5 -20t20.5 -52q0 -35 -24 -53.5t-59 -18.5zM66 17q0 271 -4 659q73 0 203 1
q2 -299 5 -660q-97 1 -204 0z" />
    <glyph glyph-name="Idotaccent.alt" horiz-adv-x="332" 
d="M66 17q0 271 -4 659q73 0 203 1q2 -299 5 -660q-97 1 -204 0zM166 737q-48 0 -74 26t-26 65q0 36 27 59.5t73 23.5q48 0 74 -25.5t26 -60.5q0 -41 -27.5 -64.5t-72.5 -23.5z" />
    <glyph glyph-name="Igrave.alt" horiz-adv-x="332" 
d="M66 17q0 271 -4 659q73 0 203 1q2 -299 5 -660q-97 1 -204 0zM158 718q-30 32 -150 143q17 8 110 71q31 -43 130 -159q-29 -15 -90 -55z" />
    <glyph glyph-name="Imacron.alt" horiz-adv-x="332" 
d="M66 17q0 271 -4 659q73 0 203 1q2 -299 5 -660q-97 1 -204 0zM2 761q1 30 -1 101q86 -1 332 2l-1 -101q-100 2 -330 -2z" />
    <glyph glyph-name="Iogonek.alt" horiz-adv-x="332" 
d="M230 -197q-91 -13 -139.5 13.5t-49.5 76.5q0 34 23.5 68t64.5 56h-63q0 271 -4 659q73 0 203 1q2 -299 5 -660h-50q-64 -35 -64 -78q0 -21 21.5 -33t60.5 -9q-5 -33 -8 -94z" />
    <glyph glyph-name="Jcircumflex.alt" horiz-adv-x="676" 
d="M390 722q-21 25 -65 73q56 40 137 109q37 -1 114 2q45 -41 137 -111q-18 -17 -64 -72q-47 36 -131 94q-41 -24 -128 -95zM317 -15q-145 0 -223 70t-80 198q-2 74 12 131q49 -5 192 -13q-5 -37 -5 -84q0 -134 107 -134q62 0 90 66t28 203q0 129 -23 283q58 -1 202 8
q25 -140 25 -300q0 -213 -83.5 -320.5t-241.5 -107.5z" />
    <glyph glyph-name="Kcommaaccent.alt" horiz-adv-x="755" 
d="M445 -128q0 -38 -29 -76t-82 -67l-37 42q31 25 45 48q-24 6 -38 23.5t-14 38.5q0 28 22 48t56 20q37 0 57 -21t20 -56zM519 -18q-133 236 -158 279q-58 -67 -109 -132l2 -131l-200 -1v698l198 -1q-1 -124 -1 -324q77 97 142 182t92 121l27 36l220 -18
q-127 -158 -223 -282q55 -102 111.5 -203t85.5 -150l28 -50q-67 -5 -121 -11t-74 -9z" />
    <glyph glyph-name="Lacute.alt" horiz-adv-x="602" 
d="M182 719l-90 55q44 52 76 91.5t42 52.5l10 14l112 -70q-53 -49 -90.5 -85t-48.5 -47zM60 18q-1 342 -6 659q62 -2 202 0q-2 -95 4 -494l330 3l-1 -166z" />
    <glyph glyph-name="Lcaron.alt" horiz-adv-x="602" 
d="M489 660q0 -38 -29 -76t-82 -67l-37 42q31 25 45 48q-24 6 -38 23.5t-14 38.5q0 28 22 48t56 20q37 0 57 -21t20 -56zM60 18q-1 342 -6 659q62 -2 202 0q-2 -95 4 -494l330 3l-1 -166z" />
    <glyph glyph-name="Lcommaaccent.alt" horiz-adv-x="602" 
d="M401 -111q0 -38 -29 -76t-82 -67l-37 42q31 25 45 48q-24 6 -38 23.5t-14 38.5q0 28 22 48t56 20q37 0 57 -21t20 -56zM60 18q-1 342 -6 659q62 -2 202 0q-2 -95 4 -494l330 3l-1 -166z" />
    <glyph glyph-name="Nacute.alt" horiz-adv-x="760" 
d="M57 -7q2 292 -3 698q96 4 195 7q106 -180 258 -420q0 171 -10 431q100 0 198 -1q-1 -251 11 -693q-77 -4 -202 -13q-105 169 -258 404q0 -204 6 -415q-96 2 -195 2zM393 730l-90 55q44 52 76 91.5t42 53.5l10 13l112 -70q-53 -49 -90.5 -85t-48.5 -47z" />
    <glyph glyph-name="Ncaron.alt" horiz-adv-x="760" 
d="M57 -7q2 292 -3 698q96 4 195 7q106 -180 258 -420q0 171 -10 431q100 0 198 -1q-1 -251 11 -693q-77 -4 -202 -13q-105 169 -258 404q0 -204 6 -415q-96 2 -195 2zM323 751q-44 41 -137 111q19 17 65 73q46 -37 130 -95q41 24 129 95l64 -73q-55 -39 -136 -108
q-37 1 -115 -3z" />
    <glyph glyph-name="Ncommaaccent.alt" horiz-adv-x="760" 
d="M57 -7q2 292 -3 698q96 4 195 7q106 -180 258 -420q0 171 -10 431q100 0 198 -1q-1 -251 11 -693q-77 -4 -202 -13q-105 169 -258 404q0 -204 6 -415q-96 2 -195 2zM457 -121q0 -38 -29 -76t-82 -67l-37 42q31 25 45 48q-24 6 -38 23.5t-14 38.5q0 28 22 48t56 20
q37 0 57 -21t20 -56z" />
    <glyph glyph-name="Ntilde.alt" horiz-adv-x="760" 
d="M57 -7q2 292 -3 698q96 4 195 7q106 -180 258 -420q0 171 -10 431q100 0 198 -1q-1 -251 11 -693q-77 -4 -202 -13q-105 169 -258 404q0 -204 6 -415q-96 2 -195 2zM283 763q-37 2 -99 -2q-5 73 24 121.5t90 48.5q38 0 86.5 -28.5t66.5 -28.5q27 0 21 54q35 1 96 6
q14 -77 -12 -123.5t-84 -46.5q-43 0 -94 27t-65 27q-34 0 -30 -55z" />
    <glyph glyph-name="Oacute.alt" horiz-adv-x="835" 
d="M435 733l-90 55q44 52 76 91.5t42 52.5l10 14l112 -70q-53 -49 -90.5 -85t-48.5 -47zM414 698q175 0 280.5 -91.5t106.5 -259.5q3 -173 -102.5 -268t-284.5 -95q-180 0 -283.5 98t-102.5 264q0 170 107 261.5t279 90.5zM415 537q-76 0 -122.5 -48.5t-46.5 -142.5
q0 -90 42 -145t127 -55q81 0 125 57t44 144q0 85 -45.5 137.5t-123.5 52.5z" />
    <glyph glyph-name="Ocircumflex.alt" horiz-adv-x="835" 
d="M287 730q-21 25 -65 73q56 40 137 109q37 -1 114 2q45 -41 137 -111q-18 -17 -64 -72q-47 36 -131 94q-41 -24 -128 -95zM414 698q175 0 280.5 -91.5t106.5 -259.5q3 -173 -102.5 -268t-284.5 -95q-180 0 -283.5 98t-102.5 264q0 170 107 261.5t279 90.5zM415 537
q-76 0 -122.5 -48.5t-46.5 -142.5q0 -90 42 -145t127 -55q81 0 125 57t44 144q0 85 -45.5 137.5t-123.5 52.5z" />
    <glyph glyph-name="Odieresis.alt" horiz-adv-x="835" 
d="M307 752q-42 0 -64 21.5t-22 54.5q0 30 25 49.5t62 19.5q38 0 61.5 -19.5t23.5 -52.5q0 -37 -24.5 -55t-61.5 -18zM530 754q-37 0 -59.5 20.5t-22.5 54.5q0 30 22.5 49.5t61.5 19.5q40 0 60.5 -20t20.5 -52q0 -35 -24 -53.5t-59 -18.5zM414 698q175 0 280.5 -91.5
t106.5 -259.5q3 -173 -102.5 -268t-284.5 -95q-180 0 -283.5 98t-102.5 264q0 170 107 261.5t279 90.5zM415 537q-76 0 -122.5 -48.5t-46.5 -142.5q0 -90 42 -145t127 -55q81 0 125 57t44 144q0 85 -45.5 137.5t-123.5 52.5z" />
    <glyph glyph-name="Ograve.alt" horiz-adv-x="835" 
d="M414 698q175 0 280.5 -91.5t106.5 -259.5q3 -173 -102.5 -268t-284.5 -95q-180 0 -283.5 98t-102.5 264q0 170 107 261.5t279 90.5zM415 537q-76 0 -122.5 -48.5t-46.5 -142.5q0 -90 42 -145t127 -55q81 0 125 57t44 144q0 85 -45.5 137.5t-123.5 52.5zM408 733
q-30 32 -150 143q17 8 110 71q31 -43 130 -159q-29 -15 -90 -55z" />
    <glyph glyph-name="Ohungarumlaut.alt" horiz-adv-x="835" 
d="M414 698q175 0 280.5 -91.5t106.5 -259.5q3 -173 -102.5 -268t-284.5 -95q-180 0 -283.5 98t-102.5 264q0 170 107 261.5t279 90.5zM415 537q-76 0 -122.5 -48.5t-46.5 -142.5q0 -90 42 -145t127 -55q81 0 125 57t44 144q0 85 -45.5 137.5t-123.5 52.5zM514 730l-88 46
q39 56 67 98t37 56l8 14l111 -56zM333 737l-88 46q38 56 65.5 98.5t35.5 56.5l9 14l111 -58q-48 -54 -81 -93.5t-43 -51.5z" />
    <glyph glyph-name="Omacron.alt" horiz-adv-x="835" 
d="M252 772q1 30 -1 101q86 -1 332 2l-1 -101q-100 2 -330 -2zM414 698q175 0 280.5 -91.5t106.5 -259.5q3 -173 -102.5 -268t-284.5 -95q-180 0 -283.5 98t-102.5 264q0 170 107 261.5t279 90.5zM415 537q-76 0 -122.5 -48.5t-46.5 -142.5q0 -90 42 -145t127 -55
q81 0 125 57t44 144q0 85 -45.5 137.5t-123.5 52.5z" />
    <glyph glyph-name="Otilde.alt" horiz-adv-x="835" 
d="M414 698q175 0 280.5 -91.5t106.5 -259.5q3 -173 -102.5 -268t-284.5 -95q-180 0 -283.5 98t-102.5 264q0 170 107 261.5t279 90.5zM415 537q-76 0 -122.5 -48.5t-46.5 -142.5q0 -90 42 -145t127 -55q81 0 125 57t44 144q0 85 -45.5 137.5t-123.5 52.5zM321 744
q-37 2 -99 -2q-5 73 24 121.5t90 48.5q38 0 86.5 -28.5t66.5 -28.5q27 0 21 54q35 1 96 6q14 -77 -12 -123.5t-84 -46.5q-43 0 -94 27t-65 27q-34 0 -30 -55z" />
    <glyph glyph-name="Racute.alt" horiz-adv-x="736" 
d="M365 733l-90 55q44 52 76 91.5t42 52.5l10 14l112 -70q-53 -49 -90.5 -85t-48.5 -47zM512 -29q-49 91 -128 230q-58 -3 -133 2q0 -102 3 -220q-117 1 -198 -1q3 267 0 687q151 25 276 25q184 0 284 -61.5t99 -181.5q0 -152 -141 -212q36 -63 143 -233q-86 -17 -205 -35z
M249 351q39 -5 84 -5q93 0 140.5 26.5t47.5 72.5q0 51 -40.5 75.5t-134.5 24.5q-42 0 -99 -6z" />
    <glyph glyph-name="Rcaron.alt" horiz-adv-x="736" 
d="M292 741q-44 41 -137 111q19 17 65 73q46 -37 130 -95q41 24 129 95l64 -73q-55 -39 -136 -108q-37 1 -115 -3zM512 -29q-49 91 -128 230q-58 -3 -133 2q0 -102 3 -220q-117 1 -198 -1q3 267 0 687q151 25 276 25q184 0 284 -61.5t99 -181.5q0 -152 -141 -212
q36 -63 143 -233q-86 -17 -205 -35zM249 351q39 -5 84 -5q93 0 140.5 26.5t47.5 72.5q0 51 -40.5 75.5t-134.5 24.5q-42 0 -99 -6z" />
    <glyph glyph-name="Rcommaaccent.alt" horiz-adv-x="736" 
d="M437 -125q0 -38 -29 -76t-82 -67l-37 42q31 25 45 48q-24 6 -38 23.5t-14 38.5q0 28 22 48t56 20q37 0 57 -21t20 -56zM512 -29q-49 91 -128 230q-58 -3 -133 2q0 -102 3 -220q-117 1 -198 -1q3 267 0 687q151 25 276 25q184 0 284 -61.5t99 -181.5q0 -152 -141 -212
q36 -63 143 -233q-86 -17 -205 -35zM249 351q39 -5 84 -5q93 0 140.5 26.5t47.5 72.5q0 51 -40.5 75.5t-134.5 24.5q-42 0 -99 -6z" />
    <glyph glyph-name="Sacute.alt" horiz-adv-x="746" 
d="M381 -17q-163 0 -257.5 66t-104.5 188q79 -1 217 6q2 -53 44 -81t113 -28q51 0 80.5 16.5t29.5 46.5q0 23 -15 37t-57.5 25t-124.5 20q-141 15 -208 61.5t-67 142.5q0 100 86 159t234 59q163 1 256 -65.5t106 -189.5q-75 3 -208 3q-1 48 -41 76.5t-111 28.5
q-49 0 -75 -19t-26 -49q0 -31 41.5 -49t157.5 -32q154 -18 216.5 -64t62.5 -128q0 -114 -95 -172t-254 -58zM391 743l-90 55q44 52 76 91.5t42 52.5l10 14l112 -70q-53 -49 -90.5 -85t-48.5 -47z" />
    <glyph glyph-name="Scaron.alt" horiz-adv-x="746" 
d="M316 751q-44 41 -137 111q19 17 65 73q46 -37 130 -95q41 24 129 95l64 -73q-55 -39 -136 -108q-37 1 -115 -3zM381 -17q-163 0 -257.5 66t-104.5 188q79 -1 217 6q2 -53 44 -81t113 -28q51 0 80.5 16.5t29.5 46.5q0 23 -15 37t-57.5 25t-124.5 20q-141 15 -208 61.5
t-67 142.5q0 100 86 159t234 59q163 1 256 -65.5t106 -189.5q-75 3 -208 3q-1 48 -41 76.5t-111 28.5q-49 0 -75 -19t-26 -49q0 -31 41.5 -49t157.5 -32q154 -18 216.5 -64t62.5 -128q0 -114 -95 -172t-254 -58z" />
    <glyph glyph-name="Scedilla.alt" horiz-adv-x="746" 
d="M503 197q0 23 -15 37t-57.5 25t-124.5 20q-141 15 -208 61.5t-67 142.5q0 100 86 159t234 59q163 1 256 -65.5t106 -189.5q-75 3 -208 3q-1 48 -41 76.5t-111 28.5q-49 0 -75 -19t-26 -49q0 -31 41.5 -49t157.5 -32q154 -18 216.5 -64t62.5 -128q0 -105 -82 -162.5
t-222 -66.5v-47q64 0 97 -22t33 -59q0 -43 -46 -68.5t-132 -25.5q-63 0 -119 25q7 28 13 65q46 -23 88 -23q57 0 57 31q0 37 -91 28q9 39 18 96q-146 8 -231 73t-94 180q79 -1 217 6q2 -53 44 -81t113 -28q51 0 80.5 16.5t29.5 46.5z" />
    <glyph glyph-name="Scircumflex.alt" horiz-adv-x="746" 
d="M244 736q-21 25 -65 73q56 40 137 109q37 -1 114 2q45 -41 137 -111q-18 -17 -64 -72q-47 36 -131 94q-41 -24 -128 -95zM381 -17q-163 0 -257.5 66t-104.5 188q79 -1 217 6q2 -53 44 -81t113 -28q51 0 80.5 16.5t29.5 46.5q0 23 -15 37t-57.5 25t-124.5 20
q-141 15 -208 61.5t-67 142.5q0 100 86 159t234 59q163 1 256 -65.5t106 -189.5q-75 3 -208 3q-1 48 -41 76.5t-111 28.5q-49 0 -75 -19t-26 -49q0 -31 41.5 -49t157.5 -32q154 -18 216.5 -64t62.5 -128q0 -114 -95 -172t-254 -58z" />
    <glyph glyph-name="Scommaaccent.alt" horiz-adv-x="746" 
d="M451 -121q0 -38 -29 -76t-82 -67l-37 42q31 25 45 48q-24 6 -38 23.5t-14 38.5q0 28 22 48t56 20q37 0 57 -21t20 -56zM381 -17q-163 0 -257.5 66t-104.5 188q79 -1 217 6q2 -53 44 -81t113 -28q51 0 80.5 16.5t29.5 46.5q0 23 -15 37t-57.5 25t-124.5 20
q-141 15 -208 61.5t-67 142.5q0 100 86 159t234 59q163 1 256 -65.5t106 -189.5q-75 3 -208 3q-1 48 -41 76.5t-111 28.5q-49 0 -75 -19t-26 -49q0 -31 41.5 -49t157.5 -32q154 -18 216.5 -64t62.5 -128q0 -114 -95 -172t-254 -58z" />
    <glyph glyph-name="Tcaron.alt" horiz-adv-x="642" 
d="M264 726q-44 41 -137 111q19 17 65 73q46 -37 130 -95q41 24 129 95l64 -73q-55 -39 -136 -108q-37 1 -115 -3zM13 503q0 82 -1 178q411 -1 618 1q-1 -93 -1 -177h-205q4 -391 5 -496q-99 0 -207 -1q0 183 -2 496q-47 0 -118 -0.5t-89 -0.5z" />
    <glyph glyph-name="Tcommaaccent.alt" horiz-adv-x="642" 
d="M400 -111q0 -38 -29 -76t-82 -67l-37 42q31 25 45 48q-24 6 -38 23.5t-14 38.5q0 28 22 48t56 20q37 0 57 -21t20 -56zM13 503q0 82 -1 178q411 -1 618 1q-1 -93 -1 -177h-205q4 -391 5 -496q-99 0 -207 -1q0 183 -2 496q-47 0 -118 -0.5t-89 -0.5z" />
    <glyph glyph-name="Uacute.alt" horiz-adv-x="751" 
d="M402 727l-90 55q44 52 76 91.5t42 52.5l10 14l112 -70q-53 -49 -90.5 -85t-48.5 -47zM377 -14q-171 0 -257 107t-86 314q0 145 25 283q71 -8 203 -18q-23 -119 -23 -246q0 -132 33 -196t102 -64q136 0 136 237q0 120 -19 285q64 2 203 9q23 -158 23 -284
q0 -427 -340 -427z" />
    <glyph glyph-name="Ubreve.alt" horiz-adv-x="751" 
d="M377 -14q-171 0 -257 107t-86 314q0 145 25 283q71 -8 203 -18q-23 -119 -23 -246q0 -132 33 -196t102 -64q136 0 136 237q0 120 -19 285q64 2 203 9q23 -158 23 -284q0 -427 -340 -427zM384 753q-91 0 -138.5 39t-44.5 107q46 0 117 5q0 -30 17 -47.5t50 -17.5
q31 0 48.5 19t13.5 57q40 -1 120 1q6 -82 -45 -122.5t-138 -40.5z" />
    <glyph glyph-name="Ucircumflex.alt" horiz-adv-x="751" 
d="M255 744q-21 25 -65 73q56 40 137 109q37 -1 114 2q45 -41 137 -111q-18 -17 -64 -72q-47 36 -131 94q-41 -24 -128 -95zM377 -14q-171 0 -257 107t-86 314q0 145 25 283q71 -8 203 -18q-23 -119 -23 -246q0 -132 33 -196t102 -64q136 0 136 237q0 120 -19 285
q64 2 203 9q23 -158 23 -284q0 -427 -340 -427z" />
    <glyph glyph-name="Udieresis.alt" horiz-adv-x="751" 
d="M274 765q-42 0 -64 21.5t-22 54.5q0 30 25 49.5t62 19.5q38 0 61.5 -19.5t23.5 -52.5q0 -37 -24.5 -55t-61.5 -18zM497 767q-37 0 -59.5 20.5t-22.5 54.5q0 30 22.5 49.5t61.5 19.5q40 0 60.5 -20t20.5 -52q0 -35 -24 -53.5t-59 -18.5zM377 -14q-171 0 -257 107t-86 314
q0 145 25 283q71 -8 203 -18q-23 -119 -23 -246q0 -132 33 -196t102 -64q136 0 136 237q0 120 -19 285q64 2 203 9q23 -158 23 -284q0 -427 -340 -427z" />
    <glyph glyph-name="Ugrave.alt" horiz-adv-x="751" 
d="M377 733q-30 32 -150 143q17 8 110 71q31 -43 130 -159q-29 -15 -90 -55zM377 -14q-171 0 -257 107t-86 314q0 145 25 283q71 -8 203 -18q-23 -119 -23 -246q0 -132 33 -196t102 -64q136 0 136 237q0 120 -19 285q64 2 203 9q23 -158 23 -284q0 -427 -340 -427z" />
    <glyph glyph-name="Uhungarumlaut.alt" horiz-adv-x="751" 
d="M481 747l-88 46q39 56 67 98t36 56l9 14l111 -56zM300 754l-88 46q38 56 65.5 98.5t36.5 56.5l8 14l111 -58q-48 -54 -81 -93.5t-42 -51.5zM377 -14q-171 0 -257 107t-86 314q0 145 25 283q71 -8 203 -18q-23 -119 -23 -246q0 -132 33 -196t102 -64q136 0 136 237
q0 120 -19 285q64 2 203 9q23 -158 23 -284q0 -427 -340 -427z" />
    <glyph glyph-name="Umacron.alt" horiz-adv-x="751" 
d="M219 786q1 30 -1 101q86 -1 332 2l-1 -101q-100 2 -330 -2zM377 -14q-171 0 -257 107t-86 314q0 145 25 283q71 -8 203 -18q-23 -119 -23 -246q0 -132 33 -196t102 -64q136 0 136 237q0 120 -19 285q64 2 203 9q23 -158 23 -284q0 -427 -340 -427z" />
    <glyph glyph-name="Uogonek.alt" horiz-adv-x="751" 
d="M455 -214q-91 -12 -139.5 14.5t-48.5 76.5q-2 64 67 111q-300 25 -300 419q0 145 25 283q71 -8 203 -18q-23 -119 -23 -246q0 -132 33 -196t102 -64q136 0 136 237q0 120 -19 285q64 2 203 9q23 -158 23 -284q0 -395 -291 -424q-45 -32 -45 -66q0 -22 21.5 -34t60.5 -8
q-5 -33 -8 -95z" />
    <glyph glyph-name="Uring.alt" horiz-adv-x="751" 
d="M374 739q-64 0 -99.5 30t-35.5 76q0 50 38 77.5t98 27.5q66 0 102 -30t36 -75q0 -53 -39 -79.5t-100 -26.5zM378 797q25 0 40.5 13.5t15.5 34.5q0 20 -14 35t-42 15q-27 0 -42.5 -13t-15.5 -35t14.5 -36t43.5 -14zM377 -14q-171 0 -257 107t-86 314q0 145 25 283
q71 -8 203 -18q-23 -119 -23 -246q0 -132 33 -196t102 -64q136 0 136 237q0 120 -19 285q64 2 203 9q23 -158 23 -284q0 -427 -340 -427z" />
    <glyph glyph-name="Yacute.alt" horiz-adv-x="750" 
d="M392 737l-90 55q44 52 76 91.5t42 52.5l10 14l112 -70q-53 -49 -90.5 -85t-48.5 -47zM275 -30q-2 107 -7 174q-95 209 -265 546q68 -1 229 5q35 -104 140 -349q50 103 152 355q64 -3 223 -4q-106 -212 -271 -552q-3 -38 1 -174z" />
    <glyph glyph-name="Ydieresis.alt" horiz-adv-x="750" 
d="M264 759q-42 0 -64 21.5t-22 54.5q0 30 25 49.5t62 19.5q38 0 61.5 -19.5t23.5 -52.5q0 -37 -24.5 -55t-61.5 -18zM487 761q-37 0 -59.5 20.5t-22.5 54.5q0 30 22.5 49.5t61.5 19.5q40 0 60.5 -20t20.5 -52q0 -35 -24 -53.5t-59 -18.5zM275 -30q-2 107 -7 174
q-95 209 -265 546q68 -1 229 5q35 -104 140 -349q50 103 152 355q64 -3 223 -4q-106 -212 -271 -552q-3 -38 1 -174z" />
    <glyph glyph-name="Zacute.alt" horiz-adv-x="672" 
d="M354 733l-90 55q44 52 76 91.5t42 52.5l10 14l112 -70q-53 -49 -90.5 -85t-48.5 -47zM634 11l-598 5l1 141l344 359l-335 -4l-1 172q182 -1 311.5 0t200.5 2l71 1l2 -147q-167 -174 -348 -358l354 1z" />
    <glyph glyph-name="Zcaron.alt" horiz-adv-x="672" 
d="M280 741q-44 41 -137 111q19 17 65 73q46 -37 130 -95q41 24 129 95l64 -73q-55 -39 -136 -108q-37 1 -115 -3zM634 11l-598 5l1 141l344 359l-335 -4l-1 172q182 -1 311.5 0t200.5 2l71 1l2 -147q-167 -174 -348 -358l354 1z" />
    <glyph glyph-name="Zdotaccent.alt" horiz-adv-x="672" 
d="M634 11l-598 5l1 141l344 359l-335 -4l-1 172q182 -1 311.5 0t200.5 2l71 1l2 -147q-167 -174 -348 -358l354 1zM337 752q-48 0 -74 26t-26 65q0 36 27 59.5t73 23.5q48 0 74 -25.5t26 -60.5q0 -41 -27.5 -64.5t-72.5 -23.5z" />
    <glyph glyph-name="aacute.alt" horiz-adv-x="671" 
d="M344 551l-90 55q44 52 76 91.5t42 52.5l10 14l112 -70q-53 -49 -90.5 -85t-48.5 -47zM247 -32q-105 0 -165.5 45t-60.5 120q0 191 399 182q-5 38 -28.5 59.5t-63.5 21.5q-43 0 -68.5 -17.5t-31.5 -46.5q-70 9 -188 17q18 79 94 127.5t194 48.5q155 0 226.5 -63.5
t75.5 -194.5q2 -64 2 -139.5t-1 -119.5l-1 -44q-74 1 -173 -1q2 31 4 87q-34 -40 -91.5 -61t-122.5 -21zM305 82q51 0 87.5 36t36.5 107q-204 0 -204 -81q0 -28 22 -44.5t58 -17.5z" />
    <glyph glyph-name="abreve.alt" horiz-adv-x="671" 
d="M247 -32q-105 0 -165.5 45t-60.5 120q0 191 399 182q-5 38 -28.5 59.5t-63.5 21.5q-43 0 -68.5 -17.5t-31.5 -46.5q-70 9 -188 17q18 79 94 127.5t194 48.5q155 0 226.5 -63.5t75.5 -194.5q2 -64 2 -139.5t-1 -119.5l-1 -44q-74 1 -173 -1q2 31 4 87q-34 -40 -91.5 -61
t-122.5 -21zM305 82q51 0 87.5 36t36.5 107q-204 0 -204 -81q0 -28 22 -44.5t58 -17.5zM328 570q-91 0 -138.5 39t-44.5 107q46 0 117 5q0 -30 17 -47.5t50 -17.5q31 0 48.5 19t13.5 57q40 -1 120 1q6 -82 -45 -122.5t-138 -40.5z" />
    <glyph glyph-name="acircumflex.alt" horiz-adv-x="671" 
d="M198 552q-21 25 -65 73q56 40 137 109q37 -1 114 2q45 -41 137 -111q-18 -17 -64 -72q-47 36 -131 94q-41 -24 -128 -95zM247 -32q-105 0 -165.5 45t-60.5 120q0 191 399 182q-5 38 -28.5 59.5t-63.5 21.5q-43 0 -68.5 -17.5t-31.5 -46.5q-70 9 -188 17q18 79 94 127.5
t194 48.5q155 0 226.5 -63.5t75.5 -194.5q2 -64 2 -139.5t-1 -119.5l-1 -44q-74 1 -173 -1q2 31 4 87q-34 -40 -91.5 -61t-122.5 -21zM305 82q51 0 87.5 36t36.5 107q-204 0 -204 -81q0 -28 22 -44.5t58 -17.5z" />
    <glyph glyph-name="adieresis.alt" horiz-adv-x="671" 
d="M218 573q-42 0 -64 21.5t-22 54.5q0 30 25 49.5t62 19.5q38 0 61.5 -19.5t23.5 -52.5q0 -37 -24.5 -55t-61.5 -18zM441 575q-37 0 -59.5 20.5t-22.5 54.5q0 30 22.5 49.5t61.5 19.5q40 0 60.5 -20t20.5 -52q0 -35 -24 -53.5t-59 -18.5zM247 -32q-105 0 -165.5 45
t-60.5 120q0 191 399 182q-5 38 -28.5 59.5t-63.5 21.5q-43 0 -68.5 -17.5t-31.5 -46.5q-70 9 -188 17q18 79 94 127.5t194 48.5q155 0 226.5 -63.5t75.5 -194.5q2 -64 2 -139.5t-1 -119.5l-1 -44q-74 1 -173 -1q2 31 4 87q-34 -40 -91.5 -61t-122.5 -21zM305 82
q51 0 87.5 36t36.5 107q-204 0 -204 -81q0 -28 22 -44.5t58 -17.5z" />
    <glyph glyph-name="agrave.alt" horiz-adv-x="671" 
d="M247 -32q-105 0 -165.5 45t-60.5 120q0 191 399 182q-5 38 -28.5 59.5t-63.5 21.5q-43 0 -68.5 -17.5t-31.5 -46.5q-70 9 -188 17q18 79 94 127.5t194 48.5q155 0 226.5 -63.5t75.5 -194.5q2 -64 2 -139.5t-1 -119.5l-1 -44q-74 1 -173 -1q2 31 4 87q-34 -40 -91.5 -61
t-122.5 -21zM305 82q51 0 87.5 36t36.5 107q-204 0 -204 -81q0 -28 22 -44.5t58 -17.5zM319 551q-30 32 -150 143q17 8 110 71q31 -43 130 -159q-29 -15 -90 -55z" />
    <glyph glyph-name="amacron.alt" horiz-adv-x="671" 
d="M247 -32q-105 0 -165.5 45t-60.5 120q0 191 399 182q-5 38 -28.5 59.5t-63.5 21.5q-43 0 -68.5 -17.5t-31.5 -46.5q-70 9 -188 17q18 79 94 127.5t194 48.5q155 0 226.5 -63.5t75.5 -194.5q2 -64 2 -139.5t-1 -119.5l-1 -44q-74 1 -173 -1q2 31 4 87q-34 -40 -91.5 -61
t-122.5 -21zM305 82q51 0 87.5 36t36.5 107q-204 0 -204 -81q0 -28 22 -44.5t58 -17.5zM163 590q1 30 -1 101q86 -1 332 2l-1 -101q-100 2 -330 -2z" />
    <glyph glyph-name="aogonek.alt" horiz-adv-x="671" 
d="M247 -32q-105 0 -165.5 45t-60.5 120q0 191 399 182q-5 38 -28.5 59.5t-63.5 21.5q-43 0 -68.5 -17.5t-31.5 -46.5q-70 9 -188 17q18 79 94 127.5t194 48.5q155 0 226.5 -63.5t75.5 -194.5q2 -64 2 -139.5t-1 -119.5l-1 -44q-45 1 -107 0q-51 -35 -51 -70q0 -21 22 -33
t61 -8q-6 -34 -9 -95q-90 -13 -138.5 14t-49.5 76q-1 36 26 72t74 58l3 72q-34 -40 -91.5 -61t-122.5 -21zM305 82q51 0 87.5 36t36.5 107q-204 0 -204 -81q0 -28 22 -44.5t58 -17.5z" />
    <glyph glyph-name="aring.alt" horiz-adv-x="671" 
d="M325 558q-64 0 -99.5 30t-35.5 76q0 50 38 77.5t98 27.5q66 0 102 -30t36 -75q0 -53 -39 -79.5t-100 -26.5zM329 616q25 0 40.5 13.5t15.5 34.5q0 20 -14 35t-42 15q-27 0 -42.5 -13t-15.5 -35t14.5 -36t43.5 -14zM247 -32q-105 0 -165.5 45t-60.5 120q0 191 399 182
q-5 38 -28.5 59.5t-63.5 21.5q-43 0 -68.5 -17.5t-31.5 -46.5q-70 9 -188 17q18 79 94 127.5t194 48.5q155 0 226.5 -63.5t75.5 -194.5q2 -64 2 -139.5t-1 -119.5l-1 -44q-74 1 -173 -1q2 31 4 87q-34 -40 -91.5 -61t-122.5 -21zM305 82q51 0 87.5 36t36.5 107
q-204 0 -204 -81q0 -28 22 -44.5t58 -17.5z" />
    <glyph glyph-name="atilde.alt" horiz-adv-x="671" 
d="M247 -32q-105 0 -165.5 45t-60.5 120q0 191 399 182q-5 38 -28.5 59.5t-63.5 21.5q-43 0 -68.5 -17.5t-31.5 -46.5q-70 9 -188 17q18 79 94 127.5t194 48.5q155 0 226.5 -63.5t75.5 -194.5q2 -64 2 -139.5t-1 -119.5l-1 -44q-74 1 -173 -1q2 31 4 87q-34 -40 -91.5 -61
t-122.5 -21zM305 82q51 0 87.5 36t36.5 107q-204 0 -204 -81q0 -28 22 -44.5t58 -17.5zM232 566q-37 2 -99 -2q-5 73 24 121.5t90 48.5q38 0 86.5 -28.5t66.5 -28.5q27 0 21 54q35 1 96 6q14 -77 -12 -123.5t-84 -46.5q-43 0 -94 27t-65 27q-34 0 -30 -55z" />
    <glyph glyph-name="cacute.alt" horiz-adv-x="681" 
d="M356 -19q-149 0 -237 68t-87 201q0 115 80 188.5t230 73.5q134 0 218.5 -56.5t97.5 -159.5l-213 -6q-5 39 -32 61.5t-69 22.5q-49 0 -80.5 -34.5t-31.5 -90.5q0 -55 31 -90t83 -35q38 0 65 20.5t34 59.5q75 -3 220 -8q-25 -104 -109 -159.5t-200 -55.5zM365 548l-90 55
q44 52 76 91.5t42 53.5l10 13l112 -70q-53 -49 -90.5 -85t-48.5 -47z" />
    <glyph glyph-name="ccaron.alt" horiz-adv-x="681" 
d="M291 556q-44 41 -137 111q19 17 65 73q46 -37 130 -95q41 24 129 95l64 -73q-55 -39 -136 -108q-37 1 -115 -3zM356 -19q-149 0 -237 68t-87 201q0 115 80 188.5t230 73.5q134 0 218.5 -56.5t97.5 -159.5l-213 -6q-5 39 -32 61.5t-69 22.5q-49 0 -80.5 -34.5t-31.5 -90.5
q0 -55 31 -90t83 -35q38 0 65 20.5t34 59.5q75 -3 220 -8q-25 -104 -109 -159.5t-200 -55.5z" />
    <glyph glyph-name="ccedilla.alt" horiz-adv-x="681" 
d="M665 196q-23 -96 -98 -151t-180 -63v-42q64 0 97 -22t33 -59q0 -43 -46 -68.5t-132 -25.5q-63 0 -119 25q7 28 13 65q46 -23 88 -23q57 0 57 31q0 37 -91 28q8 38 17 92q-127 12 -200 79t-72 188q0 115 80 188.5t230 73.5q134 0 218.5 -56.5t97.5 -159.5l-213 -6
q-5 39 -32 61.5t-69 22.5q-49 0 -80.5 -34.5t-31.5 -90.5q0 -55 31 -90t83 -35q38 0 65 20.5t34 59.5q75 -3 220 -8z" />
    <glyph glyph-name="ccircumflex.alt" horiz-adv-x="681" 
d="M219 546q-21 25 -65 73q56 40 137 109q37 -1 114 2q45 -41 137 -111q-18 -17 -64 -72q-47 36 -131 94q-41 -24 -128 -95zM356 -19q-149 0 -237 68t-87 201q0 115 80 188.5t230 73.5q134 0 218.5 -56.5t97.5 -159.5l-213 -6q-5 39 -32 61.5t-69 22.5q-49 0 -80.5 -34.5
t-31.5 -90.5q0 -55 31 -90t83 -35q38 0 65 20.5t34 59.5q75 -3 220 -8q-25 -104 -109 -159.5t-200 -55.5z" />
    <glyph glyph-name="dcaron.alt" horiz-adv-x="723" 
d="M869 632q0 -38 -29 -76t-82 -67l-37 42q31 25 45 48q-24 6 -38 23.5t-14 38.5q0 28 22 48t56 20q37 0 57 -21t20 -56zM675 -9l-179 2q2 21 5 63q-66 -71 -194 -71q-122 0 -198.5 69t-76.5 190t70.5 193.5t199.5 72.5q104 0 174 -63l-5 254q40 -1 204 1q-2 -326 0 -711z
M362 107q59 0 93 39t34 101q-2 59 -35 100t-93 41q-57 0 -90 -40.5t-33 -100.5q0 -65 34 -102.5t90 -37.5z" />
    <glyph glyph-name="eacute.alt" horiz-adv-x="714" 
d="M376 545l-90 55q44 52 76 91.5t42 52.5l10 14l112 -70q-53 -49 -90.5 -85t-48.5 -47zM368 -13q-165 0 -251 70.5t-85 198.5q0 120 88.5 190.5t234.5 70.5q179 -1 258.5 -87t73.5 -236q-135 1 -441 -3q24 -79 117 -79q39 0 68 13t40 35q52 -5 208 -15q-85 -158 -311 -158z
M364 389q-112 0 -125 -105q65 0 242 6q-2 40 -31 69.5t-86 29.5z" />
    <glyph glyph-name="ecaron.alt" horiz-adv-x="714" 
d="M302 553q-44 41 -137 111q19 17 65 73q46 -37 130 -95q41 24 129 95l64 -73q-55 -39 -136 -108q-37 1 -115 -3zM368 -13q-165 0 -251 70.5t-85 198.5q0 120 88.5 190.5t234.5 70.5q179 -1 258.5 -87t73.5 -236q-135 1 -441 -3q24 -79 117 -79q39 0 68 13t40 35
q52 -5 208 -15q-85 -158 -311 -158zM364 389q-112 0 -125 -105q65 0 242 6q-2 40 -31 69.5t-86 29.5z" />
    <glyph glyph-name="ecircumflex.alt" horiz-adv-x="714" 
d="M230 541q-21 25 -65 73q56 40 137 109q37 -1 114 2q45 -41 137 -111q-18 -17 -64 -72q-47 36 -131 94q-41 -24 -128 -95zM368 -13q-165 0 -251 70.5t-85 198.5q0 120 88.5 190.5t234.5 70.5q179 -1 258.5 -87t73.5 -236q-135 1 -441 -3q24 -79 117 -79q39 0 68 13t40 35
q52 -5 208 -15q-85 -158 -311 -158zM364 389q-112 0 -125 -105q65 0 242 6q-2 40 -31 69.5t-86 29.5z" />
    <glyph glyph-name="edieresis.alt" horiz-adv-x="714" 
d="M250 561q-42 0 -64 21.5t-22 54.5q0 30 25 49.5t62 19.5q38 0 61.5 -19.5t23.5 -52.5q0 -37 -24.5 -55t-61.5 -18zM473 563q-37 0 -59.5 20.5t-22.5 54.5q0 30 22.5 49.5t61.5 19.5q40 0 60.5 -20t20.5 -52q0 -35 -24 -53.5t-59 -18.5zM368 -13q-165 0 -251 70.5
t-85 198.5q0 120 88.5 190.5t234.5 70.5q179 -1 258.5 -87t73.5 -236q-135 1 -441 -3q24 -79 117 -79q39 0 68 13t40 35q52 -5 208 -15q-85 -158 -311 -158zM364 389q-112 0 -125 -105q65 0 242 6q-2 40 -31 69.5t-86 29.5z" />
    <glyph glyph-name="edotaccent.alt" horiz-adv-x="714" 
d="M360 564q-48 0 -74 26t-26 65q0 36 27 59.5t73 23.5q48 0 74 -25.5t26 -60.5q0 -41 -27.5 -64.5t-72.5 -23.5zM368 -13q-165 0 -251 70.5t-85 198.5q0 120 88.5 190.5t234.5 70.5q179 -1 258.5 -87t73.5 -236q-135 1 -441 -3q24 -79 117 -79q39 0 68 13t40 35
q52 -5 208 -15q-85 -158 -311 -158zM364 389q-112 0 -125 -105q65 0 242 6q-2 40 -31 69.5t-86 29.5z" />
    <glyph glyph-name="egrave.alt" horiz-adv-x="714" 
d="M352 545q-30 32 -150 143q17 8 110 71q31 -43 130 -159q-29 -15 -90 -55zM368 -13q-165 0 -251 70.5t-85 198.5q0 120 88.5 190.5t234.5 70.5q179 -1 258.5 -87t73.5 -236q-135 1 -441 -3q24 -79 117 -79q39 0 68 13t40 35q52 -5 208 -15q-85 -158 -311 -158zM364 389
q-112 0 -125 -105q65 0 242 6q-2 40 -31 69.5t-86 29.5z" />
    <glyph glyph-name="emacron.alt" horiz-adv-x="714" 
d="M195 579q1 30 -1 101q86 -1 332 2l-1 -101q-100 2 -330 -2zM368 -13q-165 0 -251 70.5t-85 198.5q0 120 88.5 190.5t234.5 70.5q179 -1 258.5 -87t73.5 -236q-135 1 -441 -3q24 -79 117 -79q39 0 68 13t40 35q52 -5 208 -15q-85 -158 -311 -158zM364 389
q-112 0 -125 -105q65 0 242 6q-2 40 -31 69.5t-86 29.5z" />
    <glyph glyph-name="eogonek.alt" horiz-adv-x="714" 
d="M451 -215q-91 -12 -139.5 14.5t-48.5 76.5q-1 30 17.5 60t51.5 52q-148 8 -224.5 77.5t-75.5 190.5q0 120 88.5 190.5t234.5 70.5q179 -1 258.5 -87t73.5 -236q-135 1 -441 -3q24 -79 117 -79q39 0 68 13t40 35q52 -5 208 -15q-74 -139 -254 -155q-48 -35 -48 -68
q0 -22 21.5 -34t60.5 -8q-5 -33 -8 -95zM364 389q-112 0 -125 -105q65 0 242 6q-2 40 -31 69.5t-86 29.5z" />
    <glyph glyph-name="gbreve.alt" horiz-adv-x="645" 
d="M324 216q45 0 73 23.5t28 63.5q0 36 -27 59.5t-74 23.5q-46 0 -73 -23t-27 -61t27.5 -62t72.5 -24zM467 -139q0 17 -15 26t-58.5 13.5t-132.5 6.5q-38 -20 -38 -48q0 -46 125 -45q57 0 88 15t31 32zM660 -98q0 -90 -101 -142.5t-251 -52.5q-136 0 -216 33t-80 98
q0 39 32 66.5t93 38.5q-38 11 -60 34t-22 53q0 72 99 105q-128 53 -128 175q1 103 82.5 156t213.5 53q144 0 225 -54t81 -162q0 -92 -82.5 -145t-213.5 -53q-43 0 -75 4q-8 -11 -8 -25q0 -17 30.5 -24t119.5 -9q145 -4 203 -42t58 -107zM327 563q-91 0 -138.5 39t-44.5 107
q46 0 117 5q0 -30 17 -47.5t50 -17.5q31 0 48.5 19t13.5 57q40 -1 120 1q6 -82 -45 -122.5t-138 -40.5z" />
    <glyph glyph-name="gcircumflex.alt" horiz-adv-x="645" 
d="M324 216q45 0 73 23.5t28 63.5q0 36 -27 59.5t-74 23.5q-46 0 -73 -23t-27 -61t27.5 -62t72.5 -24zM467 -139q0 17 -15 26t-58.5 13.5t-132.5 6.5q-38 -20 -38 -48q0 -46 125 -45q57 0 88 15t31 32zM660 -98q0 -90 -101 -142.5t-251 -52.5q-136 0 -216 33t-80 98
q0 39 32 66.5t93 38.5q-38 11 -60 34t-22 53q0 72 99 105q-128 53 -128 175q1 103 82.5 156t213.5 53q144 0 225 -54t81 -162q0 -92 -82.5 -145t-213.5 -53q-43 0 -75 4q-8 -11 -8 -25q0 -17 30.5 -24t119.5 -9q145 -4 203 -42t58 -107zM199 548q-21 25 -65 73
q56 40 137 109q37 -1 114 2q45 -41 137 -111q-18 -17 -64 -72q-47 36 -131 94q-41 -24 -128 -95z" />
    <glyph glyph-name="gcommaaccent.alt" horiz-adv-x="645" 
d="M324 216q45 0 73 23.5t28 63.5q0 36 -27 59.5t-74 23.5q-46 0 -73 -23t-27 -61t27.5 -62t72.5 -24zM467 -139q0 17 -15 26t-58.5 13.5t-132.5 6.5q-38 -20 -38 -48q0 -46 125 -45q57 0 88 15t31 32zM660 -98q0 -90 -101 -142.5t-251 -52.5q-136 0 -216 33t-80 98
q0 39 32 66.5t93 38.5q-38 11 -60 34t-22 53q0 72 99 105q-128 53 -128 175q1 103 82.5 156t213.5 53q144 0 225 -54t81 -162q0 -92 -82.5 -145t-213.5 -53q-43 0 -75 4q-8 -11 -8 -25q0 -17 30.5 -24t119.5 -9q145 -4 203 -42t58 -107zM231 632q0 38 29 76t82 67l37 -42
q-31 -25 -45 -48q24 -6 38 -23.5t14 -38.5q0 -28 -22 -48t-56 -20q-37 0 -57 21t-20 56z" />
    <glyph glyph-name="hcircumflex.alt" horiz-adv-x="683" 
d="M21 720q-21 25 -65 73q56 40 137 109q37 -1 114 2q45 -41 137 -111q-18 -17 -64 -72q-47 36 -131 94q-41 -24 -128 -95zM46 -10q4 334 0 710q73 0 203 1l-1 -261q28 40 77.5 64t112.5 24q94 0 147 -55t57 -153q2 -80 2.5 -158.5t-0.5 -117.5l-1 -38l-198 1q1 11 1.5 31.5
t1 86t-1.5 127.5q-3 111 -80 111q-55 0 -84.5 -44t-31.5 -108q-2 -37 -2 -92t1 -91l1 -37q-91 2 -204 -1z" />
    <glyph glyph-name="iacute.alt" horiz-adv-x="315" 
d="M59 15q1 101 -3 467q79 0 200 2q1 -264 4 -468q-88 1 -201 -1zM178 548l-90 55q44 52 76 91.5t42 53.5l10 13l112 -70q-53 -49 -90.5 -85t-48.5 -47z" />
    <glyph glyph-name="icircumflex.alt" horiz-adv-x="315" 
d="M59 15q1 101 -3 467q79 0 200 2q1 -264 4 -468q-88 1 -201 -1zM27 549q-21 25 -65 73q56 40 137 109q37 -1 114 2q45 -41 137 -111q-18 -17 -64 -72q-47 36 -131 94q-41 -24 -128 -95z" />
    <glyph glyph-name="idieresis.alt" horiz-adv-x="315" 
d="M59 15q1 101 -3 467q79 0 200 2q1 -264 4 -468q-88 1 -201 -1zM47 570q-42 0 -64 21.5t-22 54.5q0 30 25 49.5t62 19.5q38 0 61.5 -19.5t23.5 -52.5q0 -37 -24.5 -55t-61.5 -18zM270 572q-37 0 -59.5 20.5t-22.5 54.5q0 30 22.5 49.5t61.5 19.5q40 0 60.5 -20t20.5 -52
q0 -35 -24 -53.5t-59 -18.5z" />
    <glyph glyph-name="igrave.alt" horiz-adv-x="315" 
d="M59 15q1 101 -3 467q79 0 200 2q1 -264 4 -468q-88 1 -201 -1zM154 548q-30 32 -150 143q17 8 110 71q31 -43 130 -159q-29 -15 -90 -55z" />
    <glyph glyph-name="imacron.alt" horiz-adv-x="315" 
d="M59 15q1 101 -3 467q79 0 200 2q1 -264 4 -468q-88 1 -201 -1zM-8 591q1 30 -1 101q86 -1 332 2l-1 -101q-100 2 -330 -2z" />
    <glyph glyph-name="iogonek.alt" horiz-adv-x="315" 
d="M59 15q1 101 -3 467q79 0 200 2q1 -264 4 -468h-48q-67 -35 -67 -78q0 -22 21.5 -34t60.5 -8q-5 -34 -8 -95q-90 -12 -138.5 14.5t-49.5 75.5q-1 34 23 68.5t66 56.5zM160 529q-127 0 -127 94q0 41 31 65.5t93 24.5t93.5 -24t31.5 -66q0 -94 -122 -94z" />
    <glyph glyph-name="jcircumflex.alt" horiz-adv-x="315" 
d="M-72 -211q5 36 5 142q36 -4 48 -4q41 0 59.5 20.5t19.5 67.5q1 112 1 215t-1 176l-1 73q69 -2 113 -1.5t64 1.5l20 1q1 -19 1.5 -55.5t1.5 -162.5t0 -264q0 -220 -220 -220q-48 0 -111 11zM29 549q-21 25 -65 73q56 40 137 109q37 -1 114 2q45 -41 137 -111
q-18 -17 -64 -72q-47 36 -131 94q-41 -24 -128 -95z" />
    <glyph glyph-name="kcommaaccent.alt" horiz-adv-x="656" 
d="M423 -135q0 -38 -29 -76t-82 -67l-37 42q31 25 45 48q-24 6 -38 23.5t-14 38.5q0 28 22 48t56 20q37 0 57 -21t20 -56zM444 -28q-57 122 -120 240q-49 -56 -78 -92l1 -122h-201q2 228 2.5 403t-0.5 236l-1 61l201 -2q-2 -176 -2 -392q51 67 89 121.5t51 76.5l13 21
l237 -5q-117 -131 -166 -191l183 -334q-72 -5 -124.5 -10t-68.5 -8z" />
    <glyph glyph-name="lacute.alt" horiz-adv-x="306" 
d="M181 746l-90 55q44 52 76 91.5t42 53.5l10 13l112 -70q-53 -49 -90.5 -85t-48.5 -47zM253 -14l-201 1l2 724l201 -2q-2 -253 -2.5 -434t-0.5 -235z" />
    <glyph glyph-name="lcaron.alt" horiz-adv-x="306" 
d="M448 633q0 -38 -29 -76t-82 -67l-37 42q31 25 45 48q-24 6 -38 23.5t-14 38.5q0 28 22 48t56 20q37 0 57 -21t20 -56zM253 -14l-201 1l2 724l201 -2q-2 -253 -2.5 -434t-0.5 -235z" />
    <glyph glyph-name="lcommaaccent.alt" horiz-adv-x="306" 
d="M231 -121q0 -38 -29 -76t-82 -67l-37 42q31 25 45 48q-24 6 -38 23.5t-14 38.5q0 28 22 48t56 20q37 0 57 -21t20 -56zM253 -14l-201 1l2 724l201 -2q-2 -253 -2.5 -434t-0.5 -235z" />
    <glyph glyph-name="nacute.alt" horiz-adv-x="681" 
d="M443 5q1 10 1.5 29t1 82t-1.5 125q-2 111 -81 111q-51 0 -82 -41.5t-33 -107.5q-2 -30 -2 -83t1 -90l1 -38q-126 2 -203 0l1 491q96 -2 159 1q-2 -42 -2 -90q30 58 88.5 91.5t138.5 32.5q99 -1 152.5 -58.5t57.5 -161.5l3 -292zM374 548l-90 55q44 52 76 91.5t42 53.5
l10 13l112 -70q-53 -49 -90.5 -85t-48.5 -47z" />
    <glyph glyph-name="ncaron.alt" horiz-adv-x="681" 
d="M443 5q1 10 1.5 29t1 82t-1.5 125q-2 111 -81 111q-51 0 -82 -41.5t-33 -107.5q-2 -30 -2 -83t1 -90l1 -38q-126 2 -203 0l1 491q96 -2 159 1q-2 -42 -2 -90q30 58 88.5 91.5t138.5 32.5q99 -1 152.5 -58.5t57.5 -161.5l3 -292zM300 556q-44 41 -137 111q19 17 65 73
q46 -37 130 -95q41 24 129 95l64 -73q-55 -39 -136 -108q-37 1 -115 -3z" />
    <glyph glyph-name="ncommaaccent.alt" horiz-adv-x="681" 
d="M443 5q1 10 1.5 29t1 82t-1.5 125q-2 111 -81 111q-51 0 -82 -41.5t-33 -107.5q-2 -30 -2 -83t1 -90l1 -38q-126 2 -203 0l1 491q96 -2 159 1q-2 -42 -2 -90q30 58 88.5 91.5t138.5 32.5q99 -1 152.5 -58.5t57.5 -161.5l3 -292zM435 -121q0 -38 -29 -76t-82 -67l-37 42
q31 25 45 48q-24 6 -38 23.5t-14 38.5q0 28 22 48t56 20q37 0 57 -21t20 -56z" />
    <glyph glyph-name="ntilde.alt" horiz-adv-x="681" 
d="M443 5q1 10 1.5 29t1 82t-1.5 125q-2 111 -81 111q-51 0 -82 -41.5t-33 -107.5q-2 -30 -2 -83t1 -90l1 -38q-126 2 -203 0l1 491q96 -2 159 1q-2 -42 -2 -90q30 58 88.5 91.5t138.5 32.5q99 -1 152.5 -58.5t57.5 -161.5l3 -292zM262 563q-37 2 -99 -2q-5 73 24 121.5
t90 48.5q38 0 86.5 -28.5t66.5 -28.5q27 0 21 54q35 1 96 6q14 -77 -12 -123.5t-84 -46.5q-43 0 -94 27t-65 27q-34 0 -30 -55z" />
    <glyph glyph-name="oacute.alt" 
d="M378 545l-90 55q44 52 76 91.5t42 52.5l10 14l112 -70q-53 -49 -90.5 -85t-48.5 -47zM363 510q70 0 128 -15t104 -46t71.5 -84.5t25.5 -124.5q1 -120 -90 -186.5t-236 -66.5q-153 0 -244 71.5t-90 187.5q0 125 89 194.5t242 69.5zM361 375q-55 0 -89 -35t-34 -97
q0 -55 33 -89.5t89 -34.5q57 0 91.5 32.5t34.5 87.5q0 64 -32.5 100t-92.5 36z" />
    <glyph glyph-name="ocircumflex.alt" 
d="M233 542q-21 25 -65 73q56 40 137 109q37 -1 114 2q45 -41 137 -111q-18 -17 -64 -72q-47 36 -131 94q-41 -24 -128 -95zM363 510q70 0 128 -15t104 -46t71.5 -84.5t25.5 -124.5q1 -120 -90 -186.5t-236 -66.5q-153 0 -244 71.5t-90 187.5q0 125 89 194.5t242 69.5z
M361 375q-55 0 -89 -35t-34 -97q0 -55 33 -89.5t89 -34.5q57 0 91.5 32.5t34.5 87.5q0 64 -32.5 100t-92.5 36z" />
    <glyph glyph-name="odieresis.alt" 
d="M252 561q-42 0 -64 21.5t-22 54.5q0 30 25 49.5t62 19.5q38 0 61.5 -19.5t23.5 -52.5q0 -37 -24.5 -55t-61.5 -18zM475 563q-37 0 -59.5 20.5t-22.5 54.5q0 30 22.5 49.5t61.5 19.5q40 0 60.5 -20t20.5 -52q0 -35 -24 -53.5t-59 -18.5zM363 510q70 0 128 -15t104 -46
t71.5 -84.5t25.5 -124.5q1 -120 -90 -186.5t-236 -66.5q-153 0 -244 71.5t-90 187.5q0 125 89 194.5t242 69.5zM361 375q-55 0 -89 -35t-34 -97q0 -55 33 -89.5t89 -34.5q57 0 91.5 32.5t34.5 87.5q0 64 -32.5 100t-92.5 36z" />
    <glyph glyph-name="ograve.alt" 
d="M363 510q70 0 128 -15t104 -46t71.5 -84.5t25.5 -124.5q1 -120 -90 -186.5t-236 -66.5q-153 0 -244 71.5t-90 187.5q0 125 89 194.5t242 69.5zM361 375q-55 0 -89 -35t-34 -97q0 -55 33 -89.5t89 -34.5q57 0 91.5 32.5t34.5 87.5q0 64 -32.5 100t-92.5 36zM353 545
q-30 32 -150 143q17 8 110 71q31 -43 130 -159q-29 -15 -90 -55z" />
    <glyph glyph-name="ohungarumlaut.alt" 
d="M363 510q70 0 128 -15t104 -46t71.5 -84.5t25.5 -124.5q1 -120 -90 -186.5t-236 -66.5q-153 0 -244 71.5t-90 187.5q0 125 89 194.5t242 69.5zM361 375q-55 0 -89 -35t-34 -97q0 -55 33 -89.5t89 -34.5q57 0 91.5 32.5t34.5 87.5q0 64 -32.5 100t-92.5 36zM458 542
l-88 46q39 56 67 98t37 56l8 14l111 -56zM277 549l-88 46q38 56 65.5 98.5t35.5 56.5l9 14l111 -58q-48 -54 -81 -93.5t-43 -51.5z" />
    <glyph glyph-name="omacron.alt" 
d="M197 580q1 30 -1 101q86 -1 332 2l-1 -101q-100 2 -330 -2zM363 510q70 0 128 -15t104 -46t71.5 -84.5t25.5 -124.5q1 -120 -90 -186.5t-236 -66.5q-153 0 -244 71.5t-90 187.5q0 125 89 194.5t242 69.5zM361 375q-55 0 -89 -35t-34 -97q0 -55 33 -89.5t89 -34.5
q57 0 91.5 32.5t34.5 87.5q0 64 -32.5 100t-92.5 36z" />
    <glyph glyph-name="otilde.alt" 
d="M363 510q70 0 128 -15t104 -46t71.5 -84.5t25.5 -124.5q1 -120 -90 -186.5t-236 -66.5q-153 0 -244 71.5t-90 187.5q0 125 89 194.5t242 69.5zM361 375q-55 0 -89 -35t-34 -97q0 -55 33 -89.5t89 -34.5q57 0 91.5 32.5t34.5 87.5q0 64 -32.5 100t-92.5 36zM266 558
q-37 2 -99 -2q-5 73 24 121.5t90 48.5q38 0 86.5 -28.5t66.5 -28.5q27 0 21 54q35 1 96 6q14 -77 -12 -123.5t-84 -46.5q-43 0 -94 27t-65 27q-34 0 -30 -55z" />
    <glyph glyph-name="racute.alt" horiz-adv-x="485" 
d="M259 548l-90 55q44 52 76 91.5t42 53.5l10 13l112 -70q-53 -49 -90.5 -85t-48.5 -47zM46 12q1 232 -1 473q68 0 164 1q-1 -29 -1 -71q35 62 103.5 96.5t163.5 23.5q-3 -77 -4 -177q-130 0 -176.5 -49.5t-48.5 -169.5l2 -126q-80 0 -202 -1z" />
    <glyph glyph-name="rcaron.alt" horiz-adv-x="485" 
d="M185 556q-44 41 -137 111q19 17 65 73q46 -37 130 -95q41 24 129 95l64 -73q-55 -39 -136 -108q-37 1 -115 -3zM46 12q1 232 -1 473q68 0 164 1q-1 -29 -1 -71q35 62 103.5 96.5t163.5 23.5q-3 -77 -4 -177q-130 0 -176.5 -49.5t-48.5 -169.5l2 -126q-80 0 -202 -1z" />
    <glyph glyph-name="rcommaaccent.alt" horiz-adv-x="485" 
d="M229 -121q0 -38 -29 -76t-82 -67l-37 42q31 25 45 48q-24 6 -38 23.5t-14 38.5q0 28 22 48t56 20q37 0 57 -21t20 -56zM46 12q1 232 -1 473q68 0 164 1q-1 -29 -1 -71q35 62 103.5 96.5t163.5 23.5q-3 -77 -4 -177q-130 0 -176.5 -49.5t-48.5 -169.5l2 -126
q-80 0 -202 -1z" />
    <glyph glyph-name="sacute.alt" horiz-adv-x="628" 
d="M330 -23q-132 0 -217 47.5t-96 144.5q64 1 190 7q11 -70 122 -70q39 0 62 12t23 31q0 21 -30.5 31.5t-117.5 17.5q-120 9 -177.5 48.5t-57.5 116.5q0 71 69.5 117t199.5 46q138 0 217 -49.5t91 -131.5q-56 -2 -185 -11q-15 62 -113 62q-78 0 -78 -39q0 -22 31 -33.5
t116 -17.5q132 -9 183 -46t51 -101q0 -81 -74.5 -131.5t-208.5 -50.5zM332 555l-90 55q44 52 76 91.5t42 52.5l10 14l112 -70q-53 -49 -90.5 -85t-48.5 -47z" />
    <glyph glyph-name="scaron.alt" horiz-adv-x="628" 
d="M257 563q-44 41 -137 111q19 17 65 73q46 -37 130 -95q41 24 129 95l64 -73q-55 -39 -136 -108q-37 1 -115 -3zM330 -23q-132 0 -217 47.5t-96 144.5q64 1 190 7q11 -70 122 -70q39 0 62 12t23 31q0 21 -30.5 31.5t-117.5 17.5q-120 9 -177.5 48.5t-57.5 116.5
q0 71 69.5 117t199.5 46q138 0 217 -49.5t91 -131.5q-56 -2 -185 -11q-15 62 -113 62q-78 0 -78 -39q0 -22 31 -33.5t116 -17.5q132 -9 183 -46t51 -101q0 -81 -74.5 -131.5t-208.5 -50.5z" />
    <glyph glyph-name="scedilla.alt" horiz-adv-x="628" 
d="M414 149q0 21 -30.5 31.5t-117.5 17.5q-120 9 -177.5 48.5t-57.5 116.5q0 71 69.5 117t199.5 46q138 0 217 -49.5t91 -131.5q-56 -2 -185 -11q-15 62 -113 62q-78 0 -78 -39q0 -22 31 -33.5t116 -17.5q132 -9 183 -46t51 -101q0 -75 -64 -124t-181 -56v-46q64 0 97 -22
t33 -59q0 -43 -46 -68.5t-132 -25.5q-63 0 -119 25q7 28 13 65q46 -23 88 -23q57 0 57 31q0 37 -91 28q9 39 18 95q-115 7 -187.5 54t-81.5 136q64 1 190 7q11 -70 122 -70q39 0 62 12t23 31z" />
    <glyph glyph-name="scircumflex.alt" horiz-adv-x="628" 
d="M185 549q-21 25 -65 73q56 40 137 109q37 -1 114 2q45 -41 137 -111q-18 -17 -64 -72q-47 36 -131 94q-41 -24 -128 -95zM330 -23q-132 0 -217 47.5t-96 144.5q64 1 190 7q11 -70 122 -70q39 0 62 12t23 31q0 21 -30.5 31.5t-117.5 17.5q-120 9 -177.5 48.5t-57.5 116.5
q0 71 69.5 117t199.5 46q138 0 217 -49.5t91 -131.5q-56 -2 -185 -11q-15 62 -113 62q-78 0 -78 -39q0 -22 31 -33.5t116 -17.5q132 -9 183 -46t51 -101q0 -81 -74.5 -131.5t-208.5 -50.5z" />
    <glyph glyph-name="scommaaccent.alt" horiz-adv-x="628" 
d="M392 -136q0 -38 -29 -76t-82 -67l-37 42q31 25 45 48q-24 6 -38 23.5t-14 38.5q0 28 22 48t56 20q37 0 57 -21t20 -56zM330 -23q-132 0 -217 47.5t-96 144.5q64 1 190 7q11 -70 122 -70q39 0 62 12t23 31q0 21 -30.5 31.5t-117.5 17.5q-120 9 -177.5 48.5t-57.5 116.5
q0 71 69.5 117t199.5 46q138 0 217 -49.5t91 -131.5q-56 -2 -185 -11q-15 62 -113 62q-78 0 -78 -39q0 -22 31 -33.5t116 -17.5q132 -9 183 -46t51 -101q0 -81 -74.5 -131.5t-208.5 -50.5z" />
    <glyph glyph-name="tcaron.alt" horiz-adv-x="535" 
d="M519 703q0 -38 -29 -76t-82 -67l-37 42q31 25 45 48q-24 6 -38 23.5t-14 38.5q0 28 22 48t56 20q37 0 57 -21t20 -56zM511 3q-102 -22 -175 -22q-112 0 -171.5 56.5t-62.5 181.5q-2 94 -2 151l-91 -1l-1 148l93 -2l3 135l199 1q-2 -58 -3 -137h202l-1 -147q-140 2 -202 2
q0 -67 3 -127q2 -49 24.5 -71.5t75.5 -22.5q38 0 95 12z" />
    <glyph glyph-name="tcommaaccent.alt" horiz-adv-x="535" 
d="M399 -131q0 -38 -29 -76t-82 -67l-37 42q31 25 45 48q-24 6 -38 23.5t-14 38.5q0 28 22 48t56 20q37 0 57 -21t20 -56zM511 3q-102 -22 -175 -22q-112 0 -171.5 56.5t-62.5 181.5q-2 94 -2 151l-91 -1l-1 148l93 -2l3 135l199 1q-2 -58 -3 -137h202l-1 -147
q-140 2 -202 2q0 -67 3 -127q2 -49 24.5 -71.5t75.5 -22.5q38 0 95 12z" />
    <glyph glyph-name="uacute.alt" horiz-adv-x="682" 
d="M354 543l-90 55q44 52 76 91.5t42 52.5l10 14l112 -70q-53 -49 -90.5 -85t-48.5 -47zM280 13q-128 0 -184.5 77t-56.5 238q0 110 11 195q46 -6 190 -14q-7 -66 -7 -153q0 -98 23.5 -143.5t74.5 -45.5q93 0 100 129q4 47 4.5 103.5t-0.5 89.5l-1 33q44 -2 198 -2
q-3 -197 1 -515l-171 1q2 33 2 84q-64 -77 -184 -77z" />
    <glyph glyph-name="ubreve.alt" horiz-adv-x="682" 
d="M280 13q-128 0 -184.5 77t-56.5 238q0 110 11 195q46 -6 190 -14q-7 -66 -7 -153q0 -98 23.5 -143.5t74.5 -45.5q93 0 100 129q4 47 4.5 103.5t-0.5 89.5l-1 33q44 -2 198 -2q-3 -197 1 -515l-171 1q2 33 2 84q-64 -77 -184 -77zM338 554q-91 0 -138.5 39t-44.5 107
q46 0 117 5q0 -30 17 -47.5t50 -17.5q31 0 48.5 19t13.5 57q40 -1 120 1q6 -82 -45 -122.5t-138 -40.5z" />
    <glyph glyph-name="ucircumflex.alt" horiz-adv-x="682" 
d="M209 544q-21 25 -65 73q56 40 137 109q37 -1 114 2q45 -41 137 -111q-18 -17 -64 -72q-47 36 -131 94q-41 -24 -128 -95zM280 13q-128 0 -184.5 77t-56.5 238q0 110 11 195q46 -6 190 -14q-7 -66 -7 -153q0 -98 23.5 -143.5t74.5 -45.5q93 0 100 129q4 47 4.5 103.5
t-0.5 89.5l-1 33q44 -2 198 -2q-3 -197 1 -515l-171 1q2 33 2 84q-64 -77 -184 -77z" />
    <glyph glyph-name="udieresis.alt" horiz-adv-x="682" 
d="M228 565q-42 0 -64 21.5t-22 54.5q0 30 25 49.5t62 19.5q38 0 61.5 -19.5t23.5 -52.5q0 -37 -24.5 -55t-61.5 -18zM451 567q-37 0 -59.5 20.5t-22.5 54.5q0 30 22.5 49.5t61.5 19.5q40 0 60.5 -20t20.5 -52q0 -35 -24 -53.5t-59 -18.5zM280 13q-128 0 -184.5 77
t-56.5 238q0 110 11 195q46 -6 190 -14q-7 -66 -7 -153q0 -98 23.5 -143.5t74.5 -45.5q93 0 100 129q4 47 4.5 103.5t-0.5 89.5l-1 33q44 -2 198 -2q-3 -197 1 -515l-171 1q2 33 2 84q-64 -77 -184 -77z" />
    <glyph glyph-name="ugrave.alt" horiz-adv-x="682" 
d="M329 543q-30 32 -150 143q17 8 110 71q31 -43 130 -159q-29 -15 -90 -55zM280 13q-128 0 -184.5 77t-56.5 238q0 110 11 195q46 -6 190 -14q-7 -66 -7 -153q0 -98 23.5 -143.5t74.5 -45.5q93 0 100 129q4 47 4.5 103.5t-0.5 89.5l-1 33q44 -2 198 -2q-3 -197 1 -515
l-171 1q2 33 2 84q-64 -77 -184 -77z" />
    <glyph glyph-name="uhungarumlaut.alt" horiz-adv-x="682" 
d="M433 545l-88 46q39 56 67 98t36 56l9 14l111 -56zM252 552l-88 46q38 56 65.5 98t36.5 56l8 15l111 -58q-48 -54 -81 -93.5t-42 -51.5zM280 13q-128 0 -184.5 77t-56.5 238q0 110 11 195q46 -6 190 -14q-7 -66 -7 -153q0 -98 23.5 -143.5t74.5 -45.5q93 0 100 129
q4 47 4.5 103.5t-0.5 89.5l-1 33q44 -2 198 -2q-3 -197 1 -515l-171 1q2 33 2 84q-64 -77 -184 -77z" />
    <glyph glyph-name="umacron.alt" horiz-adv-x="682" 
d="M173 586q1 30 -1 101q86 -1 332 2l-1 -101q-100 2 -330 -2zM280 13q-128 0 -184.5 77t-56.5 238q0 110 11 195q46 -6 190 -14q-7 -66 -7 -153q0 -98 23.5 -143.5t74.5 -45.5q93 0 100 129q4 47 4.5 103.5t-0.5 89.5l-1 33q44 -2 198 -2q-3 -197 1 -515l-171 1q2 33 2 84
q-64 -77 -184 -77z" />
    <glyph glyph-name="uogonek.alt" horiz-adv-x="682" 
d="M280 13q-128 0 -184.5 77t-56.5 238q0 110 11 195q46 -6 190 -14q-7 -66 -7 -153q0 -98 23.5 -143.5t74.5 -45.5q93 0 100 129q4 47 4.5 103.5t-0.5 89.5l-1 33q44 -2 198 -2q-3 -197 1 -515q-34 1 -95 1q-58 -34 -58 -73q0 -22 21.5 -34t60.5 -8q-5 -34 -8 -95
q-90 -12 -138.5 14.5t-49.5 75.5q-1 36 24.5 71t71.5 57q2 24 2 76q-64 -77 -184 -77z" />
    <glyph glyph-name="uring.alt" horiz-adv-x="682" 
d="M332 547q-64 0 -99.5 30t-35.5 76q0 50 38 77.5t98 27.5q66 0 102 -30t36 -75q0 -53 -39 -79.5t-100 -26.5zM336 605q25 0 40.5 13.5t15.5 34.5q0 20 -14 35t-42 15q-27 0 -42.5 -13t-15.5 -35t14.5 -36t43.5 -14zM280 13q-128 0 -184.5 77t-56.5 238q0 110 11 195
q46 -6 190 -14q-7 -66 -7 -153q0 -98 23.5 -143.5t74.5 -45.5q93 0 100 129q4 47 4.5 103.5t-0.5 89.5l-1 33q44 -2 198 -2q-3 -197 1 -515l-171 1q2 33 2 84q-64 -77 -184 -77z" />
    <glyph glyph-name="yacute.alt" horiz-adv-x="642" 
d="M337 558l-90 55q44 52 76 91.5t42 53.5l10 13l112 -70q-53 -49 -90.5 -85t-48.5 -47zM375 -269l-207 32l71 191q-60 144 -119.5 281.5t-88.5 202.5l-29 66q64 2 117 5t75 5l21 2q30 -97 60 -187.5t45 -132.5l15 -42q35 108 62.5 199.5t36.5 128.5l10 38l196 -9
q-91 -260 -157 -455t-87 -260z" />
    <glyph glyph-name="ydieresis.alt" horiz-adv-x="642" 
d="M211 580q-42 0 -64 21.5t-22 54.5q0 30 25 49.5t62 19.5q38 0 61.5 -19.5t23.5 -52.5q0 -37 -24.5 -55t-61.5 -18zM434 582q-37 0 -59.5 20.5t-22.5 54.5q0 30 22.5 49.5t61.5 19.5q40 0 60.5 -20t20.5 -52q0 -35 -24 -53.5t-59 -18.5zM375 -269l-207 32l71 191
q-60 144 -119.5 281.5t-88.5 202.5l-29 66q64 2 117 5t75 5l21 2q30 -97 60 -187.5t45 -132.5l15 -42q35 108 62.5 199.5t36.5 128.5l10 38l196 -9q-91 -260 -157 -455t-87 -260z" />
    <glyph glyph-name="zacute.alt" horiz-adv-x="607" 
d="M322 545l-90 55q44 52 76 91.5t42 52.5l10 14l112 -70q-53 -49 -90.5 -85t-48.5 -47zM573 6q-194 4 -329 6t-174 2h-38l2 118l293 229q-100 -1 -171 -3.5t-92 -3.5l-22 -2l-2 147q166 -1 298 0t180 3l49 1l1 -122q-95 -72 -167.5 -129t-97.5 -78l-25 -21q83 0 157 1.5
t107 3.5l33 1z" />
    <glyph glyph-name="zcaron.alt" horiz-adv-x="607" 
d="M246 553q-44 41 -137 111q19 17 65 73q46 -37 130 -95q41 24 129 95l64 -73q-55 -39 -136 -108q-37 1 -115 -3zM573 6q-194 4 -329 6t-174 2h-38l2 118l293 229q-100 -1 -171 -3.5t-92 -3.5l-22 -2l-2 147q166 -1 298 0t180 3l49 1l1 -122q-95 -72 -167.5 -129t-97.5 -78
l-25 -21q83 0 157 1.5t107 3.5l33 1z" />
    <glyph glyph-name="zdotaccent.alt" horiz-adv-x="607" 
d="M573 6q-194 4 -329 6t-174 2h-38l2 118l293 229q-100 -1 -171 -3.5t-92 -3.5l-22 -2l-2 147q166 -1 298 0t180 3l49 1l1 -122q-95 -72 -167.5 -129t-97.5 -78l-25 -21q83 0 157 1.5t107 3.5l33 1zM304 564q-48 0 -74 26t-26 65q0 36 27 59.5t73 23.5q48 0 74 -25.5
t26 -60.5q0 -41 -27.5 -64.5t-72.5 -23.5z" />
    <glyph glyph-name="uni0237.alt" horiz-adv-x="315" 
d="M-72 -211q5 36 5 142q36 -4 48 -4q41 0 59.5 20.5t19.5 67.5q1 112 1 215t-1 176l-1 73q69 -2 113 -1.5t64 1.5l20 1q1 -19 1.5 -55.5t1.5 -162.5t0 -264q0 -220 -220 -220q-48 0 -111 11z" />
    <glyph glyph-name="zero.alt" horiz-adv-x="829" 
d="M414 687q186 0 285.5 -93t99.5 -257q0 -165 -105.5 -264.5t-279.5 -99.5q-162 0 -272.5 98.5t-110.5 262.5q0 163 104.5 258t278.5 95zM418 518q-81 0 -124.5 -52.5t-43.5 -130.5q0 -84 44 -134t124 -50q73 0 118.5 49t45.5 139q0 74 -43 126.5t-121 52.5z" />
    <glyph glyph-name="one.alt" horiz-adv-x="480" 
d="M186 7q2 341 0 452l-127 -61l-57 165l246 114l140 -6l6 -663z" />
    <glyph glyph-name="two.alt" horiz-adv-x="733" 
d="M702 3q-208 4 -375.5 5.5t-230.5 1.5h-63l-6 191q238 60 345 119.5t107 126.5q0 42 -29.5 68t-79.5 26q-72 0 -102 -46.5t-21 -123.5q-91 8 -220 9q-15 145 80 230.5t276 85.5q163 0 247 -64.5t84 -173.5q0 -107 -100.5 -180t-284.5 -110q100 0 192.5 3.5t135.5 6.5l43 3
z" />
    <glyph glyph-name="three.alt" horiz-adv-x="779" 
d="M391 -26q-115 0 -200 27.5t-134.5 90.5t-42.5 155q136 0 236 5q-5 -59 32 -90t109 -31q67 0 105.5 21t38.5 54q0 45 -81 65q-74 15 -184 7q-1 49 -4 120q130 -9 199 11q65 19 65 57q0 39 -35.5 59.5t-97.5 20.5q-72 0 -106.5 -31.5t-32.5 -78.5l-228 9q-5 113 91.5 182
t275.5 69q157 0 254.5 -62t97.5 -154q0 -50 -42 -88t-108 -51q76 -13 118.5 -52.5t42.5 -96.5q0 -108 -103.5 -163t-265.5 -55z" />
    <glyph glyph-name="four.alt" horiz-adv-x="765" 
d="M460 10l1 102q-108 0 -452 -4q-2 47 -2 159l336 418q97 -4 176.5 -5t110.5 -1h30q-2 -330 -1 -417l95 2q-1 -61 -1 -151h-94l2 -102zM228 262q18 0 98.5 -0.5t136.5 -0.5q1 134 1 302q-126 -159 -236 -301z" />
    <glyph glyph-name="five.alt" horiz-adv-x="770" 
d="M391 -19q-157 0 -255 62.5t-111 178.5l222 10q6 -44 47.5 -70.5t96.5 -26.5q56 0 95.5 27t39.5 69q0 40 -33.5 67.5t-99.5 27.5q-44 0 -81.5 -18.5t-53.5 -43.5q-89 8 -217 13q7 169 8 401q240 0 652 7q-2 -59 -2 -160q-199 1 -453 -6q-2 -66 -2 -126q85 61 215 61
q142 0 218.5 -63t76.5 -168q0 -110 -104 -176t-259 -66z" />
    <glyph glyph-name="six.alt" horiz-adv-x="802" 
d="M413 -28q-178 0 -280 94.5t-102 260.5q0 168 106.5 267t284.5 99q152 0 243 -63.5t99 -162.5q-65 0 -124 -2.5t-86 -4.5l-27 -2q-16 78 -109 78q-71 0 -115.5 -56t-46.5 -137q84 87 229 87q151 0 227 -54t76 -151q0 -118 -107 -185.5t-268 -67.5zM442 311
q-52 0 -96.5 -24t-68.5 -61q21 -49 61.5 -75t90.5 -26q53 0 89.5 25.5t36.5 67.5t-29 67.5t-84 25.5z" />
    <glyph glyph-name="seven.alt" horiz-adv-x="667" 
d="M165 6q-3 148 67 276.5t201 224.5l-425 -6l1 176l651 7l2 -197q-141 -98 -203.5 -213.5t-61.5 -274.5z" />
    <glyph glyph-name="eight.alt" horiz-adv-x="797" 
d="M411 -22q-186 0 -290.5 57t-104.5 159q0 59 42.5 101.5t120.5 56.5q-139 42 -139 156q0 85 91.5 138.5t269.5 53.5q173 0 268.5 -59t95.5 -138q0 -51 -36 -90t-107 -59q75 -18 117 -61.5t42 -95.5q0 -99 -106 -159t-264 -60zM404 120q63 0 105 24.5t42 65.5
q0 39 -46 64.5t-119 30.5q-71 -7 -106.5 -31.5t-35.5 -60.5q0 -42 44 -67.5t116 -25.5zM420 397q58 8 91 29t33 52q0 37 -38 60.5t-108 23.5q-66 0 -104 -23t-38 -59q0 -68 164 -83z" />
    <glyph glyph-name="nine.alt" horiz-adv-x="790" 
d="M391 -22q-152 0 -255 66.5t-116 182.5q56 0 112.5 2.5t85.5 4.5l28 2q19 -93 139 -93q149 0 155 184q-37 -35 -97.5 -54.5t-130.5 -19.5q-132 0 -211.5 51.5t-79.5 145.5q0 113 100.5 180t260.5 67q179 0 278 -98.5t99 -259.5q0 -91 -28.5 -161t-78.5 -113t-116 -65
t-145 -22zM373 362q43 0 86 20t71 52q-32 105 -145 105q-63 0 -98 -24.5t-35 -66.5q0 -41 32.5 -63.5t88.5 -22.5z" />
    <glyph glyph-name="period.alt" horiz-adv-x="298" 
d="M149 223q53 0 88.5 -31.5t34.5 -80.5q-1 -56 -32 -87t-89 -31q-60 0 -92.5 31t-32.5 85q0 52 34 83t89 31z" />
    </font>
</defs>
</svg>
